Paribartan0.ufo
<glyph name=".notdef" format="2">
  <advance width="1000"/>
  <unicode hex="0000"/>
  <outline>
    <contour>
      <point x="421" y="205.75" type="line"/>
      <point x="421" y="276.75" type="line"/>
      <point x="497" y="276.75" type="line"/>
      <point x="497" y="205.75" type="line"/>
    </contour>
    <contour>
      <point x="421" y="620.75" type="line"/>
      <point x="425.5" y="621.25"/>
      <point x="429.5" y="621.25"/>
      <point x="434" y="621.25" type="curve" smooth="yes"/>
      <point x="505.5" y="621.25"/>
      <point x="563" y="563.75"/>
      <point x="563" y="492.75" type="curve" smooth="yes"/>
      <point x="563" y="444.165"/>
      <point x="536.45" y="402.045"/>
      <point x="497" y="380.037" type="curve"/>
      <point x="497" y="321.75" type="line"/>
      <point x="421" y="321.75" type="line"/>
      <point x="421" y="364.25" type="line"/>
      <point x="421" y="426.75" type="line"/>
      <point x="421" y="440.75" type="line"/>
      <point x="425" y="439.75"/>
      <point x="429.5" y="439.25"/>
      <point x="434" y="439.25" type="curve" smooth="yes"/>
      <point x="464" y="439.25"/>
      <point x="487.5" y="462.75"/>
      <point x="487.5" y="492.75" type="curve" smooth="yes"/>
      <point x="487.5" y="522.25"/>
      <point x="464" y="545.75"/>
      <point x="434" y="545.75" type="curve" smooth="yes"/>
      <point x="429.5" y="545.75"/>
      <point x="425" y="545.25"/>
      <point x="421" y="544.25" type="curve"/>
    </contour>
    <contour>
      <point x="308" y="732" type="line" smooth="yes"/>
      <point x="300" y="732"/>
      <point x="293" y="725"/>
      <point x="293" y="717" type="curve" smooth="yes"/>
      <point x="293" y="81" type="line" smooth="yes"/>
      <point x="293" y="73"/>
      <point x="300" y="66"/>
      <point x="308" y="66" type="curve" smooth="yes"/>
      <point x="670" y="66" type="line" smooth="yes"/>
      <point x="678" y="66"/>
      <point x="685" y="73"/>
      <point x="685" y="81" type="curve" smooth="yes"/>
      <point x="685" y="717" type="line" smooth="yes"/>
      <point x="685" y="725"/>
      <point x="678" y="732"/>
      <point x="670" y="732" type="curve" smooth="yes"/>
    </contour>
    <contour>
      <point x="258" y="794" type="curve" smooth="yes"/>
      <point x="718" y="794" type="line" smooth="yes"/>
      <point x="726" y="794"/>
      <point x="733" y="787"/>
      <point x="733" y="779" type="curve" smooth="yes"/>
      <point x="733" y="15" type="line" smooth="yes"/>
      <point x="733" y="7"/>
      <point x="726" y="0"/>
      <point x="718" y="0" type="curve" smooth="yes"/>
      <point x="258" y="0" type="line" smooth="yes"/>
      <point x="250" y="0"/>
      <point x="243" y="7"/>
      <point x="243" y="15" type="curve" smooth="yes"/>
      <point x="243" y="779" type="line" smooth="yes"/>
      <point x="243" y="787"/>
      <point x="250" y="794"/>
    </contour>
  </outline>
</glyph>
<glyph name="numbersign" format="2">
  <advance width="644"/>
  <unicode hex="0023"/>
  <outline>
    <contour>
      <point x="149" y="692" type="line"/>
      <point x="301" y="692" type="line"/>
      <point x="287.917" y="618" type="line"/>
      <point x="435.917" y="618" type="line"/>
      <point x="449" y="692" type="line"/>
      <point x="601" y="692" type="line"/>
      <point x="587.917" y="618" type="line"/>
      <point x="599" y="618" type="line"/>
      <point x="599" y="466" type="line"/>
      <point x="561.044" y="466" type="line"/>
      <point x="543.718" y="368" type="line"/>
      <point x="599" y="368" type="line"/>
      <point x="599" y="216" type="line"/>
      <point x="516.845" y="216" type="line"/>
      <point x="505" y="149" type="line"/>
      <point x="353" y="149" type="line"/>
      <point x="364.845" y="216" type="line"/>
      <point x="216.845" y="216" type="line"/>
      <point x="205" y="149" type="line"/>
      <point x="53" y="149" type="line"/>
      <point x="64.8453" y="216" type="line"/>
      <point x="55" y="216" type="line"/>
      <point x="55" y="368" type="line"/>
      <point x="91.7182" y="368" type="line"/>
      <point x="109.044" y="466" type="line"/>
      <point x="55" y="466" type="line"/>
      <point x="55" y="618" type="line"/>
      <point x="135.917" y="618" type="line"/>
    </contour>
    <contour>
      <point x="409.044" y="466" type="line"/>
      <point x="261.044" y="466" type="line"/>
      <point x="243.718" y="368" type="line"/>
      <point x="391.718" y="368" type="line"/>
    </contour>
  </outline>
</glyph>
<glyph name="ampersand" format="2">
  <advance width="649"/>
  <unicode hex="0026"/>
  <outline>
    <contour>
      <point x="388.893" y="810" type="curve"/>
      <point x="385.893" y="691" type="line"/>
      <point x="360.893" y="689"/>
      <point x="242.893" y="624"/>
      <point x="223.893" y="605" type="curve" smooth="yes"/>
      <point x="200.893" y="582"/>
      <point x="190.893" y="551"/>
      <point x="192.893" y="521" type="curve"/>
      <point x="215.552" y="498.341" type="line"/>
      <point x="246.096" y="511.013"/>
      <point x="279.644" y="518"/>
      <point x="314.893" y="518" type="curve" smooth="yes"/>
      <point x="323.666" y="518"/>
      <point x="332.339" y="517.561"/>
      <point x="340.893" y="516.704" type="curve"/>
      <point x="340.893" y="373" type="line"/>
      <point x="452.024" y="261.868" type="line"/>
      <point x="509.897" y="309.094"/>
      <point x="564.953" y="354.163"/>
      <point x="568.893" y="355.132" type="curve"/>
      <point x="568.893" y="202.296" type="line" smooth="yes"/>
      <point x="567.041" y="202.11"/>
      <point x="554.504" y="192.669"/>
      <point x="535.904" y="177.988" type="curve"/>
      <point x="599.893" y="114" type="line"/>
      <point x="481.893" y="-4" type="line"/>
      <point x="405.688" y="72.9551" type="line"/>
      <point x="358.41" y="34.7773"/>
      <point x="318.403" y="3"/>
      <point x="314.893" y="3" type="curve" smooth="yes"/>
      <point x="171.893" y="3"/>
      <point x="56.8926" y="118"/>
      <point x="56.8926" y="260" type="curve" smooth="yes"/>
      <point x="56.8926" y="307.479"/>
      <point x="69.5703" y="351.873"/>
      <point x="91.7412" y="389.995" type="curve"/>
      <point x="75.8926" y="406" type="line"/>
      <point x="20.8164" y="505.021"/>
      <point x="62.6963" y="608.464"/>
      <point x="116.893" y="712" type="curve" smooth="yes"/>
      <point x="143.875" y="763.547"/>
      <point x="356.148" y="829.729"/>
    </contour>
    <contour>
      <point x="321.578" y="157.894" type="curve"/>
      <point x="208.534" y="272.052" type="line"/>
      <point x="208.11" y="268.102"/>
      <point x="207.893" y="264.081"/>
      <point x="207.893" y="260" type="curve" smooth="yes"/>
      <point x="207.893" y="201"/>
      <point x="254.893" y="154"/>
      <point x="314.893" y="154" type="curve" smooth="yes"/>
      <point x="315.637" y="154"/>
      <point x="317.953" y="155.373"/>
    </contour>
  </outline>
</glyph>
<glyph name="quotesingle" format="2">
  <advance width="252"/>
  <unicode hex="0027"/>
  <outline>
    <contour>
      <point x="50" y="532" type="line"/>
      <point x="50" y="789" type="line"/>
      <point x="202" y="789" type="line"/>
      <point x="202" y="532" type="line"/>
    </contour>
  </outline>
</glyph>
<glyph name="parenleft" format="2">
  <advance width="555"/>
  <unicode hex="0028"/>
  <outline>
    <contour>
      <point x="432" y="744" type="line" smooth="yes"/>
      <point x="304" y="744"/>
      <point x="154" y="579"/>
      <point x="154" y="378" type="curve" smooth="yes"/>
      <point x="154" y="176"/>
      <point x="304" y="11"/>
      <point x="432" y="11" type="curve" smooth="yes"/>
      <point x="505" y="-7" type="line"/>
      <point x="481" y="-12"/>
      <point x="457" y="-14"/>
      <point x="432" y="-14" type="curve" smooth="yes"/>
      <point x="221" y="-14"/>
      <point x="50" y="162"/>
      <point x="50" y="380" type="curve" smooth="yes"/>
      <point x="50" y="597"/>
      <point x="221" y="773"/>
      <point x="432" y="773" type="curve" smooth="yes"/>
      <point x="457" y="773"/>
      <point x="481" y="771"/>
      <point x="505" y="766" type="curve"/>
    </contour>
  </outline>
</glyph>
<glyph name="comma" format="2">
  <advance width="252"/>
  <unicode hex="002C"/>
  <outline>
    <contour>
      <point x="50" y="-2" type="line"/>
      <point x="50" y="140" type="line"/>
      <point x="202" y="140" type="line"/>
      <point x="202" y="-2" type="line"/>
      <point x="142" y="-134" type="line"/>
      <point x="84" y="-130" type="line"/>
      <point x="92.7671" y="-2" type="line"/>
    </contour>
  </outline>
</glyph>
<glyph name="hyphen" format="2">
  <advance width="644"/>
  <unicode hex="002D"/>
  <outline>
    <contour>
      <point x="594" y="496" type="line"/>
      <point x="594" y="344" type="line"/>
      <point x="50" y="344" type="line"/>
      <point x="50" y="496" type="line"/>
    </contour>
  </outline>
</glyph>
<glyph name="period" format="2">
  <advance width="252"/>
  <unicode hex="002E"/>
  <outline>
    <contour>
      <point x="50" y="-2" type="line"/>
      <point x="50" y="140" type="line"/>
      <point x="202" y="140" type="line"/>
      <point x="202" y="-2" type="line"/>
    </contour>
  </outline>
</glyph>
<glyph name="zero" format="2">
  <advance width="864"/>
  <unicode hex="0030"/>
  <outline>
    <contour>
      <point x="737.5" y="380" type="curve" smooth="yes"/>
      <point x="737.5" y="162"/>
      <point x="601.5" y="-14"/>
      <point x="432.5" y="-14" type="curve" smooth="yes"/>
      <point x="263.5" y="-14"/>
      <point x="126.5" y="162"/>
      <point x="126.5" y="380" type="curve" smooth="yes"/>
      <point x="126.5" y="597"/>
      <point x="263.5" y="773"/>
      <point x="432.5" y="773" type="curve" smooth="yes"/>
      <point x="601.5" y="773"/>
      <point x="737.5" y="597"/>
    </contour>
    <contour>
      <point x="615.5" y="378" type="curve" smooth="yes"/>
      <point x="615.5" y="507"/>
      <point x="534.5" y="612"/>
      <point x="432.5" y="612" type="curve" smooth="yes"/>
      <point x="330.5" y="612"/>
      <point x="248.5" y="507"/>
      <point x="248.5" y="378" type="curve" smooth="yes"/>
      <point x="248.5" y="248"/>
      <point x="330.5" y="143"/>
      <point x="432.5" y="143" type="curve" smooth="yes"/>
      <point x="534.5" y="143"/>
      <point x="615.5" y="248"/>
    </contour>
  </outline>
</glyph>
<glyph name="one" format="2">
  <advance width="436"/>
  <unicode hex="0031"/>
  <outline>
    <contour>
      <point x="158" y="487" type="line"/>
      <point x="50" y="594" type="line"/>
      <point x="232" y="776" type="line"/>
      <point x="340" y="669" type="line"/>
    </contour>
    <contour>
      <point x="234" y="774" type="line"/>
      <point x="386" y="774" type="line"/>
      <point x="386" y="-2" type="line"/>
      <point x="234" y="-2" type="line"/>
    </contour>
  </outline>
</glyph>
<glyph name="two" format="2">
  <advance width="555"/>
  <unicode hex="0032"/>
  <outline>
    <contour>
      <point x="130" y="586" type="curve" smooth="yes"/>
      <point x="257" y="586"/>
      <point x="359" y="502"/>
      <point x="359" y="398.801" type="curve" smooth="yes"/>
      <point x="359" y="294.801"/>
      <point x="257" y="226"/>
      <point x="130" y="226" type="curve" smooth="yes"/>
      <point x="104.445" y="226"/>
      <point x="79.9033" y="229.401"/>
      <point x="57" y="235.683" type="curve"/>
      <point x="54" y="0" type="line"/>
      <point x="557" y="4.80078" type="line"/>
      <point x="557" y="126.4" type="line"/>
      <point x="281.892" y="123.775" type="line"/>
      <point x="417.302" y="167.858"/>
      <point x="512" y="270.616"/>
      <point x="512" y="400.4" type="curve" smooth="yes"/>
      <point x="512" y="574"/>
      <point x="341" y="714.801"/>
      <point x="130" y="714.801" type="curve" smooth="yes"/>
      <point x="105.034" y="714.801"/>
      <point x="80.6289" y="712.829"/>
      <point x="57" y="709.066" type="curve"/>
      <point x="57" y="576.325" type="line"/>
      <point x="79.9033" y="582.6"/>
      <point x="104.445" y="586"/>
    </contour>
  </outline>
</glyph>
<glyph name="four" format="2">
  <advance width="752"/>
  <unicode hex="0034"/>
  <outline>
    <contour>
      <point x="393.764" y="0" type="line"/>
      <point x="393.764" y="192.015" type="line"/>
      <point x="392.765" y="191.015" type="line"/>
      <point x="57.7646" y="191.015" type="line"/>
      <point x="379.765" y="774" type="line"/>
      <point x="522.766" y="774" type="line"/>
      <point x="522.766" y="0" type="line"/>
    </contour>
    <contour>
      <point x="385.765" y="341.015" type="line"/>
      <point x="385.765" y="521.015" type="line"/>
      <point x="287.765" y="344.015" type="line"/>
    </contour>
  </outline>
</glyph>
<glyph name="seven" format="2">
  <advance width="610"/>
  <unicode hex="0037"/>
  <outline>
    <contour>
      <point x="213" y="0" type="line"/>
      <point x="51" y="0" type="line"/>
      <point x="389" y="610" type="line"/>
      <point x="50" y="610" type="line"/>
      <point x="50" y="762" type="line"/>
      <point x="560" y="762" type="line"/>
      <point x="560" y="610" type="line"/>
    </contour>
  </outline>
</glyph>
<glyph name="eight" format="2">
  <advance width="616"/>
  <unicode hex="0038"/>
  <outline>
    <contour>
      <point x="309.96" y="323.505" type="curve" smooth="yes"/>
      <point x="302.645" y="323.382"/>
      <point x="295.387" y="322.506"/>
      <point x="288.88" y="320.88" type="curve"/>
      <point x="288.88" y="321.609" type="line"/>
      <point x="245.67" y="312.912"/>
      <point x="214.08" y="275.505"/>
      <point x="214.08" y="229.359" type="curve" smooth="yes"/>
      <point x="214.08" y="183.984"/>
      <point x="245.67" y="146.674"/>
      <point x="288.88" y="137.99" type="curve"/>
      <point x="288.88" y="138.721" type="line"/>
      <point x="295.387" y="137.094"/>
      <point x="302.645" y="136.219"/>
      <point x="309.96" y="136.095" type="curve"/>
      <point x="317.243" y="136.224"/>
      <point x="324.327" y="137.166"/>
      <point x="331.12" y="138.836" type="curve"/>
      <point x="331.12" y="137.99" type="line"/>
      <point x="374.33" y="146.674"/>
      <point x="405.92" y="183.984"/>
      <point x="405.92" y="229.359" type="curve" smooth="yes"/>
      <point x="405.92" y="275.505"/>
      <point x="374.33" y="312.912"/>
      <point x="331.12" y="321.609" type="curve"/>
      <point x="331.12" y="320.761" type="line"/>
      <point x="324.327" y="322.435"/>
      <point x="317.243" y="323.376"/>
    </contour>
    <contour>
      <point x="309.96" y="591.904" type="curve" smooth="yes"/>
      <point x="302.645" y="591.781"/>
      <point x="295.387" y="590.907"/>
      <point x="288.88" y="589.279" type="curve"/>
      <point x="288.88" y="590.009" type="line"/>
      <point x="245.67" y="581.312"/>
      <point x="214.08" y="543.904"/>
      <point x="214.08" y="497.76" type="curve" smooth="yes"/>
      <point x="214.08" y="452.385"/>
      <point x="245.67" y="415.075"/>
      <point x="288.88" y="406.39" type="curve"/>
      <point x="288.88" y="407.12" type="line"/>
      <point x="295.387" y="405.493"/>
      <point x="302.645" y="404.618"/>
      <point x="309.96" y="404.496" type="curve"/>
      <point x="317.242" y="404.624"/>
      <point x="324.327" y="405.565"/>
      <point x="331.12" y="407.236" type="curve"/>
      <point x="331.12" y="406.39" type="line"/>
      <point x="374.33" y="415.075"/>
      <point x="405.92" y="452.385"/>
      <point x="405.92" y="497.76" type="curve" smooth="yes"/>
      <point x="405.92" y="543.904"/>
      <point x="374.33" y="581.312"/>
      <point x="331.12" y="590.009" type="curve"/>
      <point x="331.12" y="589.16" type="line"/>
      <point x="324.327" y="590.834"/>
      <point x="317.242" y="591.776"/>
    </contour>
    <contour>
      <point x="309.037" y="3.20117" type="curve" smooth="yes"/>
      <point x="308.771" y="3.20117"/>
      <point x="308.506" y="3.2002"/>
      <point x="308.24" y="3.2002" type="curve" smooth="yes"/>
      <point x="307.197" y="3.2002"/>
      <point x="306.156" y="3.20605"/>
      <point x="305.116" y="3.2207" type="curve" smooth="yes"/>
      <point x="300.902" y="3.26074"/>
      <point x="296.805" y="3.38086"/>
      <point x="292.519" y="3.72949" type="curve" smooth="yes"/>
      <point x="174.077" y="11.7441"/>
      <point x="81.2002" y="109.648"/>
      <point x="81.2002" y="229.359" type="curve" smooth="yes"/>
      <point x="81.2002" y="279.814"/>
      <point x="97.4678" y="326.308"/>
      <point x="125.07" y="363.905" type="curve"/>
      <point x="97.4678" y="401.376"/>
      <point x="81.2002" y="447.659"/>
      <point x="81.2002" y="497.76" type="curve" smooth="yes"/>
      <point x="81.2002" y="618.312"/>
      <point x="174.075" y="716.251"/>
      <point x="292.514" y="724.27" type="curve" smooth="yes"/>
      <point x="296.802" y="724.619"/>
      <point x="300.901" y="724.738"/>
      <point x="305.116" y="724.779" type="curve" smooth="yes"/>
      <point x="306.156" y="724.794"/>
      <point x="307.197" y="724.8"/>
      <point x="308.24" y="724.8" type="curve" smooth="yes"/>
      <point x="308.506" y="724.8"/>
      <point x="308.771" y="724.799"/>
      <point x="309.036" y="724.798" type="curve" smooth="yes"/>
      <point x="309.935" y="724.8"/>
      <point x="310.841" y="724.8"/>
      <point x="311.76" y="724.8" type="curve" smooth="yes"/>
      <point x="437.6" y="724.8"/>
      <point x="538.8" y="623.6"/>
      <point x="538.8" y="497.76" type="curve" smooth="yes"/>
      <point x="538.8" y="447.659"/>
      <point x="522.532" y="401.376"/>
      <point x="494.93" y="363.905" type="curve"/>
      <point x="522.532" y="326.308"/>
      <point x="538.8" y="279.814"/>
      <point x="538.8" y="229.359" type="curve" smooth="yes"/>
      <point x="538.8" y="104.4"/>
      <point x="437.6" y="3.2002"/>
      <point x="311.76" y="3.2002" type="curve" smooth="yes"/>
      <point x="310.841" y="3.2002"/>
      <point x="309.935" y="3.20117"/>
    </contour>
  </outline>
</glyph>
<glyph name="nine" format="2">
  <advance width="729"/>
  <unicode hex="0039"/>
  <outline>
    <contour>
      <point x="277" y="146" type="curve" smooth="yes"/>
      <point x="391.33" y="146"/>
      <point x="485.398" y="231.094"/>
      <point x="503.03" y="342.188" type="curve"/>
      <point x="459.646" y="294.499"/>
      <point x="398.539" y="263.251"/>
      <point x="329.871" y="258.603" type="curve" smooth="yes"/>
      <point x="324.993" y="258.272"/>
      <point x="320.34" y="258.069"/>
      <point x="315.549" y="258.023" type="curve" smooth="yes"/>
      <point x="314.368" y="258.012"/>
      <point x="313.185" y="258"/>
      <point x="312" y="258" type="curve" smooth="yes"/>
      <point x="311.698" y="258"/>
      <point x="311.396" y="258.001"/>
      <point x="311.095" y="258.002" type="curve" smooth="yes"/>
      <point x="310.074" y="258"/>
      <point x="309.044" y="258"/>
      <point x="308" y="258" type="curve" smooth="yes"/>
      <point x="184.958" y="258"/>
      <point x="82.6445" y="343.141"/>
      <point x="56.4834" y="458" type="curve" smooth="yes"/>
      <point x="52.2402" y="476.63"/>
      <point x="50" y="496.042"/>
      <point x="50" y="516" type="curve" smooth="yes"/>
      <point x="50" y="543.146"/>
      <point x="54.2021" y="569.305"/>
      <point x="62" y="593.861" type="curve" smooth="yes"/>
      <point x="81.4014" y="654.966"/>
      <point x="123.061" y="706.155"/>
      <point x="177.612" y="737.959" type="curve" smooth="yes"/>
      <point x="209.802" y="760.308"/>
      <point x="243.026" y="772"/>
      <point x="277" y="772" type="curve" smooth="yes"/>
      <point x="279.414" y="772"/>
      <point x="281.823" y="771.977"/>
      <point x="284.228" y="771.931" type="curve" smooth="yes"/>
      <point x="292.054" y="772.639"/>
      <point x="299.982" y="773"/>
      <point x="308" y="773" type="curve" smooth="yes"/>
      <point x="309.044" y="773"/>
      <point x="310.074" y="772.998"/>
      <point x="311.094" y="772.998" type="curve" smooth="yes"/>
      <point x="311.396" y="772.998"/>
      <point x="311.698" y="773"/>
      <point x="312" y="773" type="curve" smooth="yes"/>
      <point x="313.185" y="773"/>
      <point x="314.368" y="772.992"/>
      <point x="315.549" y="772.977" type="curve" smooth="yes"/>
      <point x="320.338" y="772.913"/>
      <point x="324.995" y="772.795"/>
      <point x="329.866" y="772.397" type="curve" smooth="yes"/>
      <point x="383.396" y="768.024"/>
      <point x="432.366" y="748.055"/>
      <point x="471.921" y="717.016" type="curve"/>
      <point x="583.941" y="648.425"/>
      <point x="659" y="522.43"/>
      <point x="659" y="378" type="curve" smooth="yes"/>
      <point x="659" y="161"/>
      <point x="488" y="-15"/>
      <point x="277" y="-15" type="curve" smooth="yes"/>
      <point x="252.034" y="-15"/>
      <point x="181.629" y="-12.5361"/>
      <point x="158" y="-7.83203" type="curve"/>
      <point x="158" y="158.094" type="line"/>
      <point x="180.903" y="150.251"/>
      <point x="251.445" y="146"/>
    </contour>
    <contour>
      <point x="326.045" y="391.018" type="curve" smooth="yes"/>
      <point x="334.357" y="390.871"/>
      <point x="342.606" y="392.151"/>
      <point x="350" y="394" type="curve"/>
      <point x="350" y="393.172" type="line"/>
      <point x="399.102" y="403.055"/>
      <point x="435" y="445.562"/>
      <point x="435" y="498" type="curve" smooth="yes"/>
      <point x="435" y="533.456"/>
      <point x="418.026" y="564.579"/>
      <point x="391.458" y="583.771" type="curve" smooth="yes"/>
      <point x="381.058" y="589.918"/>
      <point x="370.138" y="595.249"/>
      <point x="358.777" y="599.683" type="curve" smooth="yes"/>
      <point x="355.903" y="600.515"/>
      <point x="352.976" y="601.232"/>
      <point x="350" y="601.83" type="curve"/>
      <point x="350" y="601" type="line"/>
      <point x="342.606" y="602.849"/>
      <point x="334.357" y="603.843"/>
      <point x="326.045" y="603.982" type="curve" smooth="yes"/>
      <point x="317.77" y="603.837"/>
      <point x="309.72" y="602.766"/>
      <point x="302" y="600.868" type="curve"/>
      <point x="302" y="601.83" type="line"/>
      <point x="252.898" y="591.961"/>
      <point x="217" y="549.563"/>
      <point x="217" y="498" type="curve" smooth="yes"/>
      <point x="217" y="445.562"/>
      <point x="252.898" y="403.055"/>
      <point x="302" y="393.172" type="curve"/>
      <point x="302" y="394.136" type="line"/>
      <point x="309.72" y="392.234"/>
      <point x="317.77" y="391.163"/>
    </contour>
  </outline>
</glyph>
<glyph name="semicolon" format="2">
  <advance width="252"/>
  <unicode hex="003B"/>
  <outline>
    <contour>
      <point x="50" y="-2" type="line"/>
      <point x="50" y="140" type="line"/>
      <point x="202" y="140" type="line"/>
      <point x="202" y="-2" type="line"/>
      <point x="142" y="-134" type="line"/>
      <point x="84" y="-130" type="line"/>
      <point x="92.7671" y="-2" type="line"/>
    </contour>
    <contour>
      <point x="50" y="398" type="line"/>
      <point x="50" y="540" type="line"/>
      <point x="202" y="540" type="line"/>
      <point x="202" y="398" type="line"/>
    </contour>
  </outline>
</glyph>
<glyph name="equal" format="2">
  <advance width="644"/>
  <unicode hex="003D"/>
  <outline>
    <contour>
      <point x="594" y="296" type="line"/>
      <point x="594" y="144" type="line"/>
      <point x="50" y="144" type="line"/>
      <point x="50" y="296" type="line"/>
    </contour>
    <contour>
      <point x="594" y="546" type="line"/>
      <point x="594" y="394" type="line"/>
      <point x="50" y="394" type="line"/>
      <point x="50" y="546" type="line"/>
    </contour>
  </outline>
</glyph>
<glyph name="C" format="2">
  <advance width="555"/>
  <unicode hex="0043"/>
  <outline>
    <contour>
      <point x="432" y="612" type="curve" smooth="yes"/>
      <point x="305" y="612"/>
      <point x="203" y="507"/>
      <point x="203" y="378" type="curve" smooth="yes"/>
      <point x="203" y="248"/>
      <point x="305" y="143"/>
      <point x="432" y="143" type="curve" smooth="yes"/>
      <point x="457.555" y="143"/>
      <point x="482.097" y="147.251"/>
      <point x="505" y="155.102" type="curve"/>
      <point x="505" y="-6.83008" type="line"/>
      <point x="481.371" y="-11.536"/>
      <point x="456.966" y="-14"/>
      <point x="432" y="-14" type="curve" smooth="yes"/>
      <point x="221" y="-14"/>
      <point x="50" y="162"/>
      <point x="50" y="380" type="curve" smooth="yes"/>
      <point x="50" y="597"/>
      <point x="221" y="773"/>
      <point x="432" y="773" type="curve" smooth="yes"/>
      <point x="456.966" y="773"/>
      <point x="481.371" y="770.536"/>
      <point x="505" y="765.832" type="curve"/>
      <point x="505" y="599.906" type="line"/>
      <point x="482.097" y="607.749"/>
      <point x="457.555" y="612"/>
    </contour>
  </outline>
</glyph>
<glyph name="D" format="2">
  <advance width="630"/>
  <unicode hex="0044"/>
  <outline>
    <contour>
      <point x="50" y="768" type="line"/>
      <point x="99.6211" y="760.911"/>
      <point x="148.383" y="773"/>
      <point x="198" y="773" type="curve" smooth="yes"/>
      <point x="409" y="773"/>
      <point x="580" y="597"/>
      <point x="580" y="380" type="curve" smooth="yes"/>
      <point x="580" y="163.379"/>
      <point x="411.157" y="-11.7713"/>
      <point x="202" y="-13.9789" type="curve"/>
      <point x="202" y="-14" type="line"/>
      <point x="50" y="-14" type="line"/>
    </contour>
    <contour>
      <point x="202" y="143.035" type="line"/>
      <point x="327.135" y="145.212"/>
      <point x="427" y="249.368"/>
      <point x="427" y="378" type="curve" smooth="yes"/>
      <point x="427" y="505.643"/>
      <point x="327.135" y="609.788"/>
      <point x="202" y="611.965" type="curve"/>
    </contour>
  </outline>
</glyph>
<glyph name="E" format="2">
  <advance width="668"/>
  <unicode hex="0045"/>
  <outline>
    <contour>
      <point x="509" y="485" type="line"/>
      <point x="510" y="333" type="line"/>
      <point x="202" y="333" type="line"/>
      <point x="202" y="149" type="line"/>
      <point x="617" y="149" type="line"/>
      <point x="618" y="-3" type="line"/>
      <point x="51" y="-3" type="line"/>
      <point x="50.9934" y="-2" type="line"/>
      <point x="50" y="-2" type="line"/>
      <point x="50" y="774" type="line"/>
      <point x="50.0263" y="774" type="line"/>
      <point x="50" y="778" type="line"/>
      <point x="617" y="778" type="line"/>
      <point x="618" y="626" type="line"/>
      <point x="202" y="626" type="line"/>
      <point x="202" y="485" type="line"/>
    </contour>
  </outline>
</glyph>
<glyph name="J" format="2">
  <advance width="419"/>
  <unicode hex="004A"/>
  <outline>
    <contour>
      <point x="50" y="6" type="curve"/>
      <point x="50" y="174" type="line"/>
      <point x="69" y="158"/>
      <point x="94" y="148"/>
      <point x="121" y="148" type="curve" smooth="yes"/>
      <point x="154" y="148"/>
      <point x="182" y="162"/>
      <point x="202" y="185" type="curve"/>
      <point x="202" y="761" type="line"/>
      <point x="369" y="761" type="line"/>
      <point x="366" y="184" type="line"/>
      <point x="335" y="75"/>
      <point x="239" y="-3"/>
      <point x="121" y="-3" type="curve" smooth="yes"/>
      <point x="96" y="-3"/>
      <point x="73" y="0"/>
    </contour>
  </outline>
</glyph>
<glyph name="K" format="2">
  <advance width="703"/>
  <unicode hex="004B"/>
  <outline>
    <contour>
      <point x="50" y="774" type="line"/>
      <point x="202" y="774" type="line"/>
      <point x="202" y="432.895" type="line"/>
      <point x="447" y="770" type="line"/>
      <point x="633" y="768" type="line"/>
      <point x="372" y="387" type="line"/>
      <point x="703" y="-3" type="line"/>
      <point x="511" y="-2" type="line"/>
      <point x="259.208" y="301.888" type="line"/>
      <point x="202" y="218.505" type="line"/>
      <point x="202" y="-2" type="line"/>
      <point x="50" y="-2" type="line"/>
    </contour>
  </outline>
</glyph>
<glyph name="L" format="2">
  <advance width="718"/>
  <unicode hex="004C"/>
  <outline>
    <contour>
      <point x="50" y="774" type="line"/>
      <point x="202" y="774" type="line"/>
      <point x="202" y="149" type="line"/>
      <point x="667" y="149" type="line"/>
      <point x="668" y="-3" type="line"/>
      <point x="51" y="-3" type="line"/>
      <point x="50.9934" y="-2" type="line"/>
      <point x="50" y="-2" type="line"/>
    </contour>
  </outline>
</glyph>
<glyph name="M" format="2">
  <advance width="1052"/>
  <unicode hex="004D"/>
  <outline>
    <contour>
      <point x="50" y="768" type="line"/>
      <point x="202" y="768" type="line"/>
      <point x="526" y="145.92" type="line"/>
      <point x="850" y="768" type="line"/>
      <point x="1002" y="768" type="line"/>
      <point x="1002" y="-2" type="line"/>
      <point x="850" y="-2" type="line"/>
      <point x="850" y="476.16" type="line"/>
      <point x="602" y="0" type="line"/>
      <point x="450" y="0" type="line"/>
      <point x="202" y="476.16" type="line"/>
      <point x="202" y="-2" type="line"/>
      <point x="50" y="-2" type="line"/>
    </contour>
  </outline>
</glyph>
<glyph name="N" format="2">
  <advance width="852"/>
  <unicode hex="004E"/>
  <outline>
    <contour>
      <point x="50" y="774" type="line"/>
      <point x="202" y="774" type="line"/>
      <point x="650" y="250.522" type="line"/>
      <point x="650" y="774" type="line"/>
      <point x="802" y="774" type="line"/>
      <point x="802" y="-2" type="line"/>
      <point x="650" y="-2" type="line"/>
      <point x="202" y="523.101" type="line"/>
      <point x="202" y="-2" type="line"/>
      <point x="50" y="-2" type="line"/>
    </contour>
  </outline>
</glyph>
<glyph name="O" format="2">
  <advance width="864"/>
  <unicode hex="004F"/>
  <outline>
    <contour>
      <point x="814" y="380" type="curve" smooth="yes"/>
      <point x="814" y="162"/>
      <point x="643" y="-14"/>
      <point x="432" y="-14" type="curve" smooth="yes"/>
      <point x="221" y="-14"/>
      <point x="50" y="162"/>
      <point x="50" y="380" type="curve" smooth="yes"/>
      <point x="50" y="597"/>
      <point x="221" y="773"/>
      <point x="432" y="773" type="curve" smooth="yes"/>
      <point x="643" y="773"/>
      <point x="814" y="597"/>
    </contour>
    <contour>
      <point x="661" y="378" type="curve" smooth="yes"/>
      <point x="661" y="507"/>
      <point x="559" y="612"/>
      <point x="432" y="612" type="curve" smooth="yes"/>
      <point x="305" y="612"/>
      <point x="203" y="507"/>
      <point x="203" y="378" type="curve" smooth="yes"/>
      <point x="203" y="248"/>
      <point x="305" y="143"/>
      <point x="432" y="143" type="curve" smooth="yes"/>
      <point x="559" y="143"/>
      <point x="661" y="248"/>
    </contour>
  </outline>
</glyph>
<glyph name="P" format="2">
  <advance width="534"/>
  <unicode hex="0050"/>
  <outline>
    <contour>
      <point x="202" y="3" type="line"/>
      <point x="50" y="3" type="line"/>
      <point x="50" y="779" type="line"/>
      <point x="202" y="779" type="line"/>
      <point x="210" y="780"/>
      <point x="218" y="780"/>
      <point x="226" y="780" type="curve" smooth="yes"/>
      <point x="369" y="780"/>
      <point x="484" y="665"/>
      <point x="484" y="523" type="curve" smooth="yes"/>
      <point x="484" y="380"/>
      <point x="369" y="265"/>
      <point x="226" y="265" type="curve" smooth="yes"/>
      <point x="218" y="265"/>
      <point x="210" y="265"/>
      <point x="202" y="266" type="curve"/>
    </contour>
    <contour>
      <point x="202" y="626" type="curve"/>
      <point x="202" y="419" type="line"/>
      <point x="210" y="417"/>
      <point x="218" y="416"/>
      <point x="226" y="416" type="curve" smooth="yes"/>
      <point x="286" y="416"/>
      <point x="333" y="463"/>
      <point x="333" y="523" type="curve" smooth="yes"/>
      <point x="333" y="582"/>
      <point x="286" y="629"/>
      <point x="226" y="629" type="curve" smooth="yes"/>
      <point x="218" y="629"/>
      <point x="210" y="628"/>
    </contour>
  </outline>
</glyph>
<glyph name="Q" format="2">
  <advance width="864"/>
  <unicode hex="0051"/>
  <outline>
    <contour>
      <point x="661" y="378" type="curve" smooth="yes"/>
      <point x="661" y="507"/>
      <point x="559" y="612"/>
      <point x="432" y="612" type="curve" smooth="yes"/>
      <point x="305" y="612"/>
      <point x="203" y="507"/>
      <point x="203" y="378" type="curve" smooth="yes"/>
      <point x="203" y="248"/>
      <point x="305" y="143"/>
      <point x="432" y="143" type="curve" smooth="yes"/>
      <point x="559" y="143"/>
      <point x="661" y="248"/>
    </contour>
    <contour>
      <point x="814" y="380" type="curve" smooth="yes"/>
      <point x="814" y="262.353"/>
      <point x="764.198" y="156.938"/>
      <point x="685.184" y="84.8159" type="curve"/>
      <point x="822" y="-52" type="line"/>
      <point x="684" y="-191" type="line"/>
      <point x="500.666" y="-7.66637" type="line"/>
      <point x="478.391" y="-11.8275"/>
      <point x="455.442" y="-14"/>
      <point x="432" y="-14" type="curve" smooth="yes"/>
      <point x="221" y="-14"/>
      <point x="50" y="162"/>
      <point x="50" y="380" type="curve" smooth="yes"/>
      <point x="50" y="597"/>
      <point x="221" y="773"/>
      <point x="432" y="773" type="curve" smooth="yes"/>
      <point x="643" y="773"/>
      <point x="814" y="597"/>
    </contour>
  </outline>
</glyph>
<glyph name="R" format="2">
  <advance width="512"/>
  <unicode hex="0052"/>
  <outline>
    <contour>
      <point x="202" y="626" type="curve"/>
      <point x="202" y="419" type="line"/>
      <point x="210" y="417"/>
      <point x="218" y="416"/>
      <point x="226" y="416" type="curve" smooth="yes"/>
      <point x="286" y="416"/>
      <point x="333" y="463"/>
      <point x="333" y="523" type="curve" smooth="yes"/>
      <point x="333" y="582"/>
      <point x="286" y="629"/>
      <point x="226" y="629" type="curve" smooth="yes"/>
      <point x="218" y="629"/>
      <point x="210" y="628"/>
    </contour>
    <contour>
      <point x="202" y="3" type="line"/>
      <point x="50" y="3" type="line"/>
      <point x="50" y="779" type="line"/>
      <point x="202" y="779" type="line"/>
      <point x="210" y="780"/>
      <point x="218" y="780"/>
      <point x="226" y="780" type="curve" smooth="yes"/>
      <point x="369" y="780"/>
      <point x="484" y="665"/>
      <point x="484" y="523" type="curve" smooth="yes"/>
      <point x="484" y="410.658"/>
      <point x="413.024" y="315.597"/>
      <point x="313.255" y="280" type="curve"/>
      <point x="512" y="-3" type="line"/>
      <point x="372" y="-3" type="line"/>
      <point x="206.913" y="265.503" type="line"/>
      <point x="205.276" y="265.632"/>
      <point x="203.638" y="265.795"/>
      <point x="202" y="266" type="curve"/>
    </contour>
  </outline>
</glyph>
<glyph name="T" format="2">
  <advance width="676"/>
  <unicode hex="0054"/>
  <outline>
    <contour>
      <point x="53" y="614" type="line"/>
      <point x="53" y="766" type="line"/>
      <point x="629" y="766" type="line"/>
      <point x="629" y="614" type="line"/>
      <point x="417" y="614" type="line"/>
      <point x="417" y="-2" type="line"/>
      <point x="265" y="-2" type="line"/>
      <point x="265" y="614" type="line"/>
    </contour>
  </outline>
</glyph>
<glyph name="U" format="2">
  <advance width="669"/>
  <unicode hex="0055"/>
  <outline>
    <contour>
      <point x="616" y="184" type="line"/>
      <point x="547.932" y="-55.4132"/>
      <point x="122.237" y="-59.4453"/>
      <point x="53" y="184" type="curve"/>
      <point x="50" y="761" type="line"/>
      <point x="217" y="761" type="line"/>
      <point x="217" y="185" type="line"/>
      <point x="255.237" y="141.027"/>
      <point x="414.431" y="139.917"/>
      <point x="452" y="185" type="curve"/>
      <point x="452" y="761" type="line"/>
      <point x="619" y="761" type="line"/>
    </contour>
  </outline>
</glyph>
<glyph name="Z" format="2">
  <advance width="783"/>
  <unicode hex="005A"/>
  <outline>
    <contour>
      <point x="50" y="10" type="line"/>
      <point x="50" y="162" type="line"/>
      <point x="480" y="610" type="line"/>
      <point x="50" y="610" type="line"/>
      <point x="50" y="762" type="line"/>
      <point x="733" y="762" type="line"/>
      <point x="733" y="610" type="line"/>
      <point x="301" y="162" type="line"/>
      <point x="733" y="162" type="line"/>
      <point x="733" y="10" type="line"/>
    </contour>
  </outline>
</glyph>
<glyph name="bracketleft" format="2">
  <advance width="362"/>
  <unicode hex="005B"/>
  <outline>
    <contour>
      <point x="51" y="-80" type="line" smooth="yes"/>
      <point x="50" y="-80" type="line"/>
      <point x="50" y="-79" type="line"/>
      <point x="50" y="773" type="line"/>
      <point x="50" y="774" type="line"/>
      <point x="51" y="774" type="line" smooth="yes"/>
      <point x="312" y="774" type="line"/>
      <point x="311" y="689" type="line"/>
      <point x="144" y="689" type="line"/>
      <point x="144" y="5" type="line"/>
      <point x="311" y="5" type="line"/>
      <point x="312" y="-80" type="line"/>
    </contour>
  </outline>
</glyph>
<glyph name="bracketright" format="2">
  <advance width="362"/>
  <unicode hex="005D"/>
  <outline>
    <contour>
      <point x="311" y="-81" type="line" smooth="yes"/>
      <point x="50" y="-81" type="line"/>
      <point x="51" y="4" type="line"/>
      <point x="218" y="4" type="line"/>
      <point x="218" y="689" type="line"/>
      <point x="51" y="689" type="line"/>
      <point x="50" y="774" type="line"/>
      <point x="311" y="774" type="line" smooth="yes"/>
      <point x="312" y="774" type="line"/>
      <point x="312" y="773" type="line"/>
      <point x="312" y="-80" type="line"/>
      <point x="312" y="-81" type="line"/>
    </contour>
  </outline>
</glyph>
<glyph name="grave" format="2">
  <advance width="252"/>
  <unicode hex="0060"/>
  <outline>
    <contour>
      <point x="163" y="516" type="line"/>
      <point x="-19" y="698" type="line"/>
      <point x="89" y="805" type="line"/>
      <point x="271" y="623" type="line"/>
    </contour>
  </outline>
</glyph>
<glyph name="a" format="2">
  <advance width="512"/>
  <unicode hex="0061"/>
  <outline>
    <contour>
      <point x="332" y="1" type="line"/>
      <point x="332" y="9" type="line"/>
      <point x="324" y="8"/>
      <point x="316" y="8"/>
      <point x="308" y="8" type="curve" smooth="yes"/>
      <point x="165" y="8"/>
      <point x="50" y="123"/>
      <point x="50" y="266" type="curve" smooth="yes"/>
      <point x="50" y="408"/>
      <point x="165" y="515"/>
      <point x="308" y="515" type="curve" smooth="yes"/>
      <point x="316" y="515"/>
      <point x="324" y="515"/>
      <point x="332" y="514" type="curve"/>
      <point x="484" y="514" type="line"/>
      <point x="484" y="1" type="line"/>
    </contour>
    <contour>
      <point x="332" y="369" type="line"/>
      <point x="324" y="371"/>
      <point x="316" y="372"/>
      <point x="308" y="372" type="curve" smooth="yes"/>
      <point x="248" y="372"/>
      <point x="201" y="325"/>
      <point x="201" y="266" type="curve" smooth="yes"/>
      <point x="201" y="206"/>
      <point x="248" y="159"/>
      <point x="308" y="159" type="curve" smooth="yes"/>
      <point x="316" y="159"/>
      <point x="324" y="160"/>
      <point x="332" y="162" type="curve"/>
    </contour>
  </outline>
</glyph>
<glyph name="e" format="2">
  <advance width="617"/>
  <unicode hex="0065"/>
  <outline>
    <contour>
      <point x="566" y="260" type="curve" smooth="yes"/>
      <point x="566" y="241.328"/>
      <point x="567" y="223"/>
      <point x="567" y="208" type="curve"/>
      <point x="215.985" y="205.32" type="line"/>
      <point x="234.49" y="174.457"/>
      <point x="268.416" y="154"/>
      <point x="308" y="154" type="curve" smooth="yes"/>
      <point x="322.516" y="154"/>
      <point x="544" y="157"/>
      <point x="557" y="162" type="curve"/>
      <point x="557" y="6" type="line"/>
      <point x="544" y="4"/>
      <point x="321.946" y="3"/>
      <point x="308" y="3" type="curve" smooth="yes"/>
      <point x="165" y="3"/>
      <point x="50" y="118"/>
      <point x="50" y="260" type="curve" smooth="yes"/>
      <point x="50" y="403"/>
      <point x="165" y="518"/>
      <point x="308" y="518" type="curve" smooth="yes"/>
      <point x="450" y="518"/>
      <point x="566" y="403"/>
    </contour>
    <contour>
      <point x="210.681" y="296.676" type="curve"/>
      <point x="406.884" y="294.102" type="line"/>
      <point x="382.396" y="320.967"/>
      <point x="347.047" y="375.1"/>
      <point x="307.805" y="375.1" type="curve" smooth="yes"/>
      <point x="269.188" y="375.1"/>
      <point x="234.88" y="322.025"/>
    </contour>
  </outline>
</glyph>
<glyph name="f" format="2">
  <advance width="512"/>
  <unicode hex="0066"/>
  <outline>
    <contour>
      <point x="464" y="752" type="curve"/>
      <point x="464" y="584" type="line"/>
      <point x="445" y="600"/>
      <point x="420" y="610"/>
      <point x="393" y="610" type="curve" smooth="yes"/>
      <point x="360" y="610"/>
      <point x="332" y="596"/>
      <point x="312" y="573" type="curve"/>
      <point x="312" y="511" type="line"/>
      <point x="409" y="511" type="line"/>
      <point x="409" y="359" type="line"/>
      <point x="312" y="359" type="line"/>
      <point x="312" y="-3" type="line"/>
      <point x="145" y="-3" type="line"/>
      <point x="146.882" y="359" type="line"/>
      <point x="50" y="359" type="line"/>
      <point x="50" y="511" type="line"/>
      <point x="147.672" y="511" type="line"/>
      <point x="148" y="574" type="line"/>
      <point x="179" y="683"/>
      <point x="275" y="761"/>
      <point x="393" y="761" type="curve" smooth="yes"/>
      <point x="418" y="761"/>
      <point x="441" y="758"/>
    </contour>
  </outline>
</glyph>
<glyph name="h" format="2">
  <advance width="597"/>
  <unicode hex="0068"/>
  <outline>
    <contour>
      <point x="50" y="768" type="line"/>
      <point x="219" y="768" type="line"/>
      <point x="219" y="512" type="line"/>
      <point x="245" y="520"/>
      <point x="271" y="524"/>
      <point x="299" y="524" type="curve" smooth="yes"/>
      <point x="417" y="524"/>
      <point x="513" y="446"/>
      <point x="544" y="337" type="curve"/>
      <point x="547" y="6" type="line"/>
      <point x="380" y="6" type="line"/>
      <point x="380" y="336" type="line"/>
      <point x="360" y="359"/>
      <point x="332" y="373"/>
      <point x="299" y="373" type="curve" smooth="yes"/>
      <point x="267" y="373"/>
      <point x="239" y="360"/>
      <point x="219" y="338" type="curve"/>
      <point x="219" y="6" type="line"/>
      <point x="50" y="6" type="line"/>
    </contour>
  </outline>
</glyph>
<glyph name="i" format="2">
  <advance width="252"/>
  <unicode hex="0069"/>
  <outline>
    <contour>
      <point x="50" y="512" type="line"/>
      <point x="202" y="512" type="line"/>
      <point x="202" y="-2" type="line"/>
      <point x="50" y="-2" type="line"/>
    </contour>
    <contour>
      <point x="50" y="772" type="line"/>
      <point x="202" y="772" type="line"/>
      <point x="202" y="630" type="line"/>
      <point x="50" y="630" type="line"/>
    </contour>
  </outline>
</glyph>
<glyph name="j" format="2">
  <advance width="419"/>
  <unicode hex="006A"/>
  <outline>
    <contour>
      <point x="50" y="-195" type="curve"/>
      <point x="50" y="-27" type="line"/>
      <point x="69" y="-43"/>
      <point x="94" y="-53"/>
      <point x="121" y="-53" type="curve" smooth="yes"/>
      <point x="154" y="-53"/>
      <point x="182" y="-39"/>
      <point x="202" y="-16" type="curve"/>
      <point x="202" y="517" type="line"/>
      <point x="369" y="517" type="line"/>
      <point x="366" y="-17" type="line"/>
      <point x="335" y="-126"/>
      <point x="239" y="-204"/>
      <point x="121" y="-204" type="curve" smooth="yes"/>
      <point x="96" y="-204"/>
      <point x="73" y="-201"/>
    </contour>
    <contour>
      <point x="214" y="772" type="line"/>
      <point x="366" y="772" type="line"/>
      <point x="366" y="630" type="line"/>
      <point x="214" y="630" type="line"/>
    </contour>
  </outline>
</glyph>
<glyph name="k" format="2">
  <advance width="753"/>
  <unicode hex="006B"/>
  <outline>
    <contour>
      <point x="61" y="752" type="line"/>
      <point x="202" y="752" type="line"/>
      <point x="202" y="317" type="line"/>
      <point x="447" y="514" type="line"/>
      <point x="640" y="512" type="line"/>
      <point x="379" y="284" type="line"/>
      <point x="649" y="-3" type="line"/>
      <point x="463" y="-2" type="line"/>
      <point x="259" y="226" type="line"/>
      <point x="202" y="154" type="line"/>
      <point x="202" y="-2" type="line"/>
      <point x="61" y="-2" type="line"/>
    </contour>
  </outline>
</glyph>
<glyph name="p" format="2">
  <advance width="512"/>
  <unicode hex="0070"/>
  <outline>
    <contour>
      <point x="202" y="-202" type="line"/>
      <point x="50" y="-202" type="line"/>
      <point x="50" y="509" type="line"/>
      <point x="202" y="509" type="line"/>
      <point x="210" y="510"/>
      <point x="218" y="510"/>
      <point x="226" y="510" type="curve" smooth="yes"/>
      <point x="369" y="510"/>
      <point x="484" y="395"/>
      <point x="484" y="253" type="curve" smooth="yes"/>
      <point x="484" y="110"/>
      <point x="369" y="-5"/>
      <point x="226" y="-5" type="curve" smooth="yes"/>
      <point x="218" y="-5"/>
      <point x="210" y="-5"/>
      <point x="202" y="-4" type="curve"/>
    </contour>
    <contour>
      <point x="202" y="356" type="curve"/>
      <point x="202" y="149" type="line"/>
      <point x="210" y="147"/>
      <point x="218" y="146"/>
      <point x="226" y="146" type="curve" smooth="yes"/>
      <point x="286" y="146"/>
      <point x="333" y="193"/>
      <point x="333" y="253" type="curve" smooth="yes"/>
      <point x="333" y="312"/>
      <point x="286" y="359"/>
      <point x="226" y="359" type="curve" smooth="yes"/>
      <point x="218" y="359"/>
      <point x="210" y="358"/>
    </contour>
  </outline>
</glyph>
<glyph name="r" format="2">
  <advance width="587"/>
  <unicode hex="0072"/>
  <outline>
    <contour>
      <point x="50" y="555" type="line"/>
      <point x="219" y="555" type="line"/>
      <point x="219" y="512" type="line"/>
      <point x="245" y="520"/>
      <point x="271" y="524"/>
      <point x="299" y="524" type="curve" smooth="yes"/>
      <point x="409.273" y="524"/>
      <point x="465" y="491"/>
      <point x="502" y="393" type="curve"/>
      <point x="372" y="345" type="line"/>
      <point x="372" y="344.316" type="line"/>
      <point x="352.808" y="362.33"/>
      <point x="327.809" y="373"/>
      <point x="299" y="373" type="curve" smooth="yes"/>
      <point x="267" y="373"/>
      <point x="239" y="360"/>
      <point x="219" y="338" type="curve"/>
      <point x="219" y="6" type="line"/>
      <point x="50" y="6" type="line"/>
    </contour>
  </outline>
</glyph>
<glyph name="u" format="2">
  <advance width="598"/>
  <unicode hex="0075"/>
  <outline>
    <contour>
      <point x="548" y="2" type="line"/>
      <point x="379" y="2" type="line"/>
      <point x="379" y="12" type="line"/>
      <point x="353" y="4"/>
      <point x="327" y="0"/>
      <point x="299" y="0" type="curve" smooth="yes"/>
      <point x="181" y="0"/>
      <point x="85" y="78"/>
      <point x="54" y="187" type="curve"/>
      <point x="51" y="518" type="line"/>
      <point x="218" y="518" type="line"/>
      <point x="218" y="188" type="line"/>
      <point x="238" y="165"/>
      <point x="266" y="151"/>
      <point x="299" y="151" type="curve" smooth="yes"/>
      <point x="331" y="151"/>
      <point x="359" y="164"/>
      <point x="379" y="186" type="curve"/>
      <point x="379" y="518" type="line"/>
      <point x="548" y="518" type="line"/>
    </contour>
  </outline>
</glyph>
<glyph name="braceleft" format="2">
  <advance width="419"/>
  <unicode hex="007B"/>
  <outline>
    <contour>
      <point x="451" y="-85" type="line"/>
      <point x="440" y="-90"/>
      <point x="427" y="-92"/>
      <point x="414" y="-92" type="curve" smooth="yes"/>
      <point x="354" y="-92"/>
      <point x="305" y="-29"/>
      <point x="289" y="58" type="curve"/>
      <point x="288" y="228" type="line"/>
      <point x="179" y="358" type="line"/>
      <point x="288" y="485" type="line"/>
      <point x="289" y="655" type="line"/>
      <point x="305" y="742"/>
      <point x="354" y="805"/>
      <point x="414" y="805" type="curve" smooth="yes"/>
      <point x="427" y="805"/>
      <point x="440" y="803"/>
      <point x="451" y="798" type="curve"/>
      <point x="451" y="663" type="line"/>
      <point x="441" y="676"/>
      <point x="428" y="684"/>
      <point x="414" y="684" type="curve" smooth="yes"/>
      <point x="397" y="684"/>
      <point x="383" y="672"/>
      <point x="373" y="654" type="curve"/>
      <point x="374" y="470" type="line"/>
      <point x="292" y="369" type="line"/>
      <point x="373" y="228" type="line"/>
      <point x="373" y="58" type="line"/>
      <point x="383" y="40"/>
      <point x="397" y="29"/>
      <point x="414" y="29" type="curve" smooth="yes"/>
      <point x="428" y="29"/>
      <point x="441" y="37"/>
      <point x="451" y="50" type="curve"/>
    </contour>
  </outline>
</glyph>
<glyph name="bar" format="2">
  <advance width="252"/>
  <unicode hex="007C"/>
  <outline>
    <contour>
      <point x="65" y="871" type="line"/>
      <point x="187" y="871" type="line"/>
      <point x="187" y="-99" type="line"/>
      <point x="65" y="-99" type="line"/>
    </contour>
  </outline>
</glyph>
<glyph name="braceright" format="2">
  <advance width="419"/>
  <unicode hex="007D"/>
  <outline>
    <contour>
      <point x="179" y="-85" type="curve"/>
      <point x="179" y="50" type="line"/>
      <point x="189" y="37"/>
      <point x="202" y="29"/>
      <point x="216" y="29" type="curve" smooth="yes"/>
      <point x="233" y="29"/>
      <point x="247" y="40"/>
      <point x="257" y="58" type="curve"/>
      <point x="257" y="228" type="line"/>
      <point x="338" y="369" type="line"/>
      <point x="256" y="470" type="line"/>
      <point x="257" y="654" type="line"/>
      <point x="247" y="672"/>
      <point x="233" y="684"/>
      <point x="216" y="684" type="curve" smooth="yes"/>
      <point x="202" y="684"/>
      <point x="189" y="676"/>
      <point x="179" y="663" type="curve"/>
      <point x="179" y="798" type="line"/>
      <point x="190" y="803"/>
      <point x="203" y="805"/>
      <point x="216" y="805" type="curve" smooth="yes"/>
      <point x="276" y="805"/>
      <point x="325" y="742"/>
      <point x="341" y="655" type="curve"/>
      <point x="342" y="485" type="line"/>
      <point x="451" y="358" type="line"/>
      <point x="342" y="228" type="line"/>
      <point x="341" y="58" type="line"/>
      <point x="325" y="-29"/>
      <point x="276" y="-92"/>
      <point x="216" y="-92" type="curve" smooth="yes"/>
      <point x="203" y="-92"/>
      <point x="190" y="-90"/>
    </contour>
  </outline>
</glyph>
<glyph name="asciitilde" format="2">
  <advance width="644"/>
  <unicode hex="007E"/>
  <outline>
    <contour>
      <point x="549" y="577" type="curve"/>
      <point x="549" y="425" type="line"/>
      <point x="548.597" y="423.501"/>
      <point x="492.831" y="344"/>
      <point x="421" y="344" type="curve" smooth="yes"/>
      <point x="373" y="344"/>
      <point x="369" y="344"/>
      <point x="321" y="344" type="curve" smooth="yes"/>
      <point x="257" y="344"/>
      <point x="232" y="400"/>
      <point x="168" y="400" type="curve" smooth="yes"/>
      <point x="117" y="400"/>
      <point x="50" y="344"/>
      <point x="50" y="344" type="curve"/>
      <point x="50" y="496" type="line"/>
      <point x="50" y="496"/>
      <point x="114" y="552"/>
      <point x="164" y="552" type="curve" smooth="yes"/>
      <point x="230" y="552"/>
      <point x="258" y="497"/>
      <point x="324" y="497" type="curve" smooth="yes"/>
      <point x="368" y="497"/>
      <point x="369" y="497"/>
      <point x="413" y="496.581" type="curve" smooth="yes"/>
      <point x="482" y="497"/>
      <point x="549" y="577"/>
    </contour>
  </outline>
</glyph>
<glyph name="cent" format="2">
  <advance width="384"/>
  <unicode hex="00A2"/>
  <outline>
    <contour>
      <point x="238" y="700" type="line"/>
      <point x="285" y="700" type="line"/>
      <point x="285" y="-99" type="line"/>
      <point x="238" y="-99" type="line"/>
    </contour>
    <contour>
      <point x="334" y="4.2961" type="line"/>
      <point x="325.447" y="3.43895"/>
      <point x="316.773" y="3"/>
      <point x="308" y="3" type="curve" smooth="yes"/>
      <point x="165" y="3"/>
      <point x="50" y="118"/>
      <point x="50" y="260" type="curve" smooth="yes"/>
      <point x="50" y="403"/>
      <point x="165" y="518"/>
      <point x="308" y="518" type="curve" smooth="yes"/>
      <point x="316.773" y="518"/>
      <point x="325.447" y="517.561"/>
      <point x="334" y="516.704" type="curve"/>
      <point x="334" y="363.865" type="line"/>
      <point x="325.674" y="365.915"/>
      <point x="316.964" y="367"/>
      <point x="308" y="367" type="curve" smooth="yes"/>
      <point x="248" y="367"/>
      <point x="201" y="320"/>
      <point x="201" y="260" type="curve" smooth="yes"/>
      <point x="201" y="201"/>
      <point x="248" y="154"/>
      <point x="308" y="154" type="curve" smooth="yes"/>
      <point x="316.964" y="154"/>
      <point x="325.674" y="155.085"/>
      <point x="334" y="157.132" type="curve"/>
    </contour>
  </outline>
</glyph>
<glyph name="sterling" format="2">
  <advance width="772"/>
  <unicode hex="00A3"/>
  <outline>
    <contour>
      <point x="757.5" y="318.5" type="line"/>
      <point x="763.5" y="295.833"/>
      <point x="766.5" y="272.167"/>
      <point x="766.5" y="247.5" type="curve" smooth="yes"/>
      <point x="766.5" y="189.5"/>
      <point x="749.167" y="138.167"/>
      <point x="714.5" y="93.5" type="curve" smooth="yes"/>
      <point x="679.833" y="48.833"/>
      <point x="634.833" y="18.5"/>
      <point x="579.5" y="2.5" type="curve"/>
      <point x="2.5" y="-0.5" type="line"/>
      <point x="2.5" y="166.5" type="line"/>
      <point x="578.5" y="166.5" type="line"/>
      <point x="603.167" y="187.833"/>
      <point x="615.5" y="214.833"/>
      <point x="615.5" y="247.5" type="curve" smooth="yes"/>
      <point x="615.5" y="274.167"/>
      <point x="606.833" y="297.833"/>
      <point x="589.5" y="318.5" type="curve"/>
    </contour>
    <contour>
      <point x="464" y="752" type="curve"/>
      <point x="464" y="584" type="line"/>
      <point x="445" y="600"/>
      <point x="420" y="610"/>
      <point x="393" y="610" type="curve" smooth="yes"/>
      <point x="360" y="610"/>
      <point x="332" y="596"/>
      <point x="312" y="573" type="curve"/>
      <point x="312" y="511" type="line"/>
      <point x="409" y="511" type="line"/>
      <point x="409" y="359" type="line"/>
      <point x="312" y="359" type="line"/>
      <point x="312" y="-3" type="line"/>
      <point x="145" y="-3" type="line"/>
      <point x="146.882" y="359" type="line"/>
      <point x="50" y="359" type="line"/>
      <point x="50" y="511" type="line"/>
      <point x="147.672" y="511" type="line"/>
      <point x="148" y="574" type="line"/>
      <point x="179" y="683"/>
      <point x="275" y="761"/>
      <point x="393" y="761" type="curve" smooth="yes"/>
      <point x="418" y="761"/>
      <point x="441" y="758"/>
    </contour>
  </outline>
</glyph>
<glyph name="yen" format="2">
  <advance width="612"/>
  <unicode hex="00A5"/>
  <outline>
    <contour>
      <point x="580" y="396" type="line"/>
      <point x="580" y="334" type="line"/>
      <point x="36" y="334" type="line"/>
      <point x="36" y="396" type="line"/>
    </contour>
    <contour>
      <point x="580" y="258" type="line"/>
      <point x="580" y="196" type="line"/>
      <point x="36" y="196" type="line"/>
      <point x="36" y="258" type="line"/>
    </contour>
    <contour>
      <point x="229" y="451" type="line"/>
      <point x="229.365" y="451" type="line"/>
      <point x="30" y="765" type="line"/>
      <point x="182" y="765" type="line"/>
      <point x="306" y="594" type="line"/>
      <point x="430" y="765" type="line"/>
      <point x="582" y="765" type="line"/>
      <point x="382" y="450" type="line"/>
      <point x="381" y="450" type="line"/>
      <point x="381" y="1" type="line"/>
      <point x="229" y="1" type="line"/>
    </contour>
  </outline>
</glyph>
<glyph name="section" format="2">
  <advance width="512"/>
  <unicode hex="00A7"/>
  <outline>
    <contour>
      <point x="-25" y="108" type="curve"/>
      <point x="50" y="233" type="line"/>
      <point x="56" y="228"/>
      <point x="62" y="223"/>
      <point x="72" y="218" type="curve" smooth="yes"/>
      <point x="123" y="188"/>
      <point x="187" y="205"/>
      <point x="217" y="253" type="curve" smooth="yes"/>
      <point x="249" y="309"/>
      <point x="199" y="357"/>
      <point x="147" y="366" type="curve"/>
      <point x="21" y="434"/>
      <point x="-63" y="549"/>
      <point x="21" y="690" type="curve" smooth="yes"/>
      <point x="91" y="806"/>
      <point x="248" y="845"/>
      <point x="373" y="778" type="curve" smooth="yes"/>
      <point x="379" y="772"/>
      <point x="387" y="769"/>
      <point x="394" y="763" type="curve"/>
      <point x="319" y="638" type="line"/>
      <point x="313" y="643"/>
      <point x="307" y="648"/>
      <point x="297" y="653" type="curve" smooth="yes"/>
      <point x="246" y="681"/>
      <point x="182" y="665"/>
      <point x="152" y="616" type="curve" smooth="yes"/>
      <point x="119" y="561"/>
      <point x="152" y="480"/>
      <point x="216" y="469" type="curve"/>
      <point x="333" y="406"/>
      <point x="432" y="321"/>
      <point x="347" y="181" type="curve" smooth="yes"/>
      <point x="278" y="64"/>
      <point x="121" y="25"/>
      <point x="-4" y="93" type="curve" smooth="yes"/>
      <point x="-10" y="99"/>
      <point x="-18" y="102"/>
    </contour>
    <contour>
      <point x="55" y="457" type="curve"/>
      <point x="130" y="582" type="line"/>
      <point x="136" y="577"/>
      <point x="142" y="572"/>
      <point x="152" y="567" type="curve" smooth="yes"/>
      <point x="203" y="537"/>
      <point x="267" y="554"/>
      <point x="297" y="602" type="curve" smooth="yes"/>
      <point x="329" y="658"/>
      <point x="279" y="706"/>
      <point x="227" y="715" type="curve"/>
      <point x="101" y="783"/>
      <point x="17" y="898"/>
      <point x="101" y="1039" type="curve" smooth="yes"/>
      <point x="171" y="1155"/>
      <point x="328" y="1194"/>
      <point x="453" y="1127" type="curve" smooth="yes"/>
      <point x="459" y="1121"/>
      <point x="467" y="1118"/>
      <point x="474" y="1112" type="curve"/>
      <point x="399" y="987" type="line"/>
      <point x="393" y="992"/>
      <point x="387" y="997"/>
      <point x="377" y="1002" type="curve" smooth="yes"/>
      <point x="326" y="1030"/>
      <point x="262" y="1014"/>
      <point x="232" y="965" type="curve" smooth="yes"/>
      <point x="199" y="910"/>
      <point x="232" y="829"/>
      <point x="296" y="818" type="curve"/>
      <point x="413" y="755"/>
      <point x="512" y="670"/>
      <point x="427" y="530" type="curve" smooth="yes"/>
      <point x="358" y="413"/>
      <point x="201" y="374"/>
      <point x="76" y="442" type="curve" smooth="yes"/>
      <point x="70" y="448"/>
      <point x="62" y="451"/>
    </contour>
  </outline>
</glyph>
<glyph name="dieresis" format="2">
  <advance width="452"/>
  <unicode hex="00A8"/>
  <outline>
    <contour>
      <point x="250" y="-2" type="line"/>
      <point x="250" y="140" type="line"/>
      <point x="402" y="140" type="line"/>
      <point x="402" y="-2" type="line"/>
    </contour>
    <contour>
      <point x="50" y="-2" type="line"/>
      <point x="50" y="140" type="line"/>
      <point x="202" y="140" type="line"/>
      <point x="202" y="-2" type="line"/>
    </contour>
  </outline>
</glyph>
<glyph name="copyright" format="2">
  <advance width="864"/>
  <unicode hex="00A9"/>
  <outline>
    <contour>
      <point x="493.25" y="195.623" type="line"/>
      <point x="487.904" y="195.087"/>
      <point x="482.483" y="194.812"/>
      <point x="477" y="194.812" type="curve" smooth="yes"/>
      <point x="387.625" y="194.812"/>
      <point x="315.75" y="266.688"/>
      <point x="315.75" y="355.438" type="curve" smooth="yes"/>
      <point x="315.75" y="444.812"/>
      <point x="387.625" y="516.688"/>
      <point x="477" y="516.688" type="curve" smooth="yes"/>
      <point x="482.483" y="516.688"/>
      <point x="487.904" y="516.413"/>
      <point x="493.25" y="515.877" type="curve"/>
      <point x="493.25" y="420.354" type="line"/>
      <point x="488.046" y="421.635"/>
      <point x="482.602" y="422.312"/>
      <point x="477" y="422.312" type="curve" smooth="yes"/>
      <point x="439.5" y="422.312"/>
      <point x="410.125" y="392.938"/>
      <point x="410.125" y="355.438" type="curve" smooth="yes"/>
      <point x="410.125" y="318.562"/>
      <point x="439.5" y="289.188"/>
      <point x="477" y="289.188" type="curve" smooth="yes"/>
      <point x="482.602" y="289.188"/>
      <point x="488.046" y="289.865"/>
      <point x="493.25" y="291.146" type="curve"/>
    </contour>
    <contour>
      <point x="780.097" y="379.957" type="curve" smooth="yes"/>
      <point x="780.097" y="181.303"/>
      <point x="624.274" y="20.9238"/>
      <point x="432" y="20.9238" type="curve" smooth="yes"/>
      <point x="239.726" y="20.9238"/>
      <point x="83.9033" y="181.303"/>
      <point x="83.9033" y="379.957" type="curve" smooth="yes"/>
      <point x="83.9033" y="577.697"/>
      <point x="239.726" y="738.076"/>
      <point x="432" y="738.076" type="curve" smooth="yes"/>
      <point x="624.274" y="738.076"/>
      <point x="780.097" y="577.697"/>
    </contour>
    <contour>
      <point x="725.451" y="378.318" type="curve" smooth="yes"/>
      <point x="725.451" y="543.625"/>
      <point x="594.744" y="678.177"/>
      <point x="432" y="678.177" type="curve" smooth="yes"/>
      <point x="269.256" y="678.177"/>
      <point x="138.549" y="543.625"/>
      <point x="138.549" y="378.318" type="curve" smooth="yes"/>
      <point x="138.549" y="211.73"/>
      <point x="269.256" y="77.1777"/>
      <point x="432" y="77.1777" type="curve" smooth="yes"/>
      <point x="594.744" y="77.1777"/>
      <point x="725.451" y="211.73"/>
    </contour>
  </outline>
</glyph>
<glyph name="registered" format="2">
  <advance width="864"/>
  <unicode hex="00AE"/>
  <outline>
    <contour>
      <point x="395.186" y="472.63" type="curve"/>
      <point x="395.186" y="397.179" type="line"/>
      <point x="398.102" y="396.449"/>
      <point x="401.018" y="396.084"/>
      <point x="403.933" y="396.084" type="curve" smooth="yes"/>
      <point x="425.803" y="396.084"/>
      <point x="442.936" y="413.217"/>
      <point x="442.936" y="435.086" type="curve" smooth="yes"/>
      <point x="442.936" y="456.592"/>
      <point x="425.803" y="473.723"/>
      <point x="403.933" y="473.723" type="curve" smooth="yes"/>
      <point x="401.018" y="473.723"/>
      <point x="398.102" y="473.358"/>
    </contour>
    <contour>
      <point x="395.186" y="245.546" type="line"/>
      <point x="339.781" y="245.546" type="line"/>
      <point x="339.781" y="528.398" type="line"/>
      <point x="395.186" y="528.398" type="line"/>
      <point x="398.102" y="528.763"/>
      <point x="401.018" y="528.763"/>
      <point x="403.933" y="528.763" type="curve" smooth="yes"/>
      <point x="456.058" y="528.763"/>
      <point x="497.975" y="486.846"/>
      <point x="497.975" y="435.086" type="curve" smooth="yes"/>
      <point x="497.975" y="394.138"/>
      <point x="472.104" y="359.488"/>
      <point x="435.738" y="346.513" type="curve"/>
      <point x="508.18" y="243.359" type="line"/>
      <point x="457.15" y="243.359" type="line"/>
      <point x="396.978" y="341.229" type="line"/>
      <point x="396.379" y="341.275"/>
      <point x="395.783" y="341.335"/>
      <point x="395.186" y="341.409" type="curve"/>
    </contour>
    <contour>
      <point x="710.478" y="379.865" type="curve" smooth="yes"/>
      <point x="710.478" y="220.942"/>
      <point x="585.819" y="92.6387"/>
      <point x="432" y="92.6387" type="curve" smooth="yes"/>
      <point x="278.181" y="92.6387"/>
      <point x="153.522" y="220.942"/>
      <point x="153.522" y="379.865" type="curve" smooth="yes"/>
      <point x="153.522" y="538.058"/>
      <point x="278.181" y="666.361"/>
      <point x="432" y="666.361" type="curve" smooth="yes"/>
      <point x="585.819" y="666.361"/>
      <point x="710.478" y="538.058"/>
    </contour>
    <contour>
      <point x="666.761" y="378.555" type="curve" smooth="yes"/>
      <point x="666.761" y="510.8"/>
      <point x="562.195" y="618.441"/>
      <point x="432" y="618.441" type="curve" smooth="yes"/>
      <point x="301.805" y="618.441"/>
      <point x="197.239" y="510.8"/>
      <point x="197.239" y="378.555" type="curve" smooth="yes"/>
      <point x="197.239" y="245.284"/>
      <point x="301.805" y="137.643"/>
      <point x="432" y="137.643" type="curve" smooth="yes"/>
      <point x="562.195" y="137.643"/>
      <point x="666.761" y="245.284"/>
    </contour>
  </outline>
</glyph>
<glyph name="plusminus" format="2">
  <advance width="644"/>
  <unicode hex="00B1"/>
  <outline>
    <contour>
      <point x="594" y="122" type="line"/>
      <point x="594" y="-30" type="line"/>
      <point x="50" y="-30" type="line"/>
      <point x="50" y="122" type="line"/>
    </contour>
    <contour>
      <point x="594" y="496" type="line"/>
      <point x="594" y="344" type="line"/>
      <point x="50" y="344" type="line"/>
      <point x="50" y="496" type="line"/>
    </contour>
    <contour>
      <point x="246" y="692" type="line"/>
      <point x="398" y="692" type="line"/>
      <point x="398" y="149" type="line"/>
      <point x="246" y="149" type="line"/>
    </contour>
  </outline>
</glyph>
<glyph name="mu" format="2">
  <advance width="598"/>
  <unicode hex="00B5"/>
  <outline>
    <contour>
      <point x="51" y="-189" type="line"/>
      <point x="51" y="524" type="line"/>
      <point x="220" y="524" type="line"/>
      <point x="220" y="192" type="line"/>
      <point x="240" y="170"/>
      <point x="268" y="157"/>
      <point x="300" y="157" type="curve" smooth="yes"/>
      <point x="333" y="157"/>
      <point x="361" y="171"/>
      <point x="381" y="194" type="curve"/>
      <point x="381" y="524" type="line"/>
      <point x="548" y="524" type="line"/>
      <point x="545" y="193" type="line"/>
      <point x="514" y="84"/>
      <point x="418" y="6"/>
      <point x="300" y="6" type="curve" smooth="yes"/>
      <point x="272" y="6"/>
      <point x="246" y="10"/>
      <point x="220" y="18" type="curve"/>
      <point x="220" y="-189" type="line"/>
    </contour>
  </outline>
</glyph>
<glyph name="paragraph" format="2">
  <advance width="776"/>
  <unicode hex="00B6"/>
  <outline>
    <contour>
      <point x="550" y="774" type="line"/>
      <point x="702" y="774" type="line"/>
      <point x="702" y="-2" type="line"/>
      <point x="550" y="-2" type="line"/>
    </contour>
    <contour>
      <point x="332" y="3" type="line"/>
      <point x="332" y="266" type="line"/>
      <point x="324" y="265"/>
      <point x="316" y="265"/>
      <point x="308" y="265" type="curve" smooth="yes"/>
      <point x="165" y="265"/>
      <point x="50" y="380"/>
      <point x="50" y="523" type="curve" smooth="yes"/>
      <point x="50" y="665"/>
      <point x="165" y="780"/>
      <point x="308" y="780" type="curve" smooth="yes"/>
      <point x="316" y="780"/>
      <point x="324" y="780"/>
      <point x="332" y="779" type="curve"/>
      <point x="484" y="779" type="line"/>
      <point x="484" y="3" type="line"/>
    </contour>
  </outline>
</glyph>
<glyph name="periodcentered" format="2">
  <advance width="252"/>
  <unicode hex="00B7"/>
  <outline>
    <contour>
      <point x="50" y="398" type="line"/>
      <point x="50" y="540" type="line"/>
      <point x="202" y="540" type="line"/>
      <point x="202" y="398" type="line"/>
    </contour>
  </outline>
</glyph>
<glyph name="questiondown" format="2">
  <advance width="384"/>
  <unicode hex="00BF"/>
  <outline>
    <contour>
      <point x="334" y="829" type="line"/>
      <point x="334" y="687" type="line"/>
      <point x="182" y="687" type="line"/>
      <point x="182" y="829" type="line"/>
    </contour>
    <contour>
      <point x="334" y="-1" type="line"/>
      <point x="325" y="-2"/>
      <point x="317" y="-2"/>
      <point x="308" y="-2" type="curve" smooth="yes"/>
      <point x="165" y="-2"/>
      <point x="50" y="113"/>
      <point x="50" y="255" type="curve" smooth="yes"/>
      <point x="50" y="352.169"/>
      <point x="103.099" y="436.41"/>
      <point x="182" y="480.427" type="curve"/>
      <point x="182" y="597" type="line"/>
      <point x="334" y="597" type="line"/>
      <point x="334" y="512" type="line"/>
      <point x="334" y="387" type="line"/>
      <point x="334" y="359" type="line"/>
      <point x="326" y="361"/>
      <point x="317" y="362"/>
      <point x="308" y="362" type="curve" smooth="yes"/>
      <point x="248" y="362"/>
      <point x="201" y="315"/>
      <point x="201" y="255" type="curve" smooth="yes"/>
      <point x="201" y="196"/>
      <point x="248" y="149"/>
      <point x="308" y="149" type="curve" smooth="yes"/>
      <point x="317" y="149"/>
      <point x="326" y="150"/>
      <point x="334" y="152" type="curve"/>
    </contour>
  </outline>
</glyph>
<glyph name="AE" format="2">
  <advance width="1024"/>
  <unicode hex="00C6"/>
  <outline>
    <contour>
      <point x="412.827" y="367" type="line"/>
      <point x="400.2" y="658.224" type="line"/>
      <point x="314.448" y="367" type="line"/>
    </contour>
    <contour>
      <point x="865" y="485" type="line"/>
      <point x="866" y="333" type="line"/>
      <point x="558" y="333" type="line"/>
      <point x="558" y="149" type="line"/>
      <point x="973" y="149" type="line"/>
      <point x="974" y="-3" type="line"/>
      <point x="407" y="-3" type="line"/>
      <point x="406.993" y="-2" type="line"/>
      <point x="406" y="-2" type="line"/>
      <point x="406" y="227" type="line"/>
      <point x="278.038" y="227" type="line"/>
      <point x="202" y="0" type="line"/>
      <point x="50" y="0" type="line"/>
      <point x="250" y="778" type="line"/>
      <point x="973" y="778" type="line"/>
      <point x="974" y="626" type="line"/>
      <point x="558" y="626" type="line"/>
      <point x="558" y="485" type="line"/>
    </contour>
  </outline>
</glyph>
<glyph name="Eth" format="2">
  <advance width="690"/>
  <unicode hex="00D0"/>
  <outline>
    <contour>
      <point x="262" y="143.035" type="line"/>
      <point x="387.135" y="145.212"/>
      <point x="487" y="249.368"/>
      <point x="487" y="378" type="curve" smooth="yes"/>
      <point x="487" y="505.643"/>
      <point x="387.135" y="609.788"/>
      <point x="262" y="611.965" type="curve"/>
      <point x="262" y="496" type="line"/>
      <point x="321" y="496" type="line"/>
      <point x="321" y="344" type="line"/>
      <point x="262" y="344" type="line"/>
    </contour>
    <contour>
      <point x="110" y="768" type="line"/>
      <point x="159.621" y="760.911"/>
      <point x="208.383" y="773"/>
      <point x="258" y="773" type="curve" smooth="yes"/>
      <point x="469" y="773"/>
      <point x="640" y="597"/>
      <point x="640" y="380" type="curve" smooth="yes"/>
      <point x="640" y="163.379"/>
      <point x="471.157" y="-11.7715"/>
      <point x="262" y="-13.9785" type="curve" smooth="yes"/>
      <point x="110" y="-14" type="line"/>
      <point x="110" y="344" type="line"/>
      <point x="50" y="344" type="line"/>
      <point x="50" y="496" type="line"/>
      <point x="110" y="496" type="line"/>
    </contour>
  </outline>
</glyph>
<glyph name="multiply" format="2">
  <advance width="724"/>
  <unicode hex="00D7"/>
  <outline>
    <contour>
      <point x="50" y="713" type="line"/>
      <point x="236" y="711" type="line"/>
      <point x="365.491" y="559.927" type="line"/>
      <point x="498" y="712" type="line"/>
      <point x="673" y="711" type="line"/>
      <point x="452.585" y="458.317" type="line"/>
      <point x="674" y="200" type="line"/>
      <point x="499" y="198" type="line"/>
      <point x="362.291" y="354.805" type="line"/>
      <point x="229" y="202" type="line"/>
      <point x="51" y="199" type="line"/>
      <point x="274.5" y="455.5" type="line"/>
    </contour>
  </outline>
</glyph>
<glyph name="Oslash" format="2">
  <advance width="864"/>
  <unicode hex="00D8"/>
  <outline>
    <contour>
      <point x="814" y="380" type="curve" smooth="yes"/>
      <point x="814" y="162"/>
      <point x="643" y="-14"/>
      <point x="432" y="-14" type="curve" smooth="yes"/>
      <point x="383.677" y="-14"/>
      <point x="337.453" y="-4.76898"/>
      <point x="294.899" y="12.0835" type="curve"/>
      <point x="240" y="-83" type="line"/>
      <point x="134" y="-22" type="line"/>
      <point x="190.002" y="74.9931" type="line"/>
      <point x="104.531" y="147.181"/>
      <point x="50" y="256.894"/>
      <point x="50" y="380" type="curve" smooth="yes"/>
      <point x="50" y="597"/>
      <point x="221" y="773"/>
      <point x="432" y="773" type="curve" smooth="yes"/>
      <point x="483.052" y="773"/>
      <point x="531.762" y="762.697"/>
      <point x="576.275" y="744.003" type="curve"/>
      <point x="619" y="818" type="line"/>
      <point x="725" y="757" type="line"/>
      <point x="679.946" y="678.969" type="line"/>
      <point x="761.991" y="606.879"/>
      <point x="814" y="499.674"/>
    </contour>
    <contour>
      <point x="494.918" y="603.094" type="line"/>
      <point x="474.946" y="608.894"/>
      <point x="453.843" y="612"/>
      <point x="432" y="612" type="curve" smooth="yes"/>
      <point x="305" y="612"/>
      <point x="203" y="507"/>
      <point x="203" y="378" type="curve" smooth="yes"/>
      <point x="203" y="313.3"/>
      <point x="228.265" y="254.792"/>
      <point x="269.303" y="212.339" type="curve"/>
    </contour>
    <contour>
      <point x="598.806" y="538.438" type="curve"/>
      <point x="374.731" y="150.349" type="line"/>
      <point x="393.019" y="145.551"/>
      <point x="412.206" y="143"/>
      <point x="432" y="143" type="curve" smooth="yes"/>
      <point x="559" y="143"/>
      <point x="661" y="248"/>
      <point x="661" y="378" type="curve" smooth="yes"/>
      <point x="661" y="440.031"/>
      <point x="637.415" y="496.512"/>
    </contour>
  </outline>
</glyph>
<glyph name="Thorn" format="2">
  <advance width="512"/>
  <unicode hex="00DE"/>
  <outline>
    <contour>
      <point x="202" y="3" type="line"/>
      <point x="50" y="3" type="line"/>
      <point x="50" y="903" type="line"/>
      <point x="197" y="903" type="line"/>
      <point x="202" y="714" type="line"/>
      <point x="210" y="715"/>
      <point x="218" y="715"/>
      <point x="226" y="715" type="curve" smooth="yes"/>
      <point x="369" y="715"/>
      <point x="484" y="600"/>
      <point x="484" y="458" type="curve" smooth="yes"/>
      <point x="484" y="315"/>
      <point x="369" y="200"/>
      <point x="226" y="200" type="curve" smooth="yes"/>
      <point x="218" y="200"/>
      <point x="210" y="200"/>
      <point x="202" y="201" type="curve"/>
    </contour>
    <contour>
      <point x="202" y="561" type="curve"/>
      <point x="202" y="354" type="line"/>
      <point x="210" y="352"/>
      <point x="218" y="351"/>
      <point x="226" y="351" type="curve" smooth="yes"/>
      <point x="286" y="351"/>
      <point x="333" y="398"/>
      <point x="333" y="458" type="curve" smooth="yes"/>
      <point x="333" y="517"/>
      <point x="286" y="564"/>
      <point x="226" y="564" type="curve" smooth="yes"/>
      <point x="218" y="564"/>
      <point x="210" y="563"/>
    </contour>
  </outline>
</glyph>
<glyph name="germandbls" format="2">
  <advance width="671"/>
  <unicode hex="00DF"/>
  <outline>
    <contour>
      <point x="297" y="47" type="curve"/>
      <point x="331.615" y="159" type="line"/>
      <point x="337.615" y="153"/>
      <point x="344.615" y="150"/>
      <point x="353.615" y="147" type="curve" smooth="yes"/>
      <point x="406.615" y="123"/>
      <point x="450.615" y="131"/>
      <point x="476.615" y="162" type="curve" smooth="yes"/>
      <point x="505.615" y="196"/>
      <point x="454.615" y="202"/>
      <point x="400.615" y="211" type="curve"/>
      <point x="272.615" y="262"/>
      <point x="201.615" y="289"/>
      <point x="276.615" y="378" type="curve" smooth="yes"/>
      <point x="337.996" y="452.047"/>
      <point x="396.775" y="493.022"/>
      <point x="396.775" y="493.022" type="curve" smooth="yes"/>
      <point x="397.505" y="493.147"/>
      <point x="398.257" y="493"/>
      <point x="399" y="493" type="curve" smooth="yes"/>
      <point x="459" y="493"/>
      <point x="506" y="540"/>
      <point x="506" y="600" type="curve" smooth="yes"/>
      <point x="506" y="664.256"/>
      <point x="274" y="676"/>
      <point x="231" y="627" type="curve"/>
      <point x="231" y="2" type="line"/>
      <point x="64" y="2" type="line"/>
      <point x="67" y="628" type="line"/>
      <point x="83" y="683"/>
      <point x="113" y="728"/>
      <point x="158" y="763" type="curve" smooth="yes"/>
      <point x="297" y="871"/>
      <point x="657" y="800.984"/>
      <point x="657" y="600" type="curve" smooth="yes"/>
      <point x="657" y="227.001"/>
      <point x="556.249" y="497.412"/>
      <point x="441" y="360" type="curve" smooth="yes"/>
      <point x="411" y="325"/>
      <point x="418.615" y="286"/>
      <point x="482.615" y="275" type="curve"/>
      <point x="601.615" y="225"/>
      <point x="704.615" y="164"/>
      <point x="628.615" y="75" type="curve" smooth="yes"/>
      <point x="566.615" y="-1"/>
      <point x="413.615" y="-21"/>
      <point x="286.615" y="34" type="curve" smooth="yes"/>
      <point x="279.615" y="36"/>
      <point x="305" y="41"/>
    </contour>
  </outline>
</glyph>
<glyph name="ae" format="2">
  <advance width="905"/>
  <unicode hex="00E6"/>
  <outline>
    <contour>
      <point x="502.681" y="296.676" type="curve"/>
      <point x="694.884" y="294.102" type="line"/>
      <point x="670.396" y="320.967"/>
      <point x="635.047" y="375.1"/>
      <point x="595.805" y="375.1" type="curve" smooth="yes"/>
      <point x="557.188" y="375.1"/>
      <point x="526.88" y="322.025"/>
    </contour>
    <contour>
      <point x="332" y="369" type="line"/>
      <point x="324" y="371"/>
      <point x="316" y="372"/>
      <point x="308" y="372" type="curve" smooth="yes"/>
      <point x="248" y="372"/>
      <point x="201" y="325"/>
      <point x="201" y="266" type="curve" smooth="yes"/>
      <point x="201" y="206"/>
      <point x="248" y="159"/>
      <point x="308" y="159" type="curve" smooth="yes"/>
      <point x="316" y="159"/>
      <point x="324" y="160"/>
      <point x="332" y="162" type="curve"/>
    </contour>
    <contour>
      <point x="854" y="260" type="curve" smooth="yes"/>
      <point x="854" y="241.328"/>
      <point x="855" y="223"/>
      <point x="855" y="208" type="curve"/>
      <point x="507.985" y="205.32" type="line"/>
      <point x="526.489" y="174.457"/>
      <point x="556.416" y="154"/>
      <point x="596" y="154" type="curve" smooth="yes"/>
      <point x="610.517" y="154"/>
      <point x="832" y="157"/>
      <point x="845" y="162" type="curve"/>
      <point x="845" y="6" type="line"/>
      <point x="832" y="4"/>
      <point x="609.946" y="3"/>
      <point x="596" y="3" type="curve" smooth="yes"/>
      <point x="563.932" y="3"/>
      <point x="533.271" y="8.7832"/>
      <point x="505" y="19.3574" type="curve"/>
      <point x="332" y="1" type="line"/>
      <point x="332" y="9" type="line"/>
      <point x="324" y="8"/>
      <point x="316" y="8"/>
      <point x="308" y="8" type="curve" smooth="yes"/>
      <point x="165" y="8"/>
      <point x="50" y="123"/>
      <point x="50" y="266" type="curve" smooth="yes"/>
      <point x="50" y="408"/>
      <point x="165" y="515"/>
      <point x="308" y="515" type="curve" smooth="yes"/>
      <point x="316" y="515"/>
      <point x="324" y="515"/>
      <point x="332" y="514" type="curve" smooth="yes"/>
      <point x="505" y="514" type="line"/>
      <point x="596" y="518" type="line" smooth="yes"/>
      <point x="738" y="518"/>
      <point x="854" y="403"/>
    </contour>
  </outline>
</glyph>
<glyph name="eth" format="2">
  <advance width="612"/>
  <unicode hex="00F0"/>
  <outline>
    <contour>
      <point x="309.955" y="366.983" type="curve" smooth="yes"/>
      <point x="301.642" y="366.843"/>
      <point x="293.394" y="365.848"/>
      <point x="286" y="364" type="curve"/>
      <point x="286" y="364.828" type="line"/>
      <point x="236.899" y="354.945"/>
      <point x="201" y="312.437"/>
      <point x="201" y="260" type="curve" smooth="yes"/>
      <point x="201" y="208.437"/>
      <point x="236.899" y="166.039"/>
      <point x="286" y="156.17" type="curve"/>
      <point x="286" y="157" type="line"/>
      <point x="293.394" y="155.152"/>
      <point x="301.642" y="154.157"/>
      <point x="309.955" y="154.017" type="curve"/>
      <point x="318.231" y="154.163"/>
      <point x="326.28" y="155.234"/>
      <point x="334" y="157.132" type="curve"/>
      <point x="334" y="156.17" type="line"/>
      <point x="383.101" y="166.039"/>
      <point x="419" y="208.437"/>
      <point x="419" y="260" type="curve" smooth="yes"/>
      <point x="419" y="312.437"/>
      <point x="383.101" y="354.945"/>
      <point x="334" y="364.828" type="curve"/>
      <point x="334" y="363.865" type="line"/>
      <point x="326.28" y="365.766"/>
      <point x="318.231" y="366.837"/>
    </contour>
    <contour>
      <point x="135" y="780" type="line"/>
      <point x="287" y="780" type="line"/>
      <point x="291.978" y="775.722"/>
      <point x="296.99" y="771.398"/>
      <point x="302.026" y="767.026" type="curve"/>
      <point x="340" y="805" type="line"/>
      <point x="427" y="729" type="line"/>
      <point x="386.727" y="688.727" type="line"/>
      <point x="530.248" y="544.008"/>
      <point x="645.582" y="342.996"/>
      <point x="484" y="4" type="curve"/>
      <point x="332" y="4" type="line"/>
      <point x="332" y="4.10351" type="line"/>
      <point x="324.095" y="3.37326"/>
      <point x="316.09" y="3"/>
      <point x="308" y="3" type="curve" smooth="yes"/>
      <point x="165" y="3"/>
      <point x="50" y="118"/>
      <point x="50" y="260" type="curve" smooth="yes"/>
      <point x="50" y="403"/>
      <point x="165" y="518"/>
      <point x="308" y="518" type="curve" smooth="yes"/>
      <point x="316.09" y="518"/>
      <point x="324.095" y="517.627"/>
      <point x="332" y="516.896" type="curve"/>
      <point x="281.86" y="583.86" type="line"/>
      <point x="245" y="547" type="line"/>
      <point x="158" y="623" type="line"/>
      <point x="212.07" y="677.07" type="line"/>
    </contour>
  </outline>
</glyph>
<glyph name="divide" format="2">
  <advance width="644"/>
  <unicode hex="00F7"/>
  <outline>
    <contour>
      <point x="594" y="496" type="line"/>
      <point x="594" y="344" type="line"/>
      <point x="50" y="344" type="line"/>
      <point x="50" y="496" type="line"/>
    </contour>
    <contour>
      <point x="250" y="551" type="line"/>
      <point x="250" y="693" type="line"/>
      <point x="402" y="693" type="line"/>
      <point x="402" y="551" type="line"/>
    </contour>
    <contour>
      <point x="250" y="151" type="line"/>
      <point x="250" y="293" type="line"/>
      <point x="402" y="293" type="line"/>
      <point x="402" y="151" type="line"/>
    </contour>
  </outline>
</glyph>
<glyph name="oslash" format="2">
  <advance width="616"/>
  <unicode hex="00F8"/>
  <outline>
    <contour>
      <point x="50" y="260" type="curve" smooth="yes"/>
      <point x="50" y="400.96"/>
      <point x="161.197" y="518"/>
      <point x="308" y="518" type="curve" smooth="yes"/>
      <point x="308.302" y="518"/>
      <point x="308.604" y="517.999"/>
      <point x="308.906" y="517.998" type="curve" smooth="yes"/>
      <point x="309.926" y="518"/>
      <point x="310.956" y="518"/>
      <point x="312" y="518" type="curve" smooth="yes"/>
      <point x="338.644" y="518"/>
      <point x="364.315" y="514.008"/>
      <point x="388.452" y="506.586" type="curve"/>
      <point x="458" y="625" type="line"/>
      <point x="564" y="564" type="line"/>
      <point x="493.418" y="443.824" type="line"/>
      <point x="540.753" y="397.109"/>
      <point x="570" y="332.115"/>
      <point x="570" y="260" type="curve" smooth="yes"/>
      <point x="570" y="118"/>
      <point x="455" y="3"/>
      <point x="312" y="3" type="curve" smooth="yes"/>
      <point x="310.956" y="3"/>
      <point x="309.926" y="3.00156"/>
      <point x="308.906" y="3.00156" type="curve" smooth="yes"/>
      <point x="308.604" y="3.00156"/>
      <point x="308.302" y="3"/>
      <point x="308" y="3" type="curve" smooth="yes"/>
      <point x="282.427" y="3"/>
      <point x="261.4" y="6.16967"/>
      <point x="239.808" y="12.0203" type="curve"/>
      <point x="184" y="-83" type="line"/>
      <point x="78" y="-22" type="line"/>
      <point x="132.735" y="71.1938" type="line"/>
      <point x="81.7941" y="118.136"/>
      <point x="50" y="185.336"/>
    </contour>
    <contour>
      <point x="306.394" y="366.87" type="line"/>
      <point x="299.3" y="366.541"/>
      <point x="292.336" y="365.584"/>
      <point x="286" y="364" type="curve"/>
      <point x="286" y="364.828" type="line"/>
      <point x="236.899" y="354.945"/>
      <point x="201" y="312.437"/>
      <point x="201" y="260" type="curve" smooth="yes"/>
      <point x="201" y="241.526"/>
      <point x="205.608" y="224.229"/>
      <point x="213.78" y="209.183" type="curve"/>
    </contour>
    <contour>
      <point x="323.872" y="155.151" type="line"/>
      <point x="327.304" y="155.653"/>
      <point x="330.682" y="156.316"/>
      <point x="334" y="157.132" type="curve"/>
      <point x="334" y="156.17" type="line"/>
      <point x="383.101" y="166.039"/>
      <point x="419" y="208.437"/>
      <point x="419" y="260" type="curve" smooth="yes"/>
      <point x="419" y="275.225"/>
      <point x="415.974" y="289.612"/>
      <point x="410.477" y="302.607" type="curve"/>
    </contour>
  </outline>
</glyph>
<glyph name="thorn" format="2">
  <advance width="512"/>
  <unicode hex="00FE"/>
  <outline>
    <contour>
      <point x="202" y="-199" type="line"/>
      <point x="50" y="-199" type="line"/>
      <point x="50" y="701" type="line"/>
      <point x="197" y="701" type="line"/>
      <point x="202" y="512" type="line"/>
      <point x="210" y="513"/>
      <point x="218" y="513"/>
      <point x="226" y="513" type="curve" smooth="yes"/>
      <point x="369" y="513"/>
      <point x="484" y="398"/>
      <point x="484" y="256" type="curve" smooth="yes"/>
      <point x="484" y="113"/>
      <point x="369" y="-2"/>
      <point x="226" y="-2" type="curve" smooth="yes"/>
      <point x="218" y="-2"/>
      <point x="210" y="-2"/>
      <point x="202" y="-1" type="curve"/>
    </contour>
    <contour>
      <point x="202" y="359" type="curve"/>
      <point x="202" y="152" type="line"/>
      <point x="210" y="150"/>
      <point x="218" y="149"/>
      <point x="226" y="149" type="curve" smooth="yes"/>
      <point x="286" y="149"/>
      <point x="333" y="196"/>
      <point x="333" y="256" type="curve" smooth="yes"/>
      <point x="333" y="315"/>
      <point x="286" y="362"/>
      <point x="226" y="362" type="curve" smooth="yes"/>
      <point x="218" y="362"/>
      <point x="210" y="361"/>
    </contour>
  </outline>
</glyph>
<glyph name="Hbar" format="2">
  <advance width="652"/>
  <unicode hex="0126"/>
  <outline>
    <contour>
      <point x="450" y="774" type="line"/>
      <point x="602" y="774" type="line"/>
      <point x="602" y="713" type="line"/>
      <point x="647" y="713" type="line"/>
      <point x="647" y="561" type="line"/>
      <point x="602" y="561" type="line"/>
      <point x="602" y="-2" type="line"/>
      <point x="450" y="-2" type="line"/>
      <point x="450" y="333" type="line"/>
      <point x="202" y="333" type="line"/>
      <point x="202" y="-2" type="line"/>
      <point x="50" y="-2" type="line"/>
      <point x="50" y="561" type="line"/>
      <point x="0" y="561" type="line"/>
      <point x="0" y="713" type="line"/>
      <point x="50" y="713" type="line"/>
      <point x="50" y="774" type="line"/>
      <point x="202" y="774" type="line"/>
      <point x="202" y="713" type="line"/>
      <point x="450" y="713" type="line"/>
    </contour>
    <contour>
      <point x="202" y="561" type="line"/>
      <point x="202" y="485" type="line"/>
      <point x="450" y="485" type="line"/>
      <point x="450" y="561" type="line"/>
    </contour>
  </outline>
</glyph>
<glyph name="hbar" format="2">
  <advance width="658"/>
  <unicode hex="0127"/>
  <outline>
    <contour>
      <point x="111" y="768" type="line"/>
      <point x="280" y="768" type="line"/>
      <point x="280" y="512" type="line"/>
      <point x="306" y="520"/>
      <point x="332" y="524"/>
      <point x="360" y="524" type="curve" smooth="yes"/>
      <point x="478" y="524"/>
      <point x="574" y="446"/>
      <point x="605" y="337" type="curve"/>
      <point x="608" y="6" type="line"/>
      <point x="441" y="6" type="line"/>
      <point x="441" y="336" type="line"/>
      <point x="421" y="359"/>
      <point x="393" y="373"/>
      <point x="360" y="373" type="curve" smooth="yes"/>
      <point x="328" y="373"/>
      <point x="300" y="360"/>
      <point x="280" y="338" type="curve"/>
      <point x="280" y="6" type="line"/>
      <point x="111" y="6" type="line"/>
    </contour>
    <contour>
      <point x="338" y="731" type="line"/>
      <point x="338" y="579" type="line"/>
      <point x="50" y="579" type="line"/>
      <point x="50" y="731" type="line"/>
    </contour>
  </outline>
</glyph>
<glyph name="Lcaron" format="2">
  <advance width="718"/>
  <unicode hex="013D"/>
  <outline>
    <contour>
      <point x="252" y="520" type="line"/>
      <point x="252" y="777" type="line"/>
      <point x="404" y="777" type="line"/>
      <point x="359" y="520" type="line"/>
    </contour>
    <contour>
      <point x="50" y="774" type="line"/>
      <point x="202" y="774" type="line"/>
      <point x="202" y="149" type="line"/>
      <point x="667" y="149" type="line"/>
      <point x="668" y="-3" type="line"/>
      <point x="51" y="-3" type="line"/>
      <point x="50.9934" y="-2" type="line"/>
      <point x="50" y="-2" type="line"/>
    </contour>
  </outline>
</glyph>
<glyph name="OE" format="2">
  <advance width="1068"/>
  <unicode hex="0152"/>
  <outline>
    <contour>
      <point x="909" y="485" type="line"/>
      <point x="910" y="333" type="line"/>
      <point x="602" y="333" type="line"/>
      <point x="602" y="149" type="line"/>
      <point x="1017" y="149" type="line"/>
      <point x="1018" y="-3" type="line"/>
      <point x="505" y="-3" type="line"/>
      <point x="505" y="-6.83008" type="line"/>
      <point x="481.371" y="-11.5361"/>
      <point x="456.966" y="-14"/>
      <point x="432" y="-14" type="curve" smooth="yes"/>
      <point x="221" y="-14"/>
      <point x="50" y="162"/>
      <point x="50" y="380" type="curve" smooth="yes"/>
      <point x="50" y="597"/>
      <point x="221" y="773"/>
      <point x="432" y="773" type="curve" smooth="yes"/>
      <point x="438.034" y="773"/>
      <point x="444.035" y="772.856"/>
      <point x="450" y="772.571" type="curve"/>
      <point x="450" y="774" type="line"/>
      <point x="450" y="778" type="line"/>
      <point x="1017" y="778" type="line"/>
      <point x="1018" y="626" type="line"/>
      <point x="602" y="626" type="line"/>
      <point x="602" y="485" type="line"/>
    </contour>
    <contour>
      <point x="432" y="612" type="curve" smooth="yes"/>
      <point x="305" y="612"/>
      <point x="203" y="507"/>
      <point x="203" y="378" type="curve" smooth="yes"/>
      <point x="203" y="248"/>
      <point x="305" y="143"/>
      <point x="432" y="143" type="curve" smooth="yes"/>
      <point x="438.06" y="143"/>
      <point x="444.062" y="143.239"/>
      <point x="450" y="143.708" type="curve"/>
      <point x="450" y="611.292" type="line"/>
      <point x="444.062" y="611.761"/>
      <point x="438.06" y="612"/>
    </contour>
  </outline>
</glyph>
<glyph name="oe" format="2">
  <advance width="1000"/>
  <unicode hex="0153"/>
  <outline>
    <contour>
      <point x="309.955" y="366.983" type="curve" smooth="yes"/>
      <point x="301.642" y="366.843"/>
      <point x="293.394" y="365.848"/>
      <point x="286" y="364" type="curve"/>
      <point x="286" y="364.828" type="line"/>
      <point x="236.899" y="354.945"/>
      <point x="201" y="312.437"/>
      <point x="201" y="260" type="curve" smooth="yes"/>
      <point x="201" y="208.437"/>
      <point x="236.899" y="166.039"/>
      <point x="286" y="156.17" type="curve"/>
      <point x="286" y="157" type="line"/>
      <point x="293.394" y="155.152"/>
      <point x="301.642" y="154.157"/>
      <point x="309.955" y="154.017" type="curve"/>
      <point x="318.231" y="154.163"/>
      <point x="326.28" y="155.234"/>
      <point x="334" y="157.132" type="curve"/>
      <point x="334" y="156.17" type="line"/>
      <point x="383.101" y="166.039"/>
      <point x="419" y="208.437"/>
      <point x="419" y="260" type="curve" smooth="yes"/>
      <point x="419" y="312.437"/>
      <point x="383.101" y="354.945"/>
      <point x="334" y="364.828" type="curve"/>
      <point x="334" y="363.865" type="line"/>
      <point x="326.28" y="365.766"/>
      <point x="318.231" y="366.837"/>
    </contour>
    <contour>
      <point x="592.681" y="296.676" type="curve"/>
      <point x="788.884" y="294.102" type="line"/>
      <point x="764.396" y="320.967"/>
      <point x="729.047" y="375.1"/>
      <point x="689.805" y="375.1" type="curve" smooth="yes"/>
      <point x="651.188" y="375.1"/>
      <point x="616.88" y="322.025"/>
    </contour>
    <contour>
      <point x="308.906" y="3.00156" type="curve" smooth="yes"/>
      <point x="308.604" y="3.00156"/>
      <point x="308.302" y="3"/>
      <point x="308" y="3" type="curve" smooth="yes"/>
      <point x="306.815" y="3"/>
      <point x="305.632" y="3.0079"/>
      <point x="304.451" y="3.02364" type="curve" smooth="yes"/>
      <point x="299.662" y="3.06955"/>
      <point x="295.005" y="3.20466"/>
      <point x="290.134" y="3.60223" type="curve" smooth="yes"/>
      <point x="155.542" y="12.709"/>
      <point x="50" y="123.965"/>
      <point x="50" y="260" type="curve" smooth="yes"/>
      <point x="50" y="396.991"/>
      <point x="155.539" y="508.286"/>
      <point x="290.129" y="517.397" type="curve" smooth="yes"/>
      <point x="295.002" y="517.795"/>
      <point x="299.66" y="517.93"/>
      <point x="304.451" y="517.976" type="curve" smooth="yes"/>
      <point x="305.632" y="517.992"/>
      <point x="306.815" y="518"/>
      <point x="308" y="518" type="curve" smooth="yes"/>
      <point x="308.302" y="518"/>
      <point x="308.604" y="517.999"/>
      <point x="308.906" y="517.998" type="curve" smooth="yes"/>
      <point x="309.926" y="518"/>
      <point x="310.956" y="518"/>
      <point x="312" y="518" type="curve" smooth="yes"/>
      <point x="386.818" y="518"/>
      <point x="453.972" y="486.52"/>
      <point x="501" y="436.019" type="curve"/>
      <point x="548.028" y="486.52"/>
      <point x="615.182" y="518"/>
      <point x="690" y="518" type="curve" smooth="yes"/>
      <point x="832" y="518"/>
      <point x="948" y="403"/>
      <point x="948" y="260" type="curve" smooth="yes"/>
      <point x="948" y="241.328"/>
      <point x="949" y="223"/>
      <point x="949" y="208" type="curve"/>
      <point x="597.985" y="205.32" type="line"/>
      <point x="616.489" y="174.457"/>
      <point x="650.416" y="154"/>
      <point x="690" y="154" type="curve" smooth="yes"/>
      <point x="704.517" y="154"/>
      <point x="926" y="157"/>
      <point x="939" y="162" type="curve"/>
      <point x="939" y="6" type="line"/>
      <point x="926" y="4"/>
      <point x="703.946" y="3"/>
      <point x="690" y="3" type="curve" smooth="yes"/>
      <point x="615.182" y="3"/>
      <point x="548.028" y="34.4805"/>
      <point x="501" y="84.8378" type="curve"/>
      <point x="453.972" y="34.4805"/>
      <point x="386.818" y="3"/>
      <point x="312" y="3" type="curve" smooth="yes"/>
      <point x="310.956" y="3"/>
      <point x="309.926" y="3.00156"/>
    </contour>
  </outline>
</glyph>
<glyph name="tcaron" format="2">
  <advance width="630"/>
  <unicode hex="0165"/>
  <outline>
    <contour>
      <point x="441" y="504" type="line"/>
      <point x="441" y="761" type="line"/>
      <point x="593" y="761" type="line"/>
      <point x="548" y="504" type="line"/>
    </contour>
    <contour>
      <point x="464" y="6" type="line"/>
      <point x="441" y="0"/>
      <point x="418" y="-3"/>
      <point x="393" y="-3" type="curve" smooth="yes"/>
      <point x="275" y="-3"/>
      <point x="179" y="75"/>
      <point x="148" y="184" type="curve"/>
      <point x="147.064" y="364" type="line"/>
      <point x="50" y="364" type="line"/>
      <point x="50" y="516" type="line"/>
      <point x="146.274" y="516" type="line"/>
      <point x="145" y="761" type="line"/>
      <point x="312" y="761" type="line"/>
      <point x="312" y="516" type="line"/>
      <point x="409" y="516" type="line"/>
      <point x="409" y="364" type="line"/>
      <point x="312" y="364" type="line"/>
      <point x="312" y="185" type="line"/>
      <point x="332" y="162"/>
      <point x="360" y="148"/>
      <point x="393" y="148" type="curve" smooth="yes"/>
      <point x="420" y="148"/>
      <point x="445" y="158"/>
      <point x="464" y="174" type="curve"/>
    </contour>
  </outline>
</glyph>
<glyph name="gravecomb" format="2">
  <advance width="0"/>
  <unicode hex="0300"/>
  <outline>
    <contour>
      <point x="37" y="516" type="line"/>
      <point x="-145" y="698" type="line"/>
      <point x="-37" y="805" type="line"/>
      <point x="145" y="623" type="line"/>
    </contour>
  </outline>
</glyph>
<glyph name="uni0302" format="2">
  <advance width="0"/>
  <unicode hex="0302"/>
  <outline>
    <contour>
      <point x="-100.5" y="766.5" type="line"/>
      <point x="-29" y="933.5" type="line"/>
      <point x="-28.5" y="933.5" type="line"/>
      <point x="47" y="933.5" type="line"/>
      <point x="47.5" y="933.5" type="line"/>
      <point x="100.5" y="766.5" type="line"/>
      <point x="24.5" y="766.5" type="line"/>
      <point x="3.5" y="873.5" type="line"/>
      <point x="-24.5" y="766.5" type="line"/>
    </contour>
  </outline>
</glyph>
<glyph name="tildecomb" format="2">
  <advance width="0"/>
  <unicode hex="0303"/>
  <outline>
    <contour>
      <point x="124.75" y="918.75" type="curve"/>
      <point x="124.75" y="842.75" type="line"/>
      <point x="124.549" y="842"/>
      <point x="96.666" y="802.25"/>
      <point x="60.75" y="802.25" type="curve" smooth="yes"/>
      <point x="36.75" y="802.25"/>
      <point x="34.75" y="802.25"/>
      <point x="10.75" y="802.25" type="curve" smooth="yes"/>
      <point x="-21.25" y="802.25"/>
      <point x="-33.75" y="830.25"/>
      <point x="-65.75" y="830.25" type="curve" smooth="yes"/>
      <point x="-91.25" y="830.25"/>
      <point x="-124.75" y="802.25"/>
      <point x="-124.75" y="802.25" type="curve"/>
      <point x="-124.75" y="878.25" type="line"/>
      <point x="-124.75" y="878.25"/>
      <point x="-92.75" y="906.25"/>
      <point x="-67.75" y="906.25" type="curve" smooth="yes"/>
      <point x="-34.75" y="906.25"/>
      <point x="-20.75" y="878.75"/>
      <point x="12.25" y="878.75" type="curve" smooth="yes"/>
      <point x="34.25" y="878.75"/>
      <point x="34.75" y="878.75"/>
      <point x="56.75" y="878.541" type="curve" smooth="yes"/>
      <point x="91.25" y="878.75"/>
      <point x="124.75" y="918.75"/>
    </contour>
  </outline>
</glyph>
<glyph name="uni0304" format="2">
  <advance width="0"/>
  <unicode hex="0304"/>
  <outline>
    <contour>
      <point x="136" y="858" type="line"/>
      <point x="136" y="782" type="line"/>
      <point x="-136" y="782" type="line"/>
      <point x="-136" y="858" type="line"/>
    </contour>
  </outline>
</glyph>
<glyph name="uni0306" format="2">
  <advance width="0"/>
  <unicode hex="0306"/>
  <outline>
    <contour>
      <point x="128.5" y="931.5" type="line"/>
      <point x="128.5" y="927.5"/>
      <point x="128.5" y="922.5"/>
      <point x="128.5" y="918.5" type="curve" smooth="yes"/>
      <point x="128.5" y="846.5"/>
      <point x="71.5" y="789.5"/>
      <point x="0.5" y="789.5" type="curve" smooth="yes"/>
      <point x="-71.5" y="789.5"/>
      <point x="-128.5" y="846.5"/>
      <point x="-128.5" y="918.5" type="curve" smooth="yes"/>
      <point x="-128.5" y="922.5"/>
      <point x="-128.5" y="927.5"/>
      <point x="-128.5" y="931.5" type="curve"/>
      <point x="-51.5" y="931.5" type="line"/>
      <point x="-52.5" y="927.5"/>
      <point x="-53.5" y="922.5"/>
      <point x="-53.5" y="918.5" type="curve" smooth="yes"/>
      <point x="-53.5" y="888.5"/>
      <point x="-29.5" y="864.5"/>
      <point x="0.5" y="864.5" type="curve" smooth="yes"/>
      <point x="30.5" y="864.5"/>
      <point x="53.5" y="888.5"/>
      <point x="53.5" y="918.5" type="curve" smooth="yes"/>
      <point x="53.5" y="922.5"/>
      <point x="52.5" y="927.5"/>
      <point x="51.5" y="931.5" type="curve"/>
    </contour>
  </outline>
</glyph>
<glyph name="uni0308" format="2">
  <advance width="0"/>
  <unicode hex="0308"/>
  <outline>
    <contour>
      <point x="24" y="498" type="line"/>
      <point x="24" y="640" type="line"/>
      <point x="176" y="640" type="line"/>
      <point x="176" y="498" type="line"/>
    </contour>
    <contour>
      <point x="-176" y="498" type="line"/>
      <point x="-176" y="640" type="line"/>
      <point x="-24" y="640" type="line"/>
      <point x="-24" y="498" type="line"/>
    </contour>
  </outline>
</glyph>
<glyph name="hookabovecomb" format="2">
  <advance width="0"/>
  <unicode hex="0309"/>
  <outline>
    <contour>
      <point x="-71" y="432" type="curve"/>
      <point x="-71" y="509" type="line"/>
      <point x="-67" y="508"/>
      <point x="-62" y="507"/>
      <point x="-58" y="507" type="curve" smooth="yes"/>
      <point x="-28" y="507"/>
      <point x="-4" y="530"/>
      <point x="-4" y="560" type="curve" smooth="yes"/>
      <point x="-4" y="590"/>
      <point x="-28" y="614"/>
      <point x="-58" y="614" type="curve" smooth="yes"/>
      <point x="-62" y="614"/>
      <point x="-67" y="613"/>
      <point x="-71" y="612" type="curve"/>
      <point x="-71" y="689" type="line"/>
      <point x="-67" y="689"/>
      <point x="-62" y="689"/>
      <point x="-58" y="689" type="curve" smooth="yes"/>
      <point x="14" y="689"/>
      <point x="71" y="632"/>
      <point x="71" y="560" type="curve" smooth="yes"/>
      <point x="71" y="489"/>
      <point x="14" y="432"/>
      <point x="-58" y="432" type="curve" smooth="yes"/>
      <point x="-62" y="432"/>
      <point x="-67" y="432"/>
    </contour>
  </outline>
</glyph>
<glyph name="uni030A" format="2">
  <advance width="0"/>
  <unicode hex="030A"/>
  <outline>
    <contour>
      <point x="-1" y="432" type="curve" smooth="yes"/>
      <point x="-2" y="432"/>
      <point x="-2" y="432"/>
      <point x="-3" y="432" type="curve" smooth="yes"/>
      <point x="-5" y="432"/>
      <point x="-8" y="432"/>
      <point x="-10" y="432" type="curve" smooth="yes"/>
      <point x="-77" y="437"/>
      <point x="-130" y="492"/>
      <point x="-130" y="560" type="curve" smooth="yes"/>
      <point x="-130" y="628"/>
      <point x="-77" y="684"/>
      <point x="-10" y="689" type="curve" smooth="yes"/>
      <point x="-8" y="689"/>
      <point x="-5" y="689"/>
      <point x="-3" y="689" type="curve" smooth="yes"/>
      <point x="-2" y="689"/>
      <point x="-2" y="689"/>
      <point x="-1" y="689" type="curve" smooth="yes"/>
      <point x="0" y="689"/>
      <point x="0" y="689"/>
      <point x="1" y="689" type="curve" smooth="yes"/>
      <point x="73" y="689"/>
      <point x="130" y="632"/>
      <point x="130" y="560" type="curve" smooth="yes"/>
      <point x="130" y="489"/>
      <point x="73" y="432"/>
      <point x="1" y="432" type="curve" smooth="yes"/>
      <point x="0" y="432"/>
      <point x="0" y="432"/>
    </contour>
    <contour>
      <point x="0" y="614" type="curve" smooth="yes"/>
      <point x="-4" y="614"/>
      <point x="-8" y="613"/>
      <point x="-12" y="612" type="curve"/>
      <point x="-12" y="613" type="line"/>
      <point x="-37" y="608"/>
      <point x="-54" y="586"/>
      <point x="-54" y="560" type="curve" smooth="yes"/>
      <point x="-54" y="534"/>
      <point x="-37" y="513"/>
      <point x="-12" y="508" type="curve"/>
      <point x="-12" y="509" type="line"/>
      <point x="-8" y="508"/>
      <point x="-4" y="507"/>
      <point x="0" y="507" type="curve"/>
      <point x="4" y="507"/>
      <point x="8" y="508"/>
      <point x="12" y="509" type="curve"/>
      <point x="12" y="508" type="line"/>
      <point x="37" y="513"/>
      <point x="54" y="534"/>
      <point x="54" y="560" type="curve" smooth="yes"/>
      <point x="54" y="586"/>
      <point x="37" y="608"/>
      <point x="12" y="613" type="curve"/>
      <point x="12" y="612" type="line"/>
      <point x="8" y="613"/>
      <point x="4" y="614"/>
    </contour>
  </outline>
</glyph>
<glyph name="uni030F" format="2">
  <advance width="0"/>
  <unicode hex="030F"/>
  <outline>
    <contour>
      <point x="-106" y="514" type="line"/>
      <point x="-288" y="696" type="line"/>
      <point x="-180" y="803" type="line"/>
      <point x="2" y="621" type="line"/>
    </contour>
    <contour>
      <point x="180" y="516" type="line"/>
      <point x="-2" y="698" type="line"/>
      <point x="106" y="805" type="line"/>
      <point x="288" y="623" type="line"/>
    </contour>
  </outline>
</glyph>
<glyph name="uni0312" format="2">
  <advance width="0"/>
  <unicode hex="0312"/>
  <outline>
    <contour>
      <point x="76" y="408" type="line"/>
      <point x="76" y="266" type="line"/>
      <point x="-76" y="266" type="line"/>
      <point x="-76" y="408" type="line"/>
      <point x="-16" y="540" type="line"/>
      <point x="42" y="536" type="line"/>
      <point x="33.2324" y="408" type="line"/>
    </contour>
  </outline>
</glyph>
<glyph name="uni0313" format="2">
  <advance width="0"/>
  <unicode hex="0313"/>
  <outline>
    <contour>
      <point x="-76" y="398" type="line"/>
      <point x="-76" y="540" type="line"/>
      <point x="76" y="540" type="line"/>
      <point x="76" y="398" type="line"/>
      <point x="16" y="266" type="line"/>
      <point x="-42" y="270" type="line"/>
      <point x="-33.2324" y="398" type="line"/>
    </contour>
  </outline>
</glyph>
<glyph name="dotbelowcomb" format="2">
  <advance width="0"/>
  <unicode hex="0323"/>
  <outline>
    <contour>
      <point x="-76" y="-2" type="line"/>
      <point x="-76" y="140" type="line"/>
      <point x="76" y="140" type="line"/>
      <point x="76" y="-2" type="line"/>
    </contour>
  </outline>
</glyph>
<glyph name="uni0326" format="2">
  <advance width="0"/>
  <unicode hex="0326"/>
  <outline>
    <contour>
      <point x="-76" y="98" type="line"/>
      <point x="-76" y="240" type="line"/>
      <point x="76" y="240" type="line"/>
      <point x="76" y="98" type="line"/>
      <point x="16" y="-34" type="line"/>
      <point x="-42" y="-30" type="line"/>
      <point x="-33.2324" y="98" type="line"/>
    </contour>
  </outline>
</glyph>
<glyph name="uni0328" format="2">
  <advance width="0"/>
  <unicode hex="0328"/>
  <outline>
    <contour>
      <point x="71" y="-68" type="line"/>
      <point x="67" y="-68"/>
      <point x="62" y="-68"/>
      <point x="58" y="-68" type="curve" smooth="yes"/>
      <point x="-14" y="-68"/>
      <point x="-71" y="-11"/>
      <point x="-71" y="60" type="curve" smooth="yes"/>
      <point x="-71" y="132"/>
      <point x="-14" y="189"/>
      <point x="58" y="189" type="curve" smooth="yes"/>
      <point x="62" y="189"/>
      <point x="67" y="189"/>
      <point x="71" y="189" type="curve"/>
      <point x="71" y="112" type="line"/>
      <point x="67" y="113"/>
      <point x="62" y="114"/>
      <point x="58" y="114" type="curve" smooth="yes"/>
      <point x="28" y="114"/>
      <point x="4" y="90"/>
      <point x="4" y="60" type="curve" smooth="yes"/>
      <point x="4" y="30"/>
      <point x="28" y="7"/>
      <point x="58" y="7" type="curve" smooth="yes"/>
      <point x="62" y="7"/>
      <point x="67" y="8"/>
      <point x="71" y="9" type="curve"/>
    </contour>
  </outline>
</glyph>
<glyph name="uni0964" format="2">
  <advance width="252"/>
  <unicode hex="0964"/>
  <outline>
    <contour>
      <point x="202" y="370" type="line"/>
      <point x="202" y="-30" type="line"/>
      <point x="50" y="-30" type="line"/>
      <point x="50" y="370" type="line"/>
    </contour>
  </outline>
</glyph>
<glyph name="uni0981" format="2">
  <advance width="0"/>
  <unicode hex="0981"/>
  <outline>
    <contour>
      <point x="193" y="619" type="line"/>
      <point x="193" y="613"/>
      <point x="193" y="606"/>
      <point x="193" y="600" type="curve" smooth="yes"/>
      <point x="193" y="492"/>
      <point x="107" y="406"/>
      <point x="1" y="406" type="curve" smooth="yes"/>
      <point x="-107" y="406"/>
      <point x="-193" y="492"/>
      <point x="-193" y="600" type="curve" smooth="yes"/>
      <point x="-193" y="606"/>
      <point x="-193" y="613"/>
      <point x="-193" y="619" type="curve"/>
      <point x="-77" y="619" type="line"/>
      <point x="-79" y="613"/>
      <point x="-80" y="606"/>
      <point x="-80" y="600" type="curve" smooth="yes"/>
      <point x="-80" y="555"/>
      <point x="-44" y="519"/>
      <point x="1" y="519" type="curve" smooth="yes"/>
      <point x="46" y="519"/>
      <point x="80" y="555"/>
      <point x="80" y="600" type="curve" smooth="yes"/>
      <point x="80" y="606"/>
      <point x="79" y="613"/>
      <point x="77" y="619" type="curve"/>
    </contour>
    <contour>
      <point x="-61" y="658" type="line"/>
      <point x="-61" y="772" type="line"/>
      <point x="61" y="772" type="line"/>
      <point x="61" y="658" type="line"/>
    </contour>
  </outline>
</glyph>
<glyph name="uni0982" format="2">
  <advance width="445"/>
  <unicode hex="0982"/>
  <outline>
    <contour>
      <point x="204" y="483" type="curve" smooth="yes"/>
      <point x="203" y="483"/>
      <point x="203" y="483"/>
      <point x="202" y="483" type="curve" smooth="yes"/>
      <point x="200" y="483"/>
      <point x="197" y="483"/>
      <point x="195" y="483" type="curve" smooth="yes"/>
      <point x="128" y="488"/>
      <point x="75" y="543"/>
      <point x="75" y="611" type="curve" smooth="yes"/>
      <point x="75" y="679"/>
      <point x="128" y="735"/>
      <point x="195" y="740" type="curve" smooth="yes"/>
      <point x="197" y="740"/>
      <point x="200" y="740"/>
      <point x="202" y="740" type="curve" smooth="yes"/>
      <point x="203" y="740"/>
      <point x="203" y="740"/>
      <point x="204" y="740" type="curve" smooth="yes"/>
      <point x="205" y="740"/>
      <point x="205" y="740"/>
      <point x="206" y="740" type="curve" smooth="yes"/>
      <point x="278" y="740"/>
      <point x="335" y="683"/>
      <point x="335" y="611" type="curve" smooth="yes"/>
      <point x="335" y="540"/>
      <point x="278" y="483"/>
      <point x="206" y="483" type="curve" smooth="yes"/>
      <point x="205" y="483"/>
      <point x="205" y="483"/>
    </contour>
    <contour>
      <point x="205" y="665" type="curve" smooth="yes"/>
      <point x="201" y="665"/>
      <point x="197" y="664"/>
      <point x="193" y="663" type="curve"/>
      <point x="193" y="664" type="line"/>
      <point x="168" y="659"/>
      <point x="151" y="637"/>
      <point x="151" y="611" type="curve" smooth="yes"/>
      <point x="151" y="585"/>
      <point x="168" y="564"/>
      <point x="193" y="559" type="curve"/>
      <point x="193" y="560" type="line"/>
      <point x="197" y="559"/>
      <point x="201" y="558"/>
      <point x="205" y="558" type="curve"/>
      <point x="209" y="558"/>
      <point x="213" y="559"/>
      <point x="217" y="560" type="curve"/>
      <point x="217" y="559" type="line"/>
      <point x="242" y="564"/>
      <point x="259" y="585"/>
      <point x="259" y="611" type="curve" smooth="yes"/>
      <point x="259" y="637"/>
      <point x="242" y="659"/>
      <point x="217" y="664" type="curve"/>
      <point x="217" y="663" type="line"/>
      <point x="213" y="664"/>
      <point x="209" y="665"/>
    </contour>
    <contour>
      <point x="158" y="427" type="line"/>
      <point x="391" y="69" type="line"/>
      <point x="285" y="8" type="line"/>
      <point x="52" y="366" type="line"/>
    </contour>
  </outline>
</glyph>
<glyph name="uni0983" format="2">
  <advance width="445"/>
  <unicode hex="0983"/>
  <outline>
    <contour>
      <point x="204" y="83" type="curve" smooth="yes"/>
      <point x="203" y="83"/>
      <point x="203" y="83"/>
      <point x="202" y="83" type="curve" smooth="yes"/>
      <point x="200" y="83"/>
      <point x="197" y="83"/>
      <point x="195" y="83" type="curve" smooth="yes"/>
      <point x="128" y="88"/>
      <point x="75" y="143"/>
      <point x="75" y="211" type="curve" smooth="yes"/>
      <point x="75" y="279"/>
      <point x="128" y="335"/>
      <point x="195" y="340" type="curve" smooth="yes"/>
      <point x="197" y="340"/>
      <point x="200" y="340"/>
      <point x="202" y="340" type="curve" smooth="yes"/>
      <point x="203" y="340"/>
      <point x="203" y="340"/>
      <point x="204" y="340" type="curve" smooth="yes"/>
      <point x="205" y="340"/>
      <point x="205" y="340"/>
      <point x="206" y="340" type="curve" smooth="yes"/>
      <point x="278" y="340"/>
      <point x="335" y="283"/>
      <point x="335" y="211" type="curve" smooth="yes"/>
      <point x="335" y="140"/>
      <point x="278" y="83"/>
      <point x="206" y="83" type="curve" smooth="yes"/>
      <point x="205" y="83"/>
      <point x="205" y="83"/>
    </contour>
    <contour>
      <point x="205" y="265" type="curve" smooth="yes"/>
      <point x="201" y="265"/>
      <point x="197" y="264"/>
      <point x="193" y="263" type="curve"/>
      <point x="193" y="264" type="line"/>
      <point x="168" y="259"/>
      <point x="151" y="237"/>
      <point x="151" y="211" type="curve" smooth="yes"/>
      <point x="151" y="185"/>
      <point x="168" y="164"/>
      <point x="193" y="159" type="curve"/>
      <point x="193" y="160" type="line"/>
      <point x="197" y="159"/>
      <point x="201" y="158"/>
      <point x="205" y="158" type="curve"/>
      <point x="209" y="158"/>
      <point x="213" y="159"/>
      <point x="217" y="160" type="curve"/>
      <point x="217" y="159" type="line"/>
      <point x="242" y="164"/>
      <point x="259" y="185"/>
      <point x="259" y="211" type="curve" smooth="yes"/>
      <point x="259" y="237"/>
      <point x="242" y="259"/>
      <point x="217" y="264" type="curve"/>
      <point x="217" y="263" type="line"/>
      <point x="213" y="264"/>
      <point x="209" y="265"/>
    </contour>
    <contour>
      <point x="204" y="483" type="curve" smooth="yes"/>
      <point x="203" y="483"/>
      <point x="203" y="483"/>
      <point x="202" y="483" type="curve" smooth="yes"/>
      <point x="200" y="483"/>
      <point x="197" y="483"/>
      <point x="195" y="483" type="curve" smooth="yes"/>
      <point x="128" y="488"/>
      <point x="75" y="543"/>
      <point x="75" y="611" type="curve" smooth="yes"/>
      <point x="75" y="679"/>
      <point x="128" y="735"/>
      <point x="195" y="740" type="curve" smooth="yes"/>
      <point x="197" y="740"/>
      <point x="200" y="740"/>
      <point x="202" y="740" type="curve" smooth="yes"/>
      <point x="203" y="740"/>
      <point x="203" y="740"/>
      <point x="204" y="740" type="curve" smooth="yes"/>
      <point x="205" y="740"/>
      <point x="205" y="740"/>
      <point x="206" y="740" type="curve" smooth="yes"/>
      <point x="278" y="740"/>
      <point x="335" y="683"/>
      <point x="335" y="611" type="curve" smooth="yes"/>
      <point x="335" y="540"/>
      <point x="278" y="483"/>
      <point x="206" y="483" type="curve" smooth="yes"/>
      <point x="205" y="483"/>
      <point x="205" y="483"/>
    </contour>
    <contour>
      <point x="205" y="665" type="curve" smooth="yes"/>
      <point x="201" y="665"/>
      <point x="197" y="664"/>
      <point x="193" y="663" type="curve"/>
      <point x="193" y="664" type="line"/>
      <point x="168" y="659"/>
      <point x="151" y="637"/>
      <point x="151" y="611" type="curve" smooth="yes"/>
      <point x="151" y="585"/>
      <point x="168" y="564"/>
      <point x="193" y="559" type="curve"/>
      <point x="193" y="560" type="line"/>
      <point x="197" y="559"/>
      <point x="201" y="558"/>
      <point x="205" y="558" type="curve"/>
      <point x="209" y="558"/>
      <point x="213" y="559"/>
      <point x="217" y="560" type="curve"/>
      <point x="217" y="559" type="line"/>
      <point x="242" y="564"/>
      <point x="259" y="585"/>
      <point x="259" y="611" type="curve" smooth="yes"/>
      <point x="259" y="637"/>
      <point x="242" y="659"/>
      <point x="217" y="664" type="curve"/>
      <point x="217" y="663" type="line"/>
      <point x="213" y="664"/>
      <point x="209" y="665"/>
    </contour>
  </outline>
</glyph>
<glyph name="uni0985" format="2">
  <advance width="946"/>
  <unicode hex="0985"/>
  <outline>
    <contour>
      <point x="946" y="803" type="line"/>
      <point x="946" y="671" type="line"/>
      <point x="0" y="671" type="line"/>
      <point x="0" y="803" type="line"/>
    </contour>
    <contour>
      <point x="400.78" y="505.479" type="curve"/>
      <point x="400.4" y="503.1"/>
      <point x="395.987" y="634.293"/>
      <point x="395.987" y="634.293" type="curve"/>
      <point x="396.657" y="634.298"/>
      <point x="397.328" y="634.3"/>
      <point x="398" y="634.3" type="curve" smooth="yes"/>
      <point x="566.8" y="634.3"/>
      <point x="703.6" y="493.5"/>
      <point x="703.6" y="319.9" type="curve" smooth="yes"/>
      <point x="703.6" y="145.5"/>
      <point x="566.8" y="4.7002"/>
      <point x="398" y="4.7002" type="curve" smooth="yes"/>
      <point x="229.2" y="4.7002"/>
      <point x="92.4004" y="145.5"/>
      <point x="92.4004" y="319.9" type="curve" smooth="yes"/>
      <point x="92.4004" y="320.777"/>
      <point x="214.863" y="322.658"/>
      <point x="214.87" y="323.533" type="curve"/>
      <point x="214.823" y="321.795"/>
      <point x="214.8" y="320.05"/>
      <point x="214.8" y="318.3" type="curve" smooth="yes"/>
      <point x="214.8" y="214.3"/>
      <point x="296.4" y="130.3"/>
      <point x="398" y="130.3" type="curve" smooth="yes"/>
      <point x="499.6" y="130.3"/>
      <point x="581.2" y="214.3"/>
      <point x="581.2" y="318.3" type="curve" smooth="yes"/>
      <point x="581.2" y="420.557"/>
      <point x="501.085" y="503.963"/>
    </contour>
    <contour>
      <point x="697" y="287" type="line"/>
      <point x="879" y="105" type="line"/>
      <point x="771" y="-2" type="line"/>
      <point x="589" y="180" type="line"/>
    </contour>
    <contour>
      <point x="773" y="0" type="line"/>
      <point x="773" y="776" type="line"/>
      <point x="925" y="776" type="line"/>
      <point x="925" y="0" type="line"/>
    </contour>
  </outline>
</glyph>
<glyph name="uni0987" format="2">
  <advance width="734"/>
  <unicode hex="0987"/>
  <outline>
    <contour>
      <point x="384.091" y="688.745" type="line"/>
      <point x="384.091" y="688.745"/>
      <point x="393.283" y="792.689"/>
      <point x="344.789" y="841.776" type="curve" smooth="yes"/>
      <point x="313.381" y="872.593"/>
      <point x="312.674" y="873.3"/>
      <point x="281.561" y="904.412" type="curve" smooth="yes"/>
      <point x="234.892" y="951.081"/>
      <point x="176.202" y="931.989"/>
      <point x="129.532" y="978.658" type="curve" smooth="yes"/>
      <point x="94.1777" y="1014.01"/>
      <point x="88.5205" y="1098.87"/>
      <point x="88.5205" y="1098.87" type="curve"/>
      <point x="176.909" y="1187.25" type="line"/>
      <point x="176.909" y="1187.25"/>
      <point x="184.688" y="1100.28"/>
      <point x="220.749" y="1064.22" type="curve" smooth="yes"/>
      <point x="266.004" y="1018.96"/>
      <point x="323.28" y="1040.88"/>
      <point x="368.535" y="995.629" type="curve" smooth="yes"/>
      <point x="402.476" y="961.688"/>
      <point x="405.305" y="958.859"/>
      <point x="439.245" y="924.919" type="curve" smooth="yes"/>
      <point x="489.273" y="874.891"/>
      <point x="469.795" y="777.18"/>
      <point x="472.479" y="777.133" type="curve"/>
    </contour>
    <contour>
      <point x="281.142" y="472.207" type="curve"/>
      <point x="281.142" y="472.207"/>
      <point x="173.8" y="578.457"/>
      <point x="173.026" y="577.684" type="curve"/>
      <point x="275.656" y="680.313"/>
      <point x="437.62" y="682.332"/>
      <point x="540.08" y="579.872" type="curve" smooth="yes"/>
      <point x="641.706" y="478.246"/>
      <point x="639.452" y="316.508"/>
      <point x="537.184" y="213.525" type="curve" smooth="yes"/>
      <point x="417.488" y="92.9951"/>
      <point x="266.695" y="125.171"/>
      <point x="175.921" y="217.128" type="curve"/>
      <point x="278.453" y="319.66" type="line"/>
      <point x="278.687" y="319.423"/>
      <point x="278.922" y="319.187"/>
      <point x="279.158" y="318.95" type="curve" smooth="yes"/>
      <point x="321.667" y="276.44"/>
      <point x="385.712" y="277.128"/>
      <point x="431.142" y="321.052" type="curve" smooth="yes"/>
      <point x="474.873" y="366.354"/>
      <point x="475.99" y="430.416"/>
      <point x="433.307" y="473.1" type="curve" smooth="yes"/>
      <point x="390.163" y="516.244"/>
      <point x="326.518" y="515.487"/>
    </contour>
    <contour>
      <point x="734" y="803" type="line"/>
      <point x="734" y="671" type="line"/>
      <point x="45" y="671" type="line"/>
      <point x="45" y="803" type="line"/>
    </contour>
    <contour>
      <point x="479" y="-1" type="line"/>
      <point x="182" y="219" type="line"/>
      <point x="383" y="221" type="line"/>
      <point x="638" y="-1" type="line"/>
    </contour>
  </outline>
</glyph>
<glyph name="uni0988" format="2">
  <advance width="1077"/>
  <unicode hex="0988"/>
  <outline>
    <contour>
      <point x="1077" y="803" type="line"/>
      <point x="1077" y="671" type="line"/>
      <point x="0" y="671" type="line"/>
      <point x="0" y="803" type="line"/>
      <point x="538.489" y="803" type="line"/>
      <point x="532.991" y="828.394"/>
      <point x="522.923" y="854.421"/>
      <point x="504.789" y="872.776" type="curve" smooth="yes"/>
      <point x="473.381" y="903.593"/>
      <point x="472.674" y="904.3"/>
      <point x="441.561" y="935.412" type="curve" smooth="yes"/>
      <point x="394.892" y="982.081"/>
      <point x="336.202" y="962.989"/>
      <point x="289.532" y="1009.66" type="curve" smooth="yes"/>
      <point x="254.178" y="1045.01"/>
      <point x="248.521" y="1129.87"/>
      <point x="248.521" y="1129.87" type="curve"/>
      <point x="336.909" y="1218.25" type="line"/>
      <point x="336.909" y="1218.25"/>
      <point x="344.688" y="1131.28"/>
      <point x="380.749" y="1095.22" type="curve" smooth="yes"/>
      <point x="426.004" y="1049.96"/>
      <point x="483.28" y="1071.88"/>
      <point x="528.535" y="1026.63" type="curve" smooth="yes"/>
      <point x="562.476" y="992.688"/>
      <point x="565.305" y="989.859"/>
      <point x="599.245" y="955.919" type="curve" smooth="yes"/>
      <point x="649.273" y="905.891"/>
      <point x="629.795" y="808.18"/>
      <point x="632.479" y="808.133" type="curve"/>
      <point x="627.347" y="803" type="line"/>
    </contour>
    <contour>
      <point x="236" y="410" type="curve"/>
      <point x="236" y="410"/>
      <point x="129" y="543"/>
      <point x="128" y="542" type="curve"/>
      <point x="231" y="671"/>
      <point x="393" y="673"/>
      <point x="495" y="545" type="curve" smooth="yes"/>
      <point x="527" y="505"/>
      <point x="549" y="458"/>
      <point x="560" y="408" type="curve"/>
      <point x="639" y="488" type="line"/>
      <point x="649" y="508"/>
      <point x="661" y="527"/>
      <point x="675" y="545" type="curve" smooth="yes"/>
      <point x="702" y="579"/>
      <point x="734" y="604"/>
      <point x="768" y="620" type="curve"/>
      <point x="778" y="630" type="line"/>
      <point x="777" y="624" type="line"/>
      <point x="867" y="661"/>
      <point x="969" y="633"/>
      <point x="1042" y="542" type="curve"/>
      <point x="1041" y="543"/>
      <point x="934" y="410"/>
      <point x="934" y="410" type="curve"/>
      <point x="889" y="465"/>
      <point x="825" y="465"/>
      <point x="782" y="412" type="curve" smooth="yes"/>
      <point x="739" y="358"/>
      <point x="740" y="278"/>
      <point x="784" y="221" type="curve" smooth="yes"/>
      <point x="829" y="167"/>
      <point x="893" y="166"/>
      <point x="936" y="219" type="curve" smooth="yes"/>
      <point x="936" y="219"/>
      <point x="936" y="219"/>
      <point x="937" y="220" type="curve"/>
      <point x="1039" y="92" type="line"/>
      <point x="948" y="-23"/>
      <point x="798" y="-64"/>
      <point x="678" y="87" type="curve" smooth="yes"/>
      <point x="641" y="133"/>
      <point x="617" y="189"/>
      <point x="607" y="247" type="curve"/>
      <point x="534" y="151" type="line"/>
      <point x="533" y="152" type="line"/>
      <point x="522" y="129"/>
      <point x="508" y="107"/>
      <point x="492" y="87" type="curve" smooth="yes"/>
      <point x="372" y="-64"/>
      <point x="222" y="-23"/>
      <point x="131" y="92" type="curve"/>
      <point x="233" y="220" type="line"/>
      <point x="234" y="219"/>
      <point x="234" y="219"/>
      <point x="234" y="219" type="curve" smooth="yes"/>
      <point x="277" y="166"/>
      <point x="341" y="167"/>
      <point x="386" y="221" type="curve" smooth="yes"/>
      <point x="389" y="225"/>
      <point x="391" y="228"/>
      <point x="393" y="231" type="curve"/>
      <point x="389" y="234" type="line"/>
      <point x="403" y="248" type="line"/>
      <point x="429" y="301"/>
      <point x="425" y="366"/>
      <point x="388" y="412" type="curve" smooth="yes"/>
      <point x="345" y="465"/>
      <point x="282" y="465"/>
    </contour>
  </outline>
</glyph>
<glyph name="uni098A" format="2">
  <advance width="612"/>
  <unicode hex="098A"/>
  <outline>
    <contour>
      <point x="299.302" y="721.969" type="line"/>
      <point x="299.302" y="721.969"/>
      <point x="308.494" y="825.913"/>
      <point x="260" y="875" type="curve" smooth="yes"/>
      <point x="228.592" y="905.816"/>
      <point x="227.885" y="906.523"/>
      <point x="196.771" y="937.636" type="curve" smooth="yes"/>
      <point x="150.103" y="984.305"/>
      <point x="91.4131" y="965.213"/>
      <point x="44.7432" y="1011.88" type="curve" smooth="yes"/>
      <point x="9.38867" y="1047.24"/>
      <point x="3.73145" y="1132.09"/>
      <point x="3.73145" y="1132.09" type="curve"/>
      <point x="92.1201" y="1220.48" type="line"/>
      <point x="92.1201" y="1220.48"/>
      <point x="99.8984" y="1133.5"/>
      <point x="135.96" y="1097.44" type="curve" smooth="yes"/>
      <point x="181.215" y="1052.19"/>
      <point x="238.491" y="1074.11"/>
      <point x="283.746" y="1028.85" type="curve" smooth="yes"/>
      <point x="317.687" y="994.912"/>
      <point x="320.516" y="992.083"/>
      <point x="354.456" y="958.143" type="curve" smooth="yes"/>
      <point x="404.484" y="908.114"/>
      <point x="385.006" y="810.403"/>
      <point x="387.69" y="810.356" type="curve"/>
    </contour>
    <contour>
      <point x="304" y="751" type="line"/>
      <point x="436" y="751" type="line"/>
      <point x="436" y="366" type="line"/>
      <point x="304" y="366" type="line"/>
    </contour>
    <contour>
      <point x="611" y="803" type="line"/>
      <point x="611" y="671" type="line"/>
      <point x="-5" y="671" type="line"/>
      <point x="-5" y="803" type="line"/>
    </contour>
    <contour>
      <point x="305.771" y="366.966" type="curve"/>
      <point x="305.771" y="366.966"/>
      <point x="305" y="517.998"/>
      <point x="303.905" y="517.998" type="curve"/>
      <point x="449.047" y="517.998"/>
      <point x="568.453" y="404.859"/>
      <point x="565" y="260" type="curve" smooth="yes"/>
      <point x="561.541" y="114.886"/>
      <point x="447.287" y="2.7998"/>
      <point x="303.906" y="3.00195" type="curve" smooth="yes"/>
      <point x="134.039" y="3.24023"/>
      <point x="50.165" y="131.789"/>
      <point x="51.001" y="261" type="curve"/>
      <point x="196.004" y="261" type="line"/>
      <point x="196.001" y="260.667"/>
      <point x="196" y="260.334"/>
      <point x="196" y="260" type="curve" smooth="yes"/>
      <point x="196" y="199.883"/>
      <point x="241.772" y="155.082"/>
      <point x="304.955" y="154.018" type="curve" smooth="yes"/>
      <point x="367.911" y="155.127"/>
      <point x="414" y="199.637"/>
      <point x="414" y="260" type="curve" smooth="yes"/>
      <point x="414" y="321.016"/>
      <point x="368.462" y="365.484"/>
    </contour>
  </outline>
</glyph>
<glyph name="uni098B" format="2">
  <advance width="1344"/>
  <unicode hex="098B"/>
  <outline>
    <contour>
      <point x="1344.5" y="795" type="line"/>
      <point x="1344.5" y="663" type="line"/>
      <point x="1144.5" y="663" type="line"/>
      <point x="1144.5" y="795" type="line"/>
    </contour>
    <contour>
      <point x="1066.5" y="287" type="line"/>
      <point x="1248.5" y="105" type="line"/>
      <point x="1140.5" y="-2" type="line"/>
      <point x="958.5" y="180" type="line"/>
    </contour>
    <contour>
      <point x="1142.5" y="0" type="line"/>
      <point x="1142.5" y="776" type="line"/>
      <point x="1294.5" y="776" type="line"/>
      <point x="1294.5" y="0" type="line"/>
    </contour>
    <contour>
      <point x="436" y="713" type="line"/>
      <point x="436" y="707"/>
      <point x="436" y="700"/>
      <point x="436" y="694" type="curve" smooth="yes"/>
      <point x="436" y="586"/>
      <point x="350" y="500"/>
      <point x="244" y="500" type="curve" smooth="yes"/>
      <point x="136" y="500"/>
      <point x="50" y="586"/>
      <point x="50" y="694" type="curve" smooth="yes"/>
      <point x="50" y="700"/>
      <point x="50" y="707"/>
      <point x="50" y="713" type="curve"/>
      <point x="166" y="713" type="line"/>
      <point x="164" y="707"/>
      <point x="163" y="700"/>
      <point x="163" y="694" type="curve" smooth="yes"/>
      <point x="163" y="649"/>
      <point x="199" y="613"/>
      <point x="244" y="613" type="curve" smooth="yes"/>
      <point x="289" y="613"/>
      <point x="323" y="649"/>
      <point x="323" y="694" type="curve" smooth="yes"/>
      <point x="323" y="700"/>
      <point x="322" y="707"/>
      <point x="320" y="713" type="curve"/>
    </contour>
    <contour>
      <point x="738" y="714" type="line"/>
      <point x="925" y="714" type="line"/>
      <point x="754" y="444" type="line"/>
      <point x="707" y="509" type="line"/>
    </contour>
    <contour>
      <point x="753.5" y="597.5" type="line"/>
      <point x="753.5" y="445.5" type="line"/>
      <point x="612.5" y="273.5" type="line"/>
      <point x="921.5" y="159.5" type="line"/>
      <point x="921.5" y="2.5" type="line"/>
      <point x="468.5" y="179.5" type="line"/>
      <point x="468.5" y="331.5" type="line"/>
    </contour>
    <contour>
      <point x="922" y="777" type="line"/>
      <point x="1068" y="777" type="line"/>
      <point x="1068" y="1" type="line"/>
      <point x="922" y="1" type="line"/>
    </contour>
    <contour>
      <point x="736" y="713" type="line"/>
      <point x="736" y="707"/>
      <point x="736" y="700"/>
      <point x="736" y="694" type="curve" smooth="yes"/>
      <point x="736" y="586"/>
      <point x="650" y="500"/>
      <point x="544" y="500" type="curve" smooth="yes"/>
      <point x="436" y="500"/>
      <point x="350" y="586"/>
      <point x="350" y="694" type="curve" smooth="yes"/>
      <point x="350" y="700"/>
      <point x="350" y="707"/>
      <point x="350" y="713" type="curve"/>
      <point x="466" y="713" type="line"/>
      <point x="464" y="707"/>
      <point x="463" y="700"/>
      <point x="463" y="694" type="curve" smooth="yes"/>
      <point x="463" y="649"/>
      <point x="499" y="613"/>
      <point x="544" y="613" type="curve" smooth="yes"/>
      <point x="589" y="613"/>
      <point x="623" y="649"/>
      <point x="623" y="694" type="curve" smooth="yes"/>
      <point x="623" y="700"/>
      <point x="622" y="707"/>
      <point x="620" y="713" type="curve"/>
    </contour>
  </outline>
</glyph>
<glyph name="uni098F" format="2">
  <advance width="697"/>
  <unicode hex="098F"/>
  <outline>
    <contour>
      <point x="305" y="752" type="line"/>
      <point x="328" y="758"/>
      <point x="351" y="761"/>
      <point x="376" y="761" type="curve" smooth="yes"/>
      <point x="494" y="761"/>
      <point x="590" y="683"/>
      <point x="621" y="574" type="curve"/>
      <point x="624" y="-3" type="line"/>
      <point x="457" y="-3" type="line"/>
      <point x="457" y="573" type="line"/>
      <point x="437" y="596"/>
      <point x="409" y="610"/>
      <point x="376" y="610" type="curve" smooth="yes"/>
      <point x="349" y="610"/>
      <point x="324" y="600"/>
      <point x="305" y="584" type="curve"/>
    </contour>
    <contour>
      <point x="11.5" y="318.5" type="curve"/>
      <point x="179.5" y="318.5" type="line"/>
      <point x="162.167" y="297.833"/>
      <point x="153.5" y="274.167"/>
      <point x="153.5" y="247.5" type="curve" smooth="yes"/>
      <point x="153.5" y="214.833"/>
      <point x="165.833" y="187.833"/>
      <point x="190.5" y="166.5" type="curve"/>
      <point x="554.5" y="166.5" type="line"/>
      <point x="554.5" y="-0.5" type="line"/>
      <point x="189.5" y="2.5" type="line"/>
      <point x="134.167" y="18.5"/>
      <point x="89.167" y="48.833"/>
      <point x="54.5" y="93.5" type="curve" smooth="yes"/>
      <point x="19.833" y="138.167"/>
      <point x="2.5" y="189.5"/>
      <point x="2.5" y="247.5" type="curve" smooth="yes"/>
      <point x="2.5" y="272.167"/>
      <point x="5.5" y="295.833"/>
    </contour>
  </outline>
</glyph>
<glyph name="uni0990" format="2">
  <advance width="956"/>
  <unicode hex="0990"/>
  <outline>
    <contour>
      <point x="592" y="450" type="line"/>
      <point x="592" y="450"/>
      <point x="678" y="413"/>
      <point x="736" y="414" type="curve" smooth="yes"/>
      <point x="758" y="414"/>
      <point x="770" y="432"/>
      <point x="775" y="453" type="curve" smooth="yes"/>
      <point x="800.107" y="562.842"/>
      <point x="738.099" y="683.876"/>
      <point x="662.561" y="759.412" type="curve" smooth="yes"/>
      <point x="615.892" y="806.081"/>
      <point x="557.202" y="786.989"/>
      <point x="510.532" y="833.658" type="curve" smooth="yes"/>
      <point x="475.178" y="869.014"/>
      <point x="469.521" y="953.867"/>
      <point x="469.521" y="953.867" type="curve"/>
      <point x="557.909" y="1042.25" type="line"/>
      <point x="557.909" y="1042.25"/>
      <point x="565.688" y="955.281"/>
      <point x="601.749" y="919.219" type="curve" smooth="yes"/>
      <point x="647.004" y="873.964"/>
      <point x="704.28" y="895.884"/>
      <point x="749.535" y="850.629" type="curve" smooth="yes"/>
      <point x="783.476" y="816.688"/>
      <point x="786.305" y="813.859"/>
      <point x="820.245" y="779.919" type="curve" smooth="yes"/>
      <point x="870.133" y="730.031"/>
      <point x="983.613" y="407.951"/>
      <point x="847" y="342" type="curve" smooth="yes"/>
      <point x="802" y="321"/>
      <point x="773" y="312"/>
      <point x="724" y="312" type="curve" smooth="yes"/>
      <point x="670" y="312"/>
      <point x="589" y="342"/>
      <point x="589" y="342" type="curve"/>
    </contour>
    <contour>
      <point x="11.5" y="318.5" type="curve"/>
      <point x="179.5" y="318.5" type="line"/>
      <point x="162.167" y="297.833"/>
      <point x="153.5" y="274.167"/>
      <point x="153.5" y="247.5" type="curve" smooth="yes"/>
      <point x="153.5" y="214.833"/>
      <point x="165.833" y="187.833"/>
      <point x="190.5" y="166.5" type="curve"/>
      <point x="554.5" y="166.5" type="line"/>
      <point x="554.5" y="-0.5" type="line"/>
      <point x="189.5" y="2.5" type="line"/>
      <point x="134.167" y="18.5"/>
      <point x="89.167" y="48.833"/>
      <point x="54.5" y="93.5" type="curve" smooth="yes"/>
      <point x="19.833" y="138.167"/>
      <point x="2.5" y="189.5"/>
      <point x="2.5" y="247.5" type="curve" smooth="yes"/>
      <point x="2.5" y="272.167"/>
      <point x="5.5" y="295.833"/>
    </contour>
    <contour>
      <point x="305" y="752" type="line"/>
      <point x="328" y="758"/>
      <point x="351" y="761"/>
      <point x="376" y="761" type="curve" smooth="yes"/>
      <point x="494" y="761"/>
      <point x="590" y="683"/>
      <point x="621" y="574" type="curve"/>
      <point x="624" y="-3" type="line"/>
      <point x="457" y="-3" type="line"/>
      <point x="457" y="573" type="line"/>
      <point x="437" y="596"/>
      <point x="409" y="610"/>
      <point x="376" y="610" type="curve" smooth="yes"/>
      <point x="349" y="610"/>
      <point x="324" y="600"/>
      <point x="305" y="584" type="curve"/>
    </contour>
  </outline>
</glyph>
<glyph name="uni0993" format="2">
  <advance width="616"/>
  <unicode hex="0993"/>
  <outline>
    <contour>
      <point x="238" y="674" type="curve" smooth="yes"/>
      <point x="315" y="690"/>
      <point x="375" y="658"/>
      <point x="389" y="581" type="curve" smooth="yes"/>
      <point x="398" y="530"/>
      <point x="370" y="482"/>
      <point x="323" y="464" type="curve"/>
      <point x="323" y="465" type="line"/>
      <point x="315" y="462"/>
      <point x="308" y="459"/>
      <point x="300" y="457" type="curve" smooth="yes"/>
      <point x="340" y="368" type="line"/>
      <point x="340" y="369" type="line"/>
      <point x="390" y="367"/>
      <point x="433" y="332"/>
      <point x="442" y="280" type="curve" smooth="yes"/>
      <point x="452" y="221"/>
      <point x="415" y="170"/>
      <point x="353" y="158" type="curve" smooth="yes"/>
      <point x="290" y="148"/>
      <point x="237" y="184"/>
      <point x="227" y="242" type="curve" smooth="yes"/>
      <point x="202" y="386"/>
      <point x="294" y="359"/>
      <point x="109" y="377" type="curve"/>
      <point x="112" y="377"/>
      <point x="95" y="369"/>
      <point x="99" y="371" type="curve"/>
      <point x="77" y="324"/>
      <point x="69" y="271"/>
      <point x="78" y="216" type="curve" smooth="yes"/>
      <point x="102" y="82"/>
      <point x="225" y="-8"/>
      <point x="359" y="6" type="curve" smooth="yes"/>
      <point x="364" y="6"/>
      <point x="369" y="7"/>
      <point x="373" y="7" type="curve" smooth="yes"/>
      <point x="375" y="8"/>
      <point x="376" y="9"/>
      <point x="377" y="8" type="curve" smooth="yes"/>
      <point x="377" y="8"/>
      <point x="378" y="8"/>
      <point x="378" y="8" type="curve" smooth="yes"/>
      <point x="379" y="8"/>
      <point x="380" y="9"/>
      <point x="381" y="9" type="curve" smooth="yes"/>
      <point x="522" y="34"/>
      <point x="615" y="166"/>
      <point x="591" y="307" type="curve" smooth="yes"/>
      <point x="581" y="364"/>
      <point x="554" y="412"/>
      <point x="515" y="448" type="curve"/>
      <point x="538" y="496"/>
      <point x="546" y="551"/>
      <point x="539" y="607" type="curve" smooth="yes"/>
      <point x="514" y="758"/>
      <point x="397" y="849"/>
      <point x="260" y="804" type="curve" smooth="yes"/>
      <point x="210" y="789"/>
      <point x="157" y="738"/>
      <point x="146" y="737" type="curve" smooth="yes"/>
      <point x="143" y="736"/>
      <point x="181" y="657"/>
      <point x="178" y="657" type="curve"/>
      <point x="184" y="659"/>
      <point x="232" y="672"/>
    </contour>
  </outline>
</glyph>
<glyph name="uni0994" format="2">
  <advance width="616"/>
  <unicode hex="0994"/>
  <outline>
    <contour>
      <point x="518" y="450" type="line"/>
      <point x="518" y="450"/>
      <point x="604" y="413"/>
      <point x="662" y="414" type="curve" smooth="yes"/>
      <point x="684" y="414"/>
      <point x="696" y="432"/>
      <point x="701" y="453" type="curve" smooth="yes"/>
      <point x="726.106" y="562.843"/>
      <point x="664.1" y="683.876"/>
      <point x="588.561" y="759.412" type="curve" smooth="yes"/>
      <point x="541.892" y="806.081"/>
      <point x="483.202" y="786.989"/>
      <point x="436.532" y="833.658" type="curve" smooth="yes"/>
      <point x="401.178" y="869.014"/>
      <point x="395.521" y="953.867"/>
      <point x="395.521" y="953.867" type="curve"/>
      <point x="483.909" y="1042.25" type="line"/>
      <point x="483.909" y="1042.25"/>
      <point x="491.688" y="955.281"/>
      <point x="527.749" y="919.219" type="curve" smooth="yes"/>
      <point x="573.004" y="873.964"/>
      <point x="630.28" y="895.884"/>
      <point x="675.535" y="850.629" type="curve" smooth="yes"/>
      <point x="709.476" y="816.688"/>
      <point x="712.305" y="813.859"/>
      <point x="746.245" y="779.919" type="curve" smooth="yes"/>
      <point x="796.133" y="730.031"/>
      <point x="909.613" y="407.951"/>
      <point x="773" y="342" type="curve" smooth="yes"/>
      <point x="728" y="321"/>
      <point x="699" y="312"/>
      <point x="650" y="312" type="curve" smooth="yes"/>
      <point x="596" y="312"/>
      <point x="515" y="342"/>
      <point x="515" y="342" type="curve"/>
    </contour>
    <contour>
      <point x="287" y="682" type="curve" smooth="yes"/>
      <point x="280.208" y="681.635"/>
      <point x="231.076" y="677.52"/>
      <point x="225" y="676" type="curve"/>
      <point x="227.624" y="676.109"/>
      <point x="204.358" y="760.163"/>
      <point x="207" y="760" type="curve" smooth="yes"/>
      <point x="218.19" y="759.31"/>
      <point x="279.141" y="800.811"/>
      <point x="331" y="808" type="curve" smooth="yes"/>
      <point x="474.523" y="827.896"/>
      <point x="572.979" y="717.309"/>
      <point x="570" y="565" type="curve" smooth="yes"/>
      <point x="568.887" y="508.077"/>
      <point x="551.513" y="455.474"/>
      <point x="520.148" y="412.893" type="curve"/>
      <point x="551.513" y="370.168"/>
      <point x="570" y="317.334"/>
      <point x="570" y="260" type="curve" smooth="yes"/>
      <point x="570" y="118"/>
      <point x="455" y="3"/>
      <point x="312" y="3" type="curve" smooth="yes"/>
      <point x="310.956" y="3"/>
      <point x="309.926" y="3.00156"/>
      <point x="308.906" y="3.00156" type="curve" smooth="yes"/>
      <point x="308.604" y="3.00156"/>
      <point x="308.302" y="3"/>
      <point x="308" y="3" type="curve" smooth="yes"/>
      <point x="306.815" y="3"/>
      <point x="305.632" y="3.0079"/>
      <point x="304.451" y="3.02364" type="curve" smooth="yes"/>
      <point x="299.662" y="3.06955"/>
      <point x="295.005" y="3.20466"/>
      <point x="290.134" y="3.60223" type="curve" smooth="yes"/>
      <point x="155.542" y="12.709"/>
      <point x="50" y="123.965"/>
      <point x="50" y="260" type="curve" smooth="yes"/>
      <point x="50" y="315.204"/>
      <point x="67.1383" y="366.235"/>
      <point x="96.4102" y="408.089" type="curve"/>
      <point x="92.7988" y="407.603"/>
      <point x="111.336" y="412.834"/>
      <point x="108" y="412" type="curve"/>
      <point x="286.962" y="362.55"/>
      <point x="201" y="404.883"/>
      <point x="201" y="260" type="curve" smooth="yes"/>
      <point x="201" y="199.879"/>
      <point x="246.76" y="155.082"/>
      <point x="309.955" y="154.017" type="curve" smooth="yes"/>
      <point x="372.901" y="155.127"/>
      <point x="419" y="199.64"/>
      <point x="419" y="260" type="curve" smooth="yes"/>
      <point x="419" y="312.437"/>
      <point x="383.101" y="354.945"/>
      <point x="334" y="364.828" type="curve"/>
      <point x="334" y="363.865" type="line"/>
      <point x="309.955" y="459.018" type="line" smooth="yes"/>
      <point x="318.23" y="459.163"/>
      <point x="326.28" y="460.234"/>
      <point x="334" y="462.132" type="curve"/>
      <point x="334" y="461.17" type="line"/>
      <point x="383.102" y="471.039"/>
      <point x="419" y="513.437"/>
      <point x="419" y="565" type="curve" smooth="yes"/>
      <point x="419" y="643.32"/>
      <point x="365.104" y="686.195"/>
    </contour>
  </outline>
</glyph>
<glyph name="uni0995" format="2">
  <advance width="1095"/>
  <unicode hex="0995"/>
  <outline>
    <contour>
      <point x="590.5" y="625.5" type="line"/>
      <point x="590.5" y="473.5" type="line"/>
      <point x="223.5" y="349.5" type="line"/>
      <point x="532.5" y="154.5" type="line"/>
      <point x="532.5" y="2.5" type="line"/>
      <point x="79.5" y="273.5" type="line"/>
      <point x="79.5" y="425.5" type="line"/>
    </contour>
    <contour>
      <point x="1098" y="803" type="line"/>
      <point x="1098" y="671" type="line"/>
      <point x="0" y="671" type="line"/>
      <point x="0" y="803" type="line"/>
    </contour>
    <contour>
      <point x="527" y="777" type="line"/>
      <point x="673" y="777" type="line"/>
      <point x="673" y="1" type="line"/>
      <point x="527" y="1" type="line"/>
    </contour>
    <contour>
      <point x="527.796" y="218.5" type="line"/>
      <point x="526.938" y="227.054"/>
      <point x="526.5" y="235.727"/>
      <point x="526.5" y="244.5" type="curve" smooth="yes"/>
      <point x="526.5" y="387.5"/>
      <point x="641.5" y="502.5"/>
      <point x="783.5" y="502.5" type="curve" smooth="yes"/>
      <point x="926.5" y="502.5"/>
      <point x="1041.5" y="387.5"/>
      <point x="1041.5" y="244.5" type="curve" smooth="yes"/>
      <point x="1041.5" y="235.727"/>
      <point x="1041.06" y="227.054"/>
      <point x="1040.2" y="218.5" type="curve"/>
      <point x="887.364" y="218.5" type="line"/>
      <point x="889.415" y="226.826"/>
      <point x="890.5" y="235.536"/>
      <point x="890.5" y="244.5" type="curve" smooth="yes"/>
      <point x="890.5" y="304.5"/>
      <point x="843.5" y="351.5"/>
      <point x="783.5" y="351.5" type="curve" smooth="yes"/>
      <point x="724.5" y="351.5"/>
      <point x="677.5" y="304.5"/>
      <point x="677.5" y="244.5" type="curve" smooth="yes"/>
      <point x="677.5" y="235.536"/>
      <point x="678.585" y="226.826"/>
      <point x="680.632" y="218.5" type="curve"/>
    </contour>
  </outline>
</glyph>
<glyph name="uni0996" format="2">
  <advance width="752"/>
  <unicode hex="0996"/>
  <outline>
    <contour>
      <point x="319.5" y="714" type="line"/>
      <point x="451.5" y="714" type="line"/>
      <point x="335.5" y="444" type="line"/>
      <point x="288.5" y="509" type="line"/>
    </contour>
    <contour>
      <point x="335" y="597.5" type="line"/>
      <point x="335" y="445.5" type="line"/>
      <point x="194" y="273.5" type="line"/>
      <point x="503" y="159.5" type="line"/>
      <point x="503" y="2.5" type="line"/>
      <point x="50" y="179.5" type="line"/>
      <point x="50" y="331.5" type="line"/>
    </contour>
    <contour>
      <point x="724.5" y="803" type="line"/>
      <point x="724.5" y="671" type="line"/>
      <point x="526.5" y="671" type="line"/>
      <point x="526.5" y="803" type="line"/>
    </contour>
    <contour>
      <point x="503.5" y="777" type="line"/>
      <point x="649.5" y="777" type="line"/>
      <point x="649.5" y="1" type="line"/>
      <point x="503.5" y="1" type="line"/>
    </contour>
    <contour>
      <point x="317.5" y="713" type="line"/>
      <point x="317.5" y="707"/>
      <point x="317.5" y="700"/>
      <point x="317.5" y="694" type="curve" smooth="yes"/>
      <point x="317.5" y="586"/>
      <point x="231.5" y="500"/>
      <point x="125.5" y="500" type="curve" smooth="yes"/>
      <point x="17.5" y="500"/>
      <point x="-68.5" y="586"/>
      <point x="-68.5" y="694" type="curve" smooth="yes"/>
      <point x="-68.5" y="700"/>
      <point x="-68.5" y="707"/>
      <point x="-68.5" y="713" type="curve"/>
      <point x="47.5" y="713" type="line"/>
      <point x="45.5" y="707"/>
      <point x="44.5" y="700"/>
      <point x="44.5" y="694" type="curve" smooth="yes"/>
      <point x="44.5" y="649"/>
      <point x="80.5" y="613"/>
      <point x="125.5" y="613" type="curve" smooth="yes"/>
      <point x="170.5" y="613"/>
      <point x="204.5" y="649"/>
      <point x="204.5" y="694" type="curve" smooth="yes"/>
      <point x="204.5" y="700"/>
      <point x="203.5" y="707"/>
      <point x="201.5" y="713" type="curve"/>
    </contour>
  </outline>
</glyph>
<glyph name="uni0997" format="2">
  <advance width="690"/>
  <unicode hex="0997"/>
  <outline>
    <contour>
      <point x="687.5" y="803" type="line"/>
      <point x="687.5" y="671" type="line"/>
      <point x="526.5" y="671" type="line"/>
      <point x="526.5" y="803" type="line"/>
    </contour>
    <contour>
      <point x="487.5" y="850" type="line"/>
      <point x="639.5" y="850" type="line"/>
      <point x="639.5" y="-2" type="line"/>
      <point x="487.5" y="-2" type="line"/>
    </contour>
    <contour>
      <point x="68.6152" y="341" type="curve"/>
      <point x="135.615" y="453" type="line"/>
      <point x="141.615" y="447"/>
      <point x="148.615" y="444"/>
      <point x="157.615" y="441" type="curve" smooth="yes"/>
      <point x="210.615" y="417"/>
      <point x="254.615" y="425"/>
      <point x="280.615" y="456" type="curve" smooth="yes"/>
      <point x="309.615" y="490"/>
      <point x="258.615" y="496"/>
      <point x="204.615" y="505" type="curve"/>
      <point x="76.6152" y="556"/>
      <point x="5.61523" y="639"/>
      <point x="80.6152" y="728" type="curve" smooth="yes"/>
      <point x="143.615" y="804"/>
      <point x="296.615" y="821"/>
      <point x="423.615" y="767" type="curve" smooth="yes"/>
      <point x="430.615" y="764"/>
      <point x="549.615" y="706"/>
      <point x="556.615" y="700" type="curve"/>
      <point x="489.615" y="570" type="line"/>
      <point x="483.615" y="574"/>
      <point x="365.615" y="635"/>
      <point x="356.615" y="638" type="curve" smooth="yes"/>
      <point x="303.615" y="660"/>
      <point x="281.615" y="653"/>
      <point x="255.615" y="622" type="curve" smooth="yes"/>
      <point x="225.615" y="587"/>
      <point x="222.615" y="580"/>
      <point x="286.615" y="569" type="curve"/>
      <point x="405.615" y="519"/>
      <point x="508.615" y="458"/>
      <point x="432.615" y="369" type="curve" smooth="yes"/>
      <point x="370.615" y="293"/>
      <point x="217.615" y="273"/>
      <point x="90.6152" y="328" type="curve" smooth="yes"/>
      <point x="83.6152" y="330"/>
      <point x="76.6152" y="335"/>
    </contour>
  </outline>
</glyph>
<glyph name="uni099A" format="2">
  <advance width="534"/>
  <unicode hex="099A"/>
  <outline>
    <contour>
      <point x="332" y="3" type="line"/>
      <point x="332" y="266" type="line"/>
      <point x="324" y="265"/>
      <point x="316" y="265"/>
      <point x="308" y="265" type="curve" smooth="yes"/>
      <point x="165" y="265"/>
      <point x="50" y="380"/>
      <point x="50" y="523" type="curve" smooth="yes"/>
      <point x="50" y="665"/>
      <point x="165" y="780"/>
      <point x="308" y="780" type="curve" smooth="yes"/>
      <point x="316" y="780"/>
      <point x="403" y="787"/>
      <point x="445" y="752" type="curve" smooth="yes"/>
      <point x="483" y="720"/>
      <point x="484" y="631"/>
      <point x="484" y="631" type="curve"/>
      <point x="484" y="3" type="line"/>
    </contour>
    <contour>
      <point x="332" y="626" type="line"/>
      <point x="324" y="628"/>
      <point x="316" y="629"/>
      <point x="308" y="629" type="curve" smooth="yes"/>
      <point x="248" y="629"/>
      <point x="201" y="582"/>
      <point x="201" y="523" type="curve" smooth="yes"/>
      <point x="201" y="463"/>
      <point x="248" y="416"/>
      <point x="308" y="416" type="curve" smooth="yes"/>
      <point x="316" y="416"/>
      <point x="324" y="417"/>
      <point x="332" y="419" type="curve"/>
    </contour>
  </outline>
</glyph>
<glyph name="uni099C" format="2">
  <advance width="616"/>
  <unicode hex="099C"/>
  <outline>
    <contour>
      <point x="309" y="751" type="line"/>
      <point x="441" y="751" type="line"/>
      <point x="441" y="366" type="line"/>
      <point x="309" y="366" type="line"/>
    </contour>
    <contour>
      <point x="616" y="803" type="line"/>
      <point x="616" y="671" type="line"/>
      <point x="0" y="671" type="line"/>
      <point x="0" y="803" type="line"/>
    </contour>
    <contour>
      <point x="310.771" y="366.966" type="curve"/>
      <point x="310.771" y="366.966"/>
      <point x="310" y="517.998"/>
      <point x="308.906" y="517.998" type="curve"/>
      <point x="454.047" y="517.998"/>
      <point x="573.453" y="404.859"/>
      <point x="570" y="260" type="curve" smooth="yes"/>
      <point x="566.541" y="114.886"/>
      <point x="452.287" y="2.80017"/>
      <point x="308.906" y="3.00156" type="curve" smooth="yes"/>
      <point x="139.039" y="3.24015"/>
      <point x="55.165" y="131.79"/>
      <point x="56.001" y="261" type="curve"/>
      <point x="201.004" y="261" type="line"/>
      <point x="201.001" y="260.667"/>
      <point x="201" y="260.334"/>
      <point x="201" y="260" type="curve" smooth="yes"/>
      <point x="201" y="199.882"/>
      <point x="246.772" y="155.082"/>
      <point x="309.955" y="154.017" type="curve" smooth="yes"/>
      <point x="372.911" y="155.127"/>
      <point x="419" y="199.637"/>
      <point x="419" y="260" type="curve" smooth="yes"/>
      <point x="419" y="321.015"/>
      <point x="373.461" y="365.484"/>
    </contour>
  </outline>
</glyph>
<glyph name="uni099D" format="2">
  <advance width="944"/>
  <unicode hex="099D"/>
  <outline>
    <contour>
      <point x="673" y="287" type="line"/>
      <point x="855" y="105" type="line"/>
      <point x="747" y="-2" type="line"/>
      <point x="565" y="180" type="line"/>
    </contour>
    <contour>
      <point x="749" y="0" type="line"/>
      <point x="749" y="776" type="line"/>
      <point x="901" y="776" type="line"/>
      <point x="901" y="0" type="line"/>
    </contour>
    <contour>
      <point x="581.5" y="625.5" type="line"/>
      <point x="581.5" y="473.5" type="line"/>
      <point x="214.5" y="349.5" type="line"/>
      <point x="523.5" y="154.5" type="line"/>
      <point x="523.5" y="2.5" type="line"/>
      <point x="70.5" y="273.5" type="line"/>
      <point x="70.5" y="425.5" type="line"/>
    </contour>
    <contour>
      <point x="944" y="803" type="line"/>
      <point x="944" y="671" type="line"/>
      <point x="0" y="671" type="line"/>
      <point x="0" y="803" type="line"/>
    </contour>
    <contour>
      <point x="524" y="777" type="line"/>
      <point x="670" y="777" type="line"/>
      <point x="670" y="1" type="line"/>
      <point x="524" y="1" type="line"/>
    </contour>
  </outline>
</glyph>
<glyph name="uni099E" format="2">
  <advance width="821"/>
  <unicode hex="099E"/>
  <outline>
    <contour>
      <point x="637.5" y="543.75" type="curve" smooth="yes"/>
      <point x="634.104" y="543.567"/>
      <point x="609.538" y="541.51"/>
      <point x="606.5" y="540.75" type="curve"/>
      <point x="607.812" y="540.805"/>
      <point x="596.179" y="582.831"/>
      <point x="597.5" y="582.75" type="curve" smooth="yes"/>
      <point x="603.096" y="582.405"/>
      <point x="633.57" y="603.155"/>
      <point x="659.5" y="606.75" type="curve" smooth="yes"/>
      <point x="731.262" y="616.698"/>
      <point x="780.489" y="561.404"/>
      <point x="779" y="485.25" type="curve" smooth="yes"/>
      <point x="778.443" y="456.789"/>
      <point x="769.757" y="430.486"/>
      <point x="754.074" y="409.196" type="curve"/>
      <point x="769.757" y="387.834"/>
      <point x="779" y="361.417"/>
      <point x="779" y="332.75" type="curve" smooth="yes"/>
      <point x="779" y="261.75"/>
      <point x="721.5" y="204.25"/>
      <point x="650" y="204.25" type="curve" smooth="yes"/>
      <point x="649.479" y="204.25"/>
      <point x="648.963" y="204.251"/>
      <point x="648.453" y="204.251" type="curve" smooth="yes"/>
      <point x="648.302" y="204.251"/>
      <point x="648.151" y="204.25"/>
      <point x="648" y="204.25" type="curve" smooth="yes"/>
      <point x="647.407" y="204.25"/>
      <point x="646.816" y="204.254"/>
      <point x="646.226" y="204.262" type="curve" smooth="yes"/>
      <point x="643.831" y="204.285"/>
      <point x="641.503" y="204.353"/>
      <point x="639.067" y="204.551" type="curve" smooth="yes"/>
      <point x="571.771" y="209.104"/>
      <point x="519" y="264.732"/>
      <point x="519" y="332.75" type="curve" smooth="yes"/>
      <point x="519" y="360.353"/>
      <point x="527.569" y="385.868"/>
      <point x="542.205" y="406.795" type="curve"/>
      <point x="540.399" y="406.551"/>
      <point x="549.668" y="409.167"/>
      <point x="548" y="408.75" type="curve"/>
      <point x="637.48" y="384.025"/>
      <point x="594.5" y="405.191"/>
      <point x="594.5" y="332.75" type="curve" smooth="yes"/>
      <point x="594.5" y="302.689"/>
      <point x="617.38" y="280.291"/>
      <point x="648.978" y="279.759" type="curve" smooth="yes"/>
      <point x="680.45" y="280.313"/>
      <point x="703.5" y="302.57"/>
      <point x="703.5" y="332.75" type="curve" smooth="yes"/>
      <point x="703.5" y="358.969"/>
      <point x="685.551" y="380.223"/>
      <point x="661" y="385.164" type="curve"/>
      <point x="661" y="384.683" type="line"/>
      <point x="648.978" y="432.259" type="line" smooth="yes"/>
      <point x="653.115" y="432.332"/>
      <point x="657.141" y="432.867"/>
      <point x="661" y="433.816" type="curve"/>
      <point x="661" y="433.335" type="line"/>
      <point x="685.551" y="438.27"/>
      <point x="703.5" y="459.469"/>
      <point x="703.5" y="485.25" type="curve" smooth="yes"/>
      <point x="703.5" y="524.41"/>
      <point x="676.552" y="545.848"/>
    </contour>
    <contour>
      <point x="305" y="752" type="line"/>
      <point x="328" y="758"/>
      <point x="351" y="761"/>
      <point x="376" y="761" type="curve" smooth="yes"/>
      <point x="494" y="761"/>
      <point x="590" y="683"/>
      <point x="621" y="574" type="curve"/>
      <point x="624" y="-3" type="line"/>
      <point x="457" y="-3" type="line"/>
      <point x="457" y="573" type="line"/>
      <point x="437" y="596"/>
      <point x="409" y="610"/>
      <point x="376" y="610" type="curve" smooth="yes"/>
      <point x="349" y="610"/>
      <point x="324" y="600"/>
      <point x="305" y="584" type="curve"/>
    </contour>
    <contour>
      <point x="11.5" y="318.5" type="curve"/>
      <point x="179.5" y="318.5" type="line"/>
      <point x="162.167" y="297.833"/>
      <point x="153.5" y="274.167"/>
      <point x="153.5" y="247.5" type="curve" smooth="yes"/>
      <point x="153.5" y="214.833"/>
      <point x="165.833" y="187.833"/>
      <point x="190.5" y="166.5" type="curve"/>
      <point x="554.5" y="166.5" type="line"/>
      <point x="554.5" y="-0.5" type="line"/>
      <point x="189.5" y="2.5" type="line"/>
      <point x="134.167" y="18.5"/>
      <point x="89.167" y="48.833"/>
      <point x="54.5" y="93.5" type="curve" smooth="yes"/>
      <point x="19.833" y="138.167"/>
      <point x="2.5" y="189.5"/>
      <point x="2.5" y="247.5" type="curve" smooth="yes"/>
      <point x="2.5" y="272.167"/>
      <point x="5.5" y="295.833"/>
    </contour>
  </outline>
</glyph>
<glyph name="uni099F" format="2">
  <advance width="642"/>
  <unicode hex="099F"/>
  <outline>
    <contour>
      <point x="543.755" y="802.409" type="curve"/>
      <point x="455.367" y="714.021" type="line"/>
      <point x="455.32" y="716.705"/>
      <point x="357.609" y="697.227"/>
      <point x="307.581" y="747.255" type="curve" smooth="yes"/>
      <point x="273.641" y="781.195"/>
      <point x="270.812" y="784.024"/>
      <point x="236.871" y="817.965" type="curve" smooth="yes"/>
      <point x="191.616" y="863.22"/>
      <point x="213.536" y="920.496"/>
      <point x="168.281" y="965.751" type="curve" smooth="yes"/>
      <point x="132.219" y="1001.81"/>
      <point x="45.2451" y="1009.59"/>
      <point x="45.2451" y="1009.59" type="curve"/>
      <point x="133.633" y="1097.98" type="line"/>
      <point x="133.633" y="1097.98"/>
      <point x="218.486" y="1092.32"/>
      <point x="253.842" y="1056.97" type="curve" smooth="yes"/>
      <point x="300.511" y="1010.3"/>
      <point x="281.419" y="951.608"/>
      <point x="328.088" y="904.939" type="curve" smooth="yes"/>
      <point x="359.2" y="873.826"/>
      <point x="359.907" y="873.119"/>
      <point x="390.724" y="841.711" type="curve" smooth="yes"/>
      <point x="439.811" y="793.217"/>
      <point x="543.755" y="802.409"/>
    </contour>
    <contour>
      <point x="639" y="803" type="line"/>
      <point x="639" y="671" type="line"/>
      <point x="0" y="671" type="line"/>
      <point x="0" y="803" type="line"/>
    </contour>
    <contour>
      <point x="616" y="184" type="line"/>
      <point x="547.932" y="-55.4132"/>
      <point x="122.237" y="-59.4453"/>
      <point x="53" y="184" type="curve"/>
      <point x="50" y="761" type="line"/>
      <point x="217" y="761" type="line"/>
      <point x="217" y="185" type="line"/>
      <point x="255.237" y="141.027"/>
      <point x="414.431" y="139.917"/>
      <point x="452" y="185" type="curve"/>
      <point x="452" y="373" type="line"/>
      <point x="619" y="373" type="line"/>
    </contour>
  </outline>
</glyph>
<glyph name="uni09A2" format="2">
  <advance width="642"/>
  <unicode hex="09A2"/>
  <outline>
    <contour>
      <point x="639" y="803" type="line"/>
      <point x="639" y="671" type="line"/>
      <point x="0" y="671" type="line"/>
      <point x="0" y="803" type="line"/>
    </contour>
    <contour>
      <point x="616" y="184" type="line"/>
      <point x="547.932" y="-55.4132"/>
      <point x="122.237" y="-59.4453"/>
      <point x="53" y="184" type="curve"/>
      <point x="50" y="761" type="line"/>
      <point x="217" y="761" type="line"/>
      <point x="217" y="185" type="line"/>
      <point x="255.237" y="141.027"/>
      <point x="414.431" y="139.917"/>
      <point x="452" y="185" type="curve"/>
      <point x="452" y="373" type="line"/>
      <point x="619" y="373" type="line"/>
    </contour>
  </outline>
</glyph>
<glyph name="uni09A3" format="2">
  <advance width="613"/>
  <unicode hex="09A3"/>
  <outline>
    <contour>
      <point x="51.2959" y="468.5" type="line"/>
      <point x="50.4385" y="477.054"/>
      <point x="50" y="485.727"/>
      <point x="50" y="494.5" type="curve" smooth="yes"/>
      <point x="50" y="637.5"/>
      <point x="165" y="752.5"/>
      <point x="307" y="752.5" type="curve" smooth="yes"/>
      <point x="450" y="752.5"/>
      <point x="565" y="637.5"/>
      <point x="565" y="494.5" type="curve" smooth="yes"/>
      <point x="565" y="485.727"/>
      <point x="564.561" y="477.054"/>
      <point x="563.704" y="468.5" type="curve"/>
      <point x="410.864" y="468.5" type="line"/>
      <point x="412.915" y="476.826"/>
      <point x="414" y="485.536"/>
      <point x="414" y="494.5" type="curve" smooth="yes"/>
      <point x="414" y="554.5"/>
      <point x="367" y="601.5"/>
      <point x="307" y="601.5" type="curve" smooth="yes"/>
      <point x="248" y="601.5"/>
      <point x="201" y="554.5"/>
      <point x="201" y="494.5" type="curve" smooth="yes"/>
      <point x="201" y="485.536"/>
      <point x="202.085" y="476.826"/>
      <point x="204.132" y="468.5" type="curve"/>
    </contour>
    <contour>
      <point x="611.5" y="803" type="line"/>
      <point x="611.5" y="671" type="line"/>
      <point x="450.5" y="671" type="line"/>
      <point x="450.5" y="803" type="line"/>
    </contour>
    <contour>
      <point x="411.5" y="850" type="line"/>
      <point x="563.5" y="850" type="line"/>
      <point x="563.5" y="-2" type="line"/>
      <point x="411.5" y="-2" type="line"/>
    </contour>
  </outline>
</glyph>
<glyph name="uni09A5" format="2">
  <advance width="723"/>
  <unicode hex="09A5"/>
  <outline>
    <contour>
      <point x="174.4" y="766.463" type="line"/>
      <point x="181.243" y="767.149"/>
      <point x="186.182" y="767.527"/>
      <point x="193.2" y="767.5" type="curve" smooth="yes"/>
      <point x="307.951" y="767.053"/>
      <point x="460.768" y="698.091"/>
      <point x="467.6" y="578.9" type="curve" smooth="yes"/>
      <point x="476.655" y="420.921"/>
      <point x="281.841" y="347.525"/>
      <point x="180" y="283" type="curve"/>
      <point x="524" y="166.745" type="line"/>
      <point x="524" y="671" type="line"/>
      <point x="524" y="777" type="line"/>
      <point x="524" y="803" type="line"/>
      <point x="723" y="803" type="line"/>
      <point x="723" y="671" type="line"/>
      <point x="670" y="671" type="line"/>
      <point x="670" y="1" type="line"/>
      <point x="524" y="1" type="line"/>
      <point x="524" y="16.0552" type="line"/>
      <point x="88" y="197" type="line"/>
      <point x="88" y="349" type="line"/>
      <point x="88" y="349"/>
      <point x="229" y="446"/>
      <point x="311" y="518" type="curve" smooth="yes"/>
      <point x="332" y="536"/>
      <point x="348.8" y="578.9"/>
      <point x="348.8" y="578.9" type="curve" smooth="yes"/>
      <point x="348.8" y="626.1"/>
      <point x="243.2" y="646.7"/>
      <point x="195.2" y="646.7" type="curve" smooth="yes"/>
      <point x="188.029" y="646.7"/>
      <point x="181.061" y="645.832"/>
      <point x="174.4" y="644.194" type="curve"/>
    </contour>
  </outline>
</glyph>
<glyph name="uni09A7" format="2">
  <advance width="752"/>
  <unicode hex="09A7"/>
  <outline>
    <contour>
      <point x="561" y="625.5" type="line"/>
      <point x="561" y="473.5" type="line"/>
      <point x="194" y="349.5" type="line"/>
      <point x="503" y="154.5" type="line"/>
      <point x="503" y="2.5" type="line"/>
      <point x="50" y="273.5" type="line"/>
      <point x="50" y="425.5" type="line"/>
    </contour>
    <contour>
      <point x="702.5" y="803" type="line"/>
      <point x="702.5" y="671" type="line"/>
      <point x="504.5" y="671" type="line"/>
      <point x="504.5" y="803" type="line"/>
    </contour>
    <contour>
      <point x="503.5" y="777" type="line"/>
      <point x="649.5" y="777" type="line"/>
      <point x="649.5" y="1" type="line"/>
      <point x="503.5" y="1" type="line"/>
    </contour>
    <contour>
      <point x="355" y="413.5" type="line"/>
      <point x="349" y="413.5"/>
      <point x="342" y="413.5"/>
      <point x="336" y="413.5" type="curve" smooth="yes"/>
      <point x="228" y="413.5"/>
      <point x="142" y="499.5"/>
      <point x="142" y="605.5" type="curve" smooth="yes"/>
      <point x="142" y="713.5"/>
      <point x="228" y="799.5"/>
      <point x="336" y="799.5" type="curve" smooth="yes"/>
      <point x="342" y="799.5"/>
      <point x="349" y="799.5"/>
      <point x="355" y="799.5" type="curve"/>
      <point x="355" y="683.5" type="line"/>
      <point x="349" y="685.5"/>
      <point x="342" y="686.5"/>
      <point x="336" y="686.5" type="curve" smooth="yes"/>
      <point x="291" y="686.5"/>
      <point x="255" y="650.5"/>
      <point x="255" y="605.5" type="curve" smooth="yes"/>
      <point x="255" y="560.5"/>
      <point x="291" y="526.5"/>
      <point x="336" y="526.5" type="curve" smooth="yes"/>
      <point x="342" y="526.5"/>
      <point x="349" y="527.5"/>
      <point x="355" y="529.5" type="curve"/>
    </contour>
  </outline>
</glyph>
<glyph name="uni09A8" format="2">
  <advance width="661"/>
  <unicode hex="09A8"/>
  <outline>
    <contour>
      <point x="321.22" y="125.521" type="curve"/>
      <point x="321.6" y="127.9"/>
      <point x="315.013" y="4.70703"/>
      <point x="315.013" y="4.70703" type="curve"/>
      <point x="314.343" y="4.70215"/>
      <point x="313.672" y="4.7002"/>
      <point x="313" y="4.7002" type="curve" smooth="yes"/>
      <point x="144.2" y="4.7002"/>
      <point x="7.40039" y="145.5"/>
      <point x="7.40039" y="319.1" type="curve" smooth="yes"/>
      <point x="7.40039" y="493.5"/>
      <point x="144.2" y="634.3"/>
      <point x="313" y="634.3" type="curve" smooth="yes"/>
      <point x="481.8" y="634.3"/>
      <point x="618.6" y="493.5"/>
      <point x="618.6" y="319.1" type="curve" smooth="yes"/>
      <point x="618.6" y="318.223"/>
      <point x="507.137" y="308.342"/>
      <point x="507.13" y="307.467" type="curve"/>
      <point x="507.177" y="309.205"/>
      <point x="507.2" y="310.95"/>
      <point x="507.2" y="312.7" type="curve" smooth="yes"/>
      <point x="507.2" y="416.7"/>
      <point x="425.6" y="500.7"/>
      <point x="324" y="500.7" type="curve" smooth="yes"/>
      <point x="222.4" y="500.7"/>
      <point x="140.8" y="416.7"/>
      <point x="140.8" y="312.7" type="curve" smooth="yes"/>
      <point x="140.8" y="210.443"/>
      <point x="220.915" y="127.037"/>
    </contour>
    <contour>
      <point x="661" y="803" type="line"/>
      <point x="661" y="671" type="line"/>
      <point x="0" y="671" type="line"/>
      <point x="0" y="803" type="line"/>
    </contour>
    <contour>
      <point x="464" y="803" type="line"/>
      <point x="616" y="803" type="line"/>
      <point x="616" y="-2" type="line"/>
      <point x="464" y="-2" type="line"/>
    </contour>
  </outline>
</glyph>
<glyph name="pa-beng" format="2">
  <advance width="601.3856144438656"/>
  <unicode hex="09AA"/>
  <outline>
    <contour>
      <point x="125.38561444386565" y="467" type="curve"/>
      <point x="131.38561444386565" y="459"/>
      <point x="130" y="444"/>
      <point x="138" y="437" type="curve"/>
      <point x="58.385614443865656" y="394" type="line"/>
      <point x="48.385614443865656" y="405.333"/>
      <point x="39.385614443865656" y="417.667"/>
      <point x="31.385614443865656" y="431" type="curve"/>
      <point x="-1.281085556134343" y="488.333"/>
      <point x="-8.447685556134346" y="549.167"/>
      <point x="9.885614443865656" y="613.5" type="curve" smooth="yes"/>
      <point x="28.218944443865656" y="677.833"/>
      <point x="66.71891444386566" y="727"/>
      <point x="125.38561444386565" y="761" type="curve"/>
      <point x="171.38561444386565" y="786.333"/>
      <point x="219.38561444386565" y="797.167"/>
      <point x="269.3856144438657" y="793.5" type="curve" smooth="yes"/>
      <point x="319.3856144438657" y="789.833"/>
      <point x="363.3856144438657" y="772.667"/>
      <point x="401.3856144438657" y="742" type="curve"/>
      <point x="401.3856144438657" y="845" type="line"/>
      <point x="553.3856144438656" y="845" type="line"/>
      <point x="553.3856144438656" y="801" type="line"/>
      <point x="601.3856144438656" y="801" type="line"/>
      <point x="601.3856144438656" y="669" type="line"/>
      <point x="553.3856144438656" y="669" type="line"/>
      <point x="553.3856144438656" y="89" type="line"/>
      <point x="401.3856144438657" y="89" type="line"/>
      <point x="400.3856144438657" y="591" type="line"/>
      <point x="404.3856144438657" y="591"/>
      <point x="317.3856144438657" y="396"/>
      <point x="317.3856144438657" y="395" type="curve"/>
      <point x="317.3856144438657" y="395"/>
      <point x="129.38561444386565" y="464"/>
    </contour>
    <contour>
      <point x="265" y="538" type="line"/>
      <point x="282" y="584"/>
      <point x="316.2309283986393" y="679.9552239067759"/>
      <point x="316.3856144438657" y="680" type="curve"/>
      <point x="295.05261444386565" y="692"/>
      <point x="271.3856144438657" y="697.833"/>
      <point x="245.38561444386565" y="697.5" type="curve" smooth="yes"/>
      <point x="219.38561444386565" y="697.167"/>
      <point x="195.05261444386565" y="690.333"/>
      <point x="172.38561444386565" y="677" type="curve"/>
      <point x="130.38561444386565" y="653"/>
      <point x="126" y="617"/>
      <point x="120" y="570" type="curve"/>
    </contour>
  </outline>
</glyph>
<glyph name="uni09AB" format="2">
  <advance width="1167"/>
  <unicode hex="09AB"/>
  <outline>
    <contour>
      <point x="645.796" y="294.5" type="line"/>
      <point x="644.938" y="303.054"/>
      <point x="644.5" y="311.727"/>
      <point x="644.5" y="320.5" type="curve" smooth="yes"/>
      <point x="644.5" y="463.5"/>
      <point x="759.5" y="578.5"/>
      <point x="901.5" y="578.5" type="curve" smooth="yes"/>
      <point x="1044.5" y="578.5"/>
      <point x="1159.5" y="463.5"/>
      <point x="1159.5" y="320.5" type="curve" smooth="yes"/>
      <point x="1159.5" y="311.727"/>
      <point x="1159.06" y="303.054"/>
      <point x="1158.2" y="294.5" type="curve"/>
      <point x="1005.36" y="294.5" type="line"/>
      <point x="1007.42" y="302.826"/>
      <point x="1008.5" y="311.536"/>
      <point x="1008.5" y="320.5" type="curve" smooth="yes"/>
      <point x="1008.5" y="380.5"/>
      <point x="961.5" y="427.5"/>
      <point x="901.5" y="427.5" type="curve" smooth="yes"/>
      <point x="842.5" y="427.5"/>
      <point x="795.5" y="380.5"/>
      <point x="795.5" y="320.5" type="curve" smooth="yes"/>
      <point x="795.5" y="311.536"/>
      <point x="796.585" y="302.826"/>
      <point x="798.632" y="294.5" type="curve"/>
    </contour>
    <contour>
      <point x="1167" y="803" type="line"/>
      <point x="1167" y="671" type="line"/>
      <point x="0" y="671" type="line"/>
      <point x="0" y="803" type="line"/>
    </contour>
    <contour>
      <point x="644" y="323" type="line"/>
      <point x="796" y="323" type="line"/>
      <point x="796" y="-2" type="line"/>
      <point x="644" y="-2" type="line"/>
    </contour>
    <contour>
      <point x="76.7559" y="180.198" type="line"/>
      <point x="108.229" y="327.02" type="line"/>
      <point x="379.268" y="487.462" type="line"/>
      <point x="89.9893" y="690.754" type="line"/>
      <point x="121.462" y="802.575" type="line"/>
      <point x="540.244" y="568.802" type="line"/>
      <point x="508.771" y="421.98" type="line"/>
      <point x="302.187" y="262.056" type="line"/>
      <point x="681.011" y="145.246" type="line"/>
      <point x="649.538" y="-1.5752" type="line"/>
    </contour>
  </outline>
</glyph>
<glyph name="uni09AD" format="2">
  <advance width="726"/>
  <unicode hex="09AD"/>
  <outline>
    <contour>
      <point x="509" y="617" type="line"/>
      <point x="509" y="611"/>
      <point x="509" y="604"/>
      <point x="509" y="598" type="curve" smooth="yes"/>
      <point x="509" y="490"/>
      <point x="423" y="404"/>
      <point x="317" y="404" type="curve" smooth="yes"/>
      <point x="209" y="404"/>
      <point x="123" y="490"/>
      <point x="123" y="598" type="curve" smooth="yes"/>
      <point x="123" y="604"/>
      <point x="123" y="611"/>
      <point x="123" y="617" type="curve"/>
      <point x="239" y="617" type="line"/>
      <point x="237" y="611"/>
      <point x="236" y="604"/>
      <point x="236" y="598" type="curve" smooth="yes"/>
      <point x="236" y="553"/>
      <point x="272" y="517"/>
      <point x="317" y="517" type="curve" smooth="yes"/>
      <point x="362" y="517"/>
      <point x="396" y="553"/>
      <point x="396" y="598" type="curve" smooth="yes"/>
      <point x="396" y="604"/>
      <point x="395" y="611"/>
      <point x="393" y="617" type="curve"/>
    </contour>
    <contour>
      <point x="726" y="803" type="line"/>
      <point x="726" y="671" type="line"/>
      <point x="0" y="671" type="line"/>
      <point x="0" y="803" type="line"/>
    </contour>
    <contour>
      <point x="389.78" y="513.479" type="curve"/>
      <point x="389.4" y="511.1"/>
      <point x="395.987" y="634.293"/>
      <point x="395.987" y="634.293" type="curve"/>
      <point x="396.657" y="634.298"/>
      <point x="397.328" y="634.3"/>
      <point x="398" y="634.3" type="curve" smooth="yes"/>
      <point x="566.8" y="634.3"/>
      <point x="703.6" y="493.5"/>
      <point x="703.6" y="319.9" type="curve" smooth="yes"/>
      <point x="703.6" y="145.5"/>
      <point x="566.8" y="4.7002"/>
      <point x="398" y="4.7002" type="curve" smooth="yes"/>
      <point x="229.2" y="4.7002"/>
      <point x="92.4004" y="145.5"/>
      <point x="92.4004" y="319.9" type="curve" smooth="yes"/>
      <point x="92.4004" y="320.777"/>
      <point x="203.863" y="330.658"/>
      <point x="203.87" y="331.533" type="curve"/>
      <point x="203.823" y="329.795"/>
      <point x="203.8" y="328.05"/>
      <point x="203.8" y="326.3" type="curve" smooth="yes"/>
      <point x="203.8" y="222.3"/>
      <point x="285.4" y="138.3"/>
      <point x="387" y="138.3" type="curve" smooth="yes"/>
      <point x="488.6" y="138.3"/>
      <point x="570.2" y="222.3"/>
      <point x="570.2" y="326.3" type="curve" smooth="yes"/>
      <point x="570.2" y="428.557"/>
      <point x="490.085" y="511.963"/>
    </contour>
  </outline>
</glyph>
<glyph name="uni09AE" format="2">
  <advance width="778"/>
  <unicode hex="09AE"/>
  <outline>
    <contour>
      <point x="263.906" y="3.00195" type="curve" smooth="yes"/>
      <point x="263.604" y="3.00098"/>
      <point x="263.302" y="3"/>
      <point x="263" y="3" type="curve" smooth="yes"/>
      <point x="261.815" y="3"/>
      <point x="260.632" y="3.00781"/>
      <point x="259.451" y="3.02344" type="curve" smooth="yes"/>
      <point x="254.662" y="3.06934"/>
      <point x="250.005" y="3.20508"/>
      <point x="245.134" y="3.60254" type="curve" smooth="yes"/>
      <point x="110.542" y="12.709"/>
      <point x="5" y="123.965"/>
      <point x="5" y="260" type="curve" smooth="yes"/>
      <point x="5" y="396.991"/>
      <point x="110.539" y="508.286"/>
      <point x="245.129" y="517.397" type="curve" smooth="yes"/>
      <point x="250.002" y="517.795"/>
      <point x="254.66" y="517.931"/>
      <point x="259.451" y="517.977" type="curve" smooth="yes"/>
      <point x="260.632" y="517.992"/>
      <point x="261.815" y="518"/>
      <point x="263" y="518" type="curve" smooth="yes"/>
      <point x="263.302" y="518"/>
      <point x="263.604" y="517.999"/>
      <point x="263.905" y="517.998" type="curve"/>
      <point x="264.926" y="518"/>
      <point x="265.956" y="518"/>
      <point x="267" y="518" type="curve" smooth="yes"/>
      <point x="410" y="518"/>
      <point x="525" y="403"/>
      <point x="525" y="260" type="curve" smooth="yes"/>
      <point x="525" y="118"/>
      <point x="410" y="3"/>
      <point x="267" y="3" type="curve" smooth="yes"/>
      <point x="265.956" y="3"/>
      <point x="264.926" y="3"/>
    </contour>
    <contour>
      <point x="264.955" y="366.982" type="curve" smooth="yes"/>
      <point x="256.642" y="366.843"/>
      <point x="248.394" y="365.849"/>
      <point x="241" y="364" type="curve"/>
      <point x="241" y="364.828" type="line"/>
      <point x="191.898" y="354.945"/>
      <point x="156" y="312.438"/>
      <point x="156" y="260" type="curve" smooth="yes"/>
      <point x="156" y="208.437"/>
      <point x="191.898" y="166.039"/>
      <point x="241" y="156.17" type="curve"/>
      <point x="241" y="157" type="line"/>
      <point x="248.394" y="155.151"/>
      <point x="256.642" y="154.157"/>
      <point x="264.955" y="154.018" type="curve"/>
      <point x="273.23" y="154.163"/>
      <point x="281.28" y="155.234"/>
      <point x="289" y="157.132" type="curve"/>
      <point x="289" y="156.17" type="line"/>
      <point x="338.102" y="166.039"/>
      <point x="374" y="208.437"/>
      <point x="374" y="260" type="curve" smooth="yes"/>
      <point x="374" y="312.438"/>
      <point x="338.102" y="354.945"/>
      <point x="289" y="364.828" type="curve"/>
      <point x="289" y="363.864" type="line"/>
      <point x="281.28" y="365.766"/>
      <point x="273.23" y="366.837"/>
    </contour>
    <contour>
      <point x="770" y="803" type="line"/>
      <point x="770" y="671" type="line"/>
      <point x="-6" y="671" type="line"/>
      <point x="-6" y="803" type="line"/>
    </contour>
    <contour>
      <point x="440" y="328" type="line"/>
      <point x="703" y="105" type="line"/>
      <point x="595" y="-2" type="line"/>
      <point x="413" y="180" type="line"/>
    </contour>
    <contour>
      <point x="597" y="0" type="line"/>
      <point x="597" y="776" type="line"/>
      <point x="749" y="776" type="line"/>
      <point x="749" y="0" type="line"/>
    </contour>
    <contour>
      <point x="215.232" y="356.162" type="curve"/>
      <point x="92.4627" y="424.534"/>
      <point x="11.503" y="538.634"/>
      <point x="95" y="677" type="curve" smooth="yes"/>
      <point x="165" y="793"/>
      <point x="322" y="832"/>
      <point x="447" y="765" type="curve" smooth="yes"/>
      <point x="453" y="759"/>
      <point x="461" y="756"/>
      <point x="468" y="750" type="curve"/>
      <point x="393" y="701" type="line"/>
      <point x="387" y="706"/>
      <point x="346" y="661"/>
      <point x="336" y="666" type="curve" smooth="yes"/>
      <point x="285" y="694"/>
      <point x="255.56" y="652.267"/>
      <point x="226" y="603" type="curve" smooth="yes"/>
      <point x="193" y="548"/>
      <point x="226" y="467"/>
      <point x="290" y="456" type="curve"/>
      <point x="295.863" y="452.843"/>
      <point x="209.48" y="359.434"/>
    </contour>
    <contour>
      <point x="307.433" y="446.359" type="move"/>
    </contour>
  </outline>
</glyph>
<glyph name="uni09AF" format="2">
  <advance width="841"/>
  <unicode hex="09AF"/>
  <outline>
    <contour>
      <point x="841" y="803" type="line"/>
      <point x="841" y="671" type="line"/>
      <point x="0" y="671" type="line"/>
      <point x="0" y="803" type="line"/>
    </contour>
    <contour>
      <point x="644" y="803" type="line"/>
      <point x="796" y="803" type="line"/>
      <point x="796" y="-2" type="line"/>
      <point x="644" y="-2" type="line"/>
    </contour>
    <contour>
      <point x="76.7559" y="180.198" type="line"/>
      <point x="108.229" y="327.02" type="line"/>
      <point x="379.268" y="487.462" type="line"/>
      <point x="89.9893" y="690.754" type="line"/>
      <point x="121.462" y="802.575" type="line"/>
      <point x="540.244" y="568.802" type="line"/>
      <point x="508.771" y="421.98" type="line"/>
      <point x="302.187" y="262.056" type="line"/>
      <point x="681.011" y="145.246" type="line"/>
      <point x="649.538" y="-1.5752" type="line"/>
    </contour>
  </outline>
</glyph>
<glyph name="uni09B0" format="2">
  <advance width="723"/>
  <unicode hex="09B0"/>
  <outline>
    <contour>
      <point x="581.5" y="625.5" type="line"/>
      <point x="581.5" y="473.5" type="line"/>
      <point x="214.5" y="349.5" type="line"/>
      <point x="523.5" y="154.5" type="line"/>
      <point x="523.5" y="2.5" type="line"/>
      <point x="70.5" y="273.5" type="line"/>
      <point x="70.5" y="425.5" type="line"/>
    </contour>
    <contour>
      <point x="723" y="803" type="line"/>
      <point x="723" y="671" type="line"/>
      <point x="0" y="671" type="line"/>
      <point x="0" y="803" type="line"/>
    </contour>
    <contour>
      <point x="524" y="777" type="line"/>
      <point x="670" y="777" type="line"/>
      <point x="670" y="1" type="line"/>
      <point x="524" y="1" type="line"/>
    </contour>
    <contour>
      <point x="94" y="-2" type="line"/>
      <point x="94" y="140" type="line"/>
      <point x="246" y="140" type="line"/>
      <point x="246" y="-2" type="line"/>
    </contour>
  </outline>
</glyph>
<glyph name="uni09B2" format="2">
  <advance width="943"/>
  <unicode hex="09B2"/>
  <outline>
    <contour>
      <point x="561" y="122" type="curve"/>
      <point x="550" y="99"/>
      <point x="487" y="0"/>
      <point x="488" y="-1" type="curve"/>
      <point x="379" y="94"/>
      <point x="367" y="261"/>
      <point x="470" y="363" type="curve" smooth="yes"/>
      <point x="571" y="465"/>
      <point x="717" y="458"/>
      <point x="820" y="356" type="curve" smooth="yes"/>
      <point x="940" y="236"/>
      <point x="906" y="89"/>
      <point x="814" y="-2" type="curve"/>
      <point x="745" y="80" type="line"/>
      <point x="767" y="87"/>
      <point x="746" y="118"/>
      <point x="747" y="118" type="curve" smooth="yes"/>
      <point x="789" y="161"/>
      <point x="772" y="209"/>
      <point x="728" y="254" type="curve" smooth="yes"/>
      <point x="683" y="298"/>
      <point x="619" y="299"/>
      <point x="576" y="257" type="curve" smooth="yes"/>
      <point x="533" y="213"/>
      <point x="518" y="168"/>
    </contour>
    <contour>
      <point x="943" y="803" type="line"/>
      <point x="943" y="671" type="line"/>
      <point x="895" y="671" type="line"/>
      <point x="895" y="46.6672" type="line" smooth="yes"/>
      <point x="895.227" y="45.6097"/>
      <point x="895.31" y="44.5539"/>
      <point x="895.204" y="43.5" type="curve" smooth="yes"/>
      <point x="895" y="43.5" type="line"/>
      <point x="895" y="-2" type="line"/>
      <point x="743" y="-2" type="line"/>
      <point x="743" y="43.5" type="line"/>
      <point x="742.364" y="43.5" type="line"/>
      <point x="742.588" y="44.4071"/>
      <point x="742.8" y="45.3188"/>
      <point x="743" y="46.2349" type="curve" smooth="yes"/>
      <point x="743" y="93.0699" type="line"/>
      <point x="743" y="299.968" type="line"/>
      <point x="743" y="671" type="line"/>
      <point x="0" y="671" type="line"/>
      <point x="0" y="803" type="line"/>
      <point x="743" y="803" type="line"/>
      <point x="895" y="803" type="line"/>
    </contour>
    <contour>
      <point x="249" y="110" type="curve"/>
      <point x="249" y="110"/>
      <point x="143" y="3"/>
      <point x="144" y="2" type="curve"/>
      <point x="41" y="105"/>
      <point x="39" y="267"/>
      <point x="142" y="369" type="curve" smooth="yes"/>
      <point x="243" y="471"/>
      <point x="389" y="464"/>
      <point x="492" y="362" type="curve" smooth="yes"/>
      <point x="612" y="242"/>
      <point x="580" y="91"/>
      <point x="488" y="0" type="curve"/>
      <point x="435" y="91" type="line"/>
      <point x="419" y="89"/>
      <point x="423" y="112"/>
      <point x="422" y="113" type="curve" smooth="yes"/>
      <point x="413" y="123"/>
      <point x="444" y="215"/>
      <point x="400" y="260" type="curve" smooth="yes"/>
      <point x="355" y="304"/>
      <point x="291" y="305"/>
      <point x="248" y="263" type="curve" smooth="yes"/>
      <point x="205" y="219"/>
      <point x="206" y="156"/>
    </contour>
  </outline>
</glyph>
<glyph name="uni09B6" format="2">
  <advance width="642"/>
  <unicode hex="09B6"/>
  <outline>
    <contour>
      <point x="642.5" y="803" type="line"/>
      <point x="642.5" y="671" type="line"/>
      <point x="481.5" y="671" type="line"/>
      <point x="481.5" y="803" type="line"/>
    </contour>
    <contour>
      <point x="529.5" y="487" type="line"/>
      <point x="395.5" y="622" type="line"/>
      <point x="420.5" y="703" type="line"/>
      <point x="548.5" y="594" type="line"/>
    </contour>
    <contour>
      <point x="442.5" y="847" type="line"/>
      <point x="594.5" y="847" type="line"/>
      <point x="594.5" y="-2" type="line"/>
      <point x="442.5" y="-2" type="line"/>
    </contour>
    <contour>
      <point x="423" y="705.5" type="curve"/>
      <point x="423" y="589.5" type="line"/>
      <point x="417" y="591.5"/>
      <point x="410" y="592.5"/>
      <point x="404" y="592.5" type="curve" smooth="yes"/>
      <point x="359" y="592.5"/>
      <point x="323" y="558.5"/>
      <point x="323" y="513.5" type="curve" smooth="yes"/>
      <point x="323" y="468.5"/>
      <point x="359" y="432.5"/>
      <point x="404" y="432.5" type="curve" smooth="yes"/>
      <point x="410" y="432.5"/>
      <point x="417" y="433.5"/>
      <point x="423" y="435.5" type="curve"/>
      <point x="423" y="319.5" type="line"/>
      <point x="417" y="319.5"/>
      <point x="410" y="319.5"/>
      <point x="404" y="319.5" type="curve" smooth="yes"/>
      <point x="296" y="319.5"/>
      <point x="210" y="405.5"/>
      <point x="210" y="513.5" type="curve" smooth="yes"/>
      <point x="210" y="619.5"/>
      <point x="296" y="705.5"/>
      <point x="404" y="705.5" type="curve" smooth="yes"/>
      <point x="410" y="705.5"/>
      <point x="417" y="705.5"/>
    </contour>
    <contour>
      <point x="0" y="705.5" type="line"/>
      <point x="6" y="705.5"/>
      <point x="13" y="705.5"/>
      <point x="19" y="705.5" type="curve" smooth="yes"/>
      <point x="127" y="705.5"/>
      <point x="213" y="619.5"/>
      <point x="213" y="513.5" type="curve" smooth="yes"/>
      <point x="213" y="405.5"/>
      <point x="127" y="319.5"/>
      <point x="19" y="319.5" type="curve" smooth="yes"/>
      <point x="13" y="319.5"/>
      <point x="6" y="319.5"/>
      <point x="0" y="319.5" type="curve"/>
      <point x="0" y="435.5" type="line"/>
      <point x="6" y="433.5"/>
      <point x="13" y="432.5"/>
      <point x="19" y="432.5" type="curve" smooth="yes"/>
      <point x="64" y="432.5"/>
      <point x="100" y="468.5"/>
      <point x="100" y="513.5" type="curve" smooth="yes"/>
      <point x="100" y="558.5"/>
      <point x="64" y="592.5"/>
      <point x="19" y="592.5" type="curve" smooth="yes"/>
      <point x="13" y="592.5"/>
      <point x="6" y="591.5"/>
      <point x="0" y="589.5" type="curve"/>
    </contour>
  </outline>
</glyph>
<glyph name="uni09B7" format="2">
  <advance width="841"/>
  <unicode hex="09B7"/>
  <outline>
    <contour>
      <point x="76.7559" y="180.198" type="line"/>
      <point x="108.229" y="327.02" type="line"/>
      <point x="379.268" y="487.462" type="line"/>
      <point x="118.098" y="671" type="line"/>
      <point x="0" y="671" type="line"/>
      <point x="0" y="803" type="line"/>
      <point x="841" y="803" type="line"/>
      <point x="841" y="671" type="line"/>
      <point x="796" y="671" type="line"/>
      <point x="796" y="-2" type="line"/>
      <point x="644" y="-2" type="line"/>
      <point x="644" y="0.182326" type="line"/>
    </contour>
    <contour>
      <point x="644" y="156.658" type="line"/>
      <point x="644" y="381.505" type="line"/>
      <point x="511.956" y="436.837" type="line"/>
      <point x="302.187" y="262.056" type="line"/>
    </contour>
    <contour>
      <point x="644" y="671" type="line"/>
      <point x="357.166" y="671" type="line"/>
      <point x="644" y="528.982" type="line"/>
    </contour>
  </outline>
</glyph>
<glyph name="uni09B8" format="2">
  <advance width="512"/>
  <unicode hex="09B8"/>
  <outline>
    <contour>
      <point x="776" y="803" type="line"/>
      <point x="776" y="671" type="line"/>
      <point x="0" y="671" type="line"/>
      <point x="0" y="803" type="line"/>
    </contour>
    <contour>
      <point x="446" y="328" type="line"/>
      <point x="709" y="105" type="line"/>
      <point x="601" y="-2" type="line"/>
      <point x="419" y="180" type="line"/>
    </contour>
    <contour>
      <point x="603" y="0" type="line"/>
      <point x="603" y="776" type="line"/>
      <point x="755" y="776" type="line"/>
      <point x="755" y="0" type="line"/>
    </contour>
    <contour>
      <point x="55" y="95" type="curve"/>
      <point x="130" y="220" type="line"/>
      <point x="136" y="215"/>
      <point x="142" y="210"/>
      <point x="152" y="205" type="curve" smooth="yes"/>
      <point x="203" y="175"/>
      <point x="267" y="192"/>
      <point x="297" y="240" type="curve" smooth="yes"/>
      <point x="329" y="296"/>
      <point x="279" y="344"/>
      <point x="227" y="353" type="curve"/>
      <point x="101" y="421"/>
      <point x="17" y="536"/>
      <point x="101" y="677" type="curve" smooth="yes"/>
      <point x="171" y="793"/>
      <point x="328" y="832"/>
      <point x="453" y="765" type="curve" smooth="yes"/>
      <point x="459" y="759"/>
      <point x="467" y="756"/>
      <point x="474" y="750" type="curve"/>
      <point x="399" y="701" type="line"/>
      <point x="393" y="706"/>
      <point x="352" y="661"/>
      <point x="342" y="666" type="curve" smooth="yes"/>
      <point x="291" y="694"/>
      <point x="261.56" y="652.267"/>
      <point x="232" y="603" type="curve" smooth="yes"/>
      <point x="199" y="548"/>
      <point x="232" y="467"/>
      <point x="296" y="456" type="curve"/>
      <point x="413" y="393"/>
      <point x="512" y="308"/>
      <point x="427" y="168" type="curve" smooth="yes"/>
      <point x="358" y="51"/>
      <point x="201" y="12"/>
      <point x="76" y="80" type="curve" smooth="yes"/>
      <point x="70" y="86"/>
      <point x="62" y="89"/>
    </contour>
  </outline>
</glyph>
<glyph name="uni09B9" format="2">
  <advance width="689"/>
  <unicode hex="09B9"/>
  <outline>
    <contour>
      <point x="236.142" y="472.207" type="curve"/>
      <point x="236.142" y="472.207"/>
      <point x="128.8" y="578.457"/>
      <point x="128.026" y="577.684" type="curve"/>
      <point x="230.656" y="680.313"/>
      <point x="392.62" y="682.332"/>
      <point x="495.08" y="579.872" type="curve" smooth="yes"/>
      <point x="596.706" y="478.246"/>
      <point x="594.452" y="316.508"/>
      <point x="492.184" y="213.525" type="curve" smooth="yes"/>
      <point x="372.488" y="92.9951"/>
      <point x="221.695" y="125.171"/>
      <point x="130.921" y="217.128" type="curve"/>
      <point x="233.453" y="319.66" type="line"/>
      <point x="233.687" y="319.423"/>
      <point x="233.922" y="319.187"/>
      <point x="234.158" y="318.95" type="curve" smooth="yes"/>
      <point x="276.667" y="276.44"/>
      <point x="340.712" y="277.128"/>
      <point x="386.142" y="321.052" type="curve" smooth="yes"/>
      <point x="429.873" y="366.354"/>
      <point x="430.99" y="430.416"/>
      <point x="388.307" y="473.1" type="curve" smooth="yes"/>
      <point x="345.163" y="516.244"/>
      <point x="281.518" y="515.487"/>
    </contour>
    <contour>
      <point x="689" y="803" type="line"/>
      <point x="689" y="671" type="line"/>
      <point x="0" y="671" type="line"/>
      <point x="0" y="803" type="line"/>
    </contour>
    <contour>
      <point x="434" y="-1" type="line"/>
      <point x="137" y="219" type="line"/>
      <point x="338" y="221" type="line"/>
      <point x="593" y="-1" type="line"/>
    </contour>
  </outline>
</glyph>
<glyph name="uni09BC" format="2">
  <advance width="0"/>
  <unicode hex="09BC"/>
  <outline>
    <contour>
      <point x="-460" y="-138" type="line"/>
      <point x="-460" y="4" type="line"/>
      <point x="-308" y="4" type="line"/>
      <point x="-308" y="-138" type="line"/>
    </contour>
  </outline>
</glyph>
<glyph name="uni09BE" format="2">
  <advance width="436"/>
  <unicode hex="09BE"/>
  <outline>
    <contour>
      <point x="434" y="803" type="line"/>
      <point x="434" y="671" type="line"/>
      <point x="273" y="671" type="line"/>
      <point x="273" y="803" type="line"/>
    </contour>
    <contour>
      <point x="232" y="487" type="line"/>
      <point x="-73" y="785" type="line"/>
      <point x="128" y="782" type="line"/>
      <point x="340" y="594" type="line"/>
    </contour>
    <contour>
      <point x="234" y="847" type="line"/>
      <point x="386" y="847" type="line"/>
      <point x="386" y="-2" type="line"/>
      <point x="234" y="-2" type="line"/>
    </contour>
  </outline>
</glyph>
